{"glyphs":{"0":{"ha":833,"x_min":90,"x_max":781,"o":"m 354 -14 q 155 66 219 -14 q 113 285 90 146 l 183 729 q 295 948 206 868 q 519 1028 385 1028 q 717 949 653 1028 q 758 729 781 869 l 688 285 q 576 66 665 146 q 354 -14 488 -14 m 365 56 q 529 117 464 56 q 611 285 594 178 l 682 729 q 653 897 699 836 q 508 958 607 958 q 343 897 410 958 q 260 729 276 836 l 189 285 q 219 117 172 179 q 365 56 267 56 m 440 442 q 390 461 410 442 q 371 511 371 481 q 390 562 371 543 q 440 581 410 581 q 491 562 472 581 q 510 511 510 543 q 491 461 510 481 q 440 442 472 442 z "},"1":{"ha":833,"x_min":78,"x_max":685,"o":"m 78 0 l 88 63 l 375 63 l 515 951 l 207 749 l 219 826 l 504 1014 l 596 1014 l 444 63 l 685 63 l 675 0 l 78 0 z "},"2":{"ha":833,"x_min":72,"x_max":786,"o":"m 72 0 l 83 69 l 458 401 q 625 581 568 499 q 696 744 682 663 q 660 907 711 847 q 504 967 608 967 q 329 906 400 967 q 243 743 258 846 l 174 743 q 234 894 188 831 q 353 993 281 958 q 514 1028 425 1028 q 718 952 650 1028 q 765 749 786 876 q 687 560 751 656 q 501 358 622 465 l 165 63 l 685 63 l 675 0 l 72 0 z "},"3":{"ha":833,"x_min":88,"x_max":767,"o":"m 340 -14 q 151 62 214 -14 q 107 264 88 138 l 176 264 q 208 106 161 163 q 351 49 254 49 q 513 106 449 49 q 593 264 578 164 l 608 363 q 578 516 624 461 q 433 571 532 571 l 363 571 l 372 631 l 681 951 l 250 951 l 261 1014 l 767 1014 l 756 947 l 451 633 q 636 557 575 629 q 678 363 697 485 l 663 264 q 556 62 643 138 q 340 -14 468 -14 z "},"4":{"ha":833,"x_min":94,"x_max":693,"o":"m 522 0 l 560 236 l 94 236 l 117 375 l 615 1013 l 693 1013 l 183 354 l 174 299 l 569 299 l 615 583 l 685 583 l 592 0 l 522 0 z "},"5":{"ha":833,"x_min":104,"x_max":767,"o":"m 353 -14 q 167 51 231 -14 q 114 231 104 117 l 183 231 q 222 97 175 146 q 364 49 269 49 q 526 110 463 49 q 608 283 590 172 l 624 375 q 596 544 640 483 q 451 604 551 604 q 324 565 379 604 q 240 453 269 525 l 171 453 l 267 1014 l 767 1014 l 756 951 l 322 951 l 251 528 l 251 528 q 340 629 278 592 q 489 667 403 667 q 663 591 610 667 q 693 375 715 515 l 678 283 q 569 67 657 147 q 353 -14 481 -14 z "},"6":{"ha":833,"x_min":82,"x_max":725,"o":"m 353 -14 q 199 26 261 -14 q 109 138 136 67 q 96 306 82 210 q 141 435 107 371 q 222 564 175 500 l 551 1014 l 629 1014 l 269 538 l 274 533 q 354 583 299 558 q 479 607 410 607 q 619 568 563 607 q 701 460 676 529 q 710 299 725 392 q 644 135 694 206 q 519 26 594 65 q 353 -14 444 -12 m 363 49 q 546 116 469 49 q 640 299 622 183 q 603 478 657 408 q 442 549 549 549 q 314 517 372 549 q 217 428 256 485 q 165 299 178 372 q 198 116 143 183 q 363 49 253 49 z "},"7":{"ha":833,"x_min":181,"x_max":843,"o":"m 239 0 l 758 943 l 290 943 l 257 736 l 181 736 l 225 1014 l 843 1014 l 831 938 l 321 0 l 239 0 z "},"8":{"ha":833,"x_min":78,"x_max":779,"o":"m 354 -14 q 149 56 219 -14 q 96 244 78 125 q 175 399 111 333 q 365 519 239 464 l 379 526 l 365 533 q 236 644 278 581 q 207 786 194 707 q 263 910 218 856 q 376 997 308 965 q 519 1028 443 1028 q 658 996 599 1028 q 749 909 718 964 q 768 786 779 854 q 692 645 757 710 q 517 532 626 581 l 501 525 l 513 519 q 665 397 621 460 q 693 244 708 333 q 634 106 681 164 q 516 17 588 49 q 354 -14 444 -14 m 399 582 l 446 556 l 501 581 q 641 672 593 622 q 699 782 689 721 q 658 915 711 864 q 510 965 604 965 q 355 916 419 965 q 276 782 290 867 q 297 669 267 718 q 399 582 328 621 m 364 49 q 538 100 467 49 q 624 240 610 151 q 597 371 635 313 q 479 472 560 429 l 435 496 l 382 472 q 233 373 289 431 q 165 242 176 315 q 207 101 151 153 q 364 49 263 49 z "},"9":{"ha":833,"x_min":156,"x_max":782,"o":"m 236 0 l 601 476 l 597 481 q 517 432 572 456 q 392 408 461 408 q 261 447 317 408 q 181 552 206 485 q 169 708 156 619 q 233 876 185 804 q 356 988 282 947 q 518 1028 429 1028 q 669 988 608 1028 q 756 876 729 947 q 767 708 782 804 q 650 450 746 579 l 314 0 l 236 0 m 429 464 q 606 531 532 464 q 699 710 679 599 q 667 895 719 825 q 508 965 615 965 q 332 895 406 965 q 239 708 258 825 q 274 531 221 599 q 429 464 326 464 z "},"A":{"ha":833,"x_min":33,"x_max":678,"o":"m 33 0 l 474 1014 l 560 1014 l 678 0 l 608 0 l 576 292 l 229 292 l 106 0 l 33 0 m 256 354 l 569 354 l 525 764 q 514 890 517 839 q 510 956 511 940 q 484 890 504 940 q 432 764 464 839 l 256 354 z "},"Á":{"ha":833,"x_min":33,"x_max":746,"o":"m 33 0 l 474 1014 l 560 1014 l 678 0 l 608 0 l 576 292 l 229 292 l 106 0 l 33 0 m 256 354 l 569 354 l 525 764 q 514 890 517 839 q 510 956 511 940 q 484 890 504 940 q 432 764 464 839 l 256 354 m 481 1125 l 658 1319 l 746 1319 l 560 1125 l 481 1125 z "},"Ă":{"ha":833,"x_min":33,"x_max":765,"o":"m 33 0 l 474 1014 l 560 1014 l 678 0 l 608 0 l 576 292 l 229 292 l 106 0 l 33 0 m 256 354 l 569 354 l 525 764 q 514 890 517 839 q 510 956 511 940 q 484 890 504 940 q 432 764 464 839 l 256 354 m 533 1122 q 394 1176 440 1122 q 363 1319 349 1229 l 425 1319 q 446 1216 415 1254 q 540 1178 476 1178 q 649 1216 606 1178 q 703 1319 693 1254 l 765 1319 q 689 1176 751 1229 q 533 1122 626 1122 z "},"Ắ":{"ha":833,"x_min":33,"x_max":763,"o":"m 33 0 l 474 1014 l 560 1014 l 678 0 l 608 0 l 576 292 l 229 292 l 106 0 l 33 0 m 256 354 l 569 354 l 525 764 q 514 890 517 839 q 510 956 511 940 q 484 890 504 940 q 432 764 464 839 l 256 354 m 493 1243 l 660 1417 l 746 1417 l 565 1243 l 493 1243 m 500 1083 q 376 1131 419 1083 q 346 1257 333 1179 l 408 1257 q 428 1172 400 1204 q 508 1139 456 1139 l 564 1139 q 654 1172 617 1139 q 700 1257 692 1204 l 763 1257 q 694 1131 750 1179 q 556 1083 638 1083 l 500 1083 z "},"Ặ":{"ha":833,"x_min":33,"x_max":765,"o":"m 33 0 l 474 1014 l 560 1014 l 678 0 l 608 0 l 576 292 l 229 292 l 106 0 l 33 0 m 256 354 l 569 354 l 525 764 q 514 890 517 839 q 510 956 511 940 q 484 890 504 940 q 432 764 464 839 l 256 354 m 311 -285 q 256 -264 275 -285 q 242 -208 236 -243 q 273 -153 247 -174 q 335 -132 299 -132 q 390 -153 371 -132 q 403 -208 408 -174 q 372 -264 397 -243 q 311 -285 347 -285 m 533 1122 q 394 1176 440 1122 q 363 1319 349 1229 l 425 1319 q 446 1216 415 1254 q 540 1178 476 1178 q 649 1216 606 1178 q 703 1319 693 1254 l 765 1319 q 689 1176 751 1229 q 533 1122 626 1122 z "},"Ằ":{"ha":833,"x_min":33,"x_max":763,"o":"m 33 0 l 474 1014 l 560 1014 l 678 0 l 608 0 l 576 292 l 229 292 l 106 0 l 33 0 m 256 354 l 569 354 l 525 764 q 514 890 517 839 q 510 956 511 940 q 484 890 504 940 q 432 764 464 839 l 256 354 m 550 1243 l 435 1417 l 513 1417 l 614 1243 l 550 1243 m 500 1083 q 376 1131 419 1083 q 346 1257 333 1179 l 408 1257 q 428 1172 400 1204 q 508 1139 456 1139 l 564 1139 q 654 1172 617 1139 q 700 1257 692 1204 l 763 1257 q 694 1131 750 1179 q 556 1083 638 1083 l 500 1083 z "},"Ẳ":{"ha":833,"x_min":33,"x_max":763,"o":"m 33 0 l 474 1014 l 560 1014 l 678 0 l 608 0 l 576 292 l 229 292 l 106 0 l 33 0 m 256 354 l 569 354 l 525 764 q 514 890 517 839 q 510 956 511 940 q 484 890 504 940 q 432 764 464 839 l 256 354 m 503 1222 l 579 1296 q 603 1322 594 1311 q 614 1342 613 1333 q 582 1368 618 1368 l 479 1368 l 488 1417 l 586 1417 q 653 1399 631 1417 q 669 1349 675 1381 q 654 1309 667 1329 q 622 1271 642 1289 l 572 1222 l 503 1222 m 500 1083 q 376 1131 419 1083 q 346 1257 333 1179 l 408 1257 q 428 1172 400 1204 q 508 1139 456 1139 l 564 1139 q 654 1172 617 1139 q 700 1257 692 1204 l 763 1257 q 694 1131 750 1179 q 556 1083 638 1083 l 500 1083 z "},"Ẵ":{"ha":833,"x_min":33,"x_max":786,"o":"m 33 0 l 474 1014 l 560 1014 l 678 0 l 608 0 l 576 292 l 229 292 l 106 0 l 33 0 m 256 354 l 569 354 l 525 764 q 514 890 517 839 q 510 956 511 940 q 484 890 504 940 q 432 764 464 839 l 256 354 m 663 1278 q 603 1291 626 1278 q 561 1321 579 1304 q 524 1351 543 1338 q 475 1364 504 1364 q 411 1313 422 1364 l 407 1292 l 351 1292 l 356 1313 q 399 1389 365 1361 q 483 1417 432 1417 q 543 1403 519 1417 q 585 1374 567 1390 q 622 1344 603 1357 q 671 1331 642 1331 q 709 1344 693 1331 q 728 1382 725 1358 l 731 1403 l 786 1403 l 783 1382 q 744 1306 778 1335 q 663 1278 711 1278 m 500 1083 q 376 1129 419 1083 q 346 1250 333 1175 l 408 1250 q 428 1169 400 1200 q 508 1139 456 1139 l 564 1139 q 654 1169 617 1139 q 700 1250 692 1200 l 763 1250 q 694 1129 750 1175 q 556 1083 638 1083 l 500 1083 z "},"Ǎ":{"ha":833,"x_min":33,"x_max":772,"o":"m 33 0 l 474 1014 l 560 1014 l 678 0 l 608 0 l 576 292 l 229 292 l 106 0 l 33 0 m 256 354 l 569 354 l 525 764 q 514 890 517 839 q 510 956 511 940 q 484 890 504 940 q 432 764 464 839 l 256 354 m 492 1125 l 356 1319 l 424 1319 l 540 1168 l 703 1319 l 772 1319 l 575 1125 l 492 1125 z "},"Â":{"ha":833,"x_min":33,"x_max":742,"o":"m 33 0 l 474 1014 l 560 1014 l 678 0 l 608 0 l 576 292 l 229 292 l 106 0 l 33 0 m 256 354 l 569 354 l 525 764 q 514 890 517 839 q 510 956 511 940 q 484 890 504 940 q 432 764 464 839 l 256 354 m 325 1125 l 522 1319 l 606 1319 l 742 1125 l 676 1125 l 561 1276 l 399 1125 l 325 1125 z "},"Ấ":{"ha":833,"x_min":33,"x_max":957,"o":"m 33 0 l 474 1014 l 560 1014 l 678 0 l 608 0 l 576 292 l 229 292 l 106 0 l 33 0 m 256 354 l 569 354 l 525 764 q 514 890 517 839 q 510 956 511 940 q 484 890 504 940 q 432 764 464 839 l 256 354 m 697 1243 l 871 1417 l 957 1417 l 769 1243 l 697 1243 m 319 1083 l 517 1278 l 600 1278 l 736 1083 l 671 1083 l 554 1235 l 393 1083 l 319 1083 z "},"Ậ":{"ha":833,"x_min":33,"x_max":742,"o":"m 33 0 l 474 1014 l 560 1014 l 678 0 l 608 0 l 576 292 l 229 292 l 106 0 l 33 0 m 256 354 l 569 354 l 525 764 q 514 890 517 839 q 510 956 511 940 q 484 890 504 940 q 432 764 464 839 l 256 354 m 311 -285 q 256 -264 275 -285 q 242 -208 236 -243 q 273 -153 247 -174 q 335 -132 299 -132 q 390 -153 371 -132 q 403 -208 408 -174 q 372 -264 397 -243 q 311 -285 347 -285 m 325 1125 l 522 1319 l 606 1319 l 742 1125 l 676 1125 l 561 1276 l 399 1125 l 325 1125 z "},"Ầ":{"ha":833,"x_min":33,"x_max":822,"o":"m 33 0 l 474 1014 l 560 1014 l 678 0 l 608 0 l 576 292 l 229 292 l 106 0 l 33 0 m 256 354 l 569 354 l 525 764 q 514 890 517 839 q 510 956 511 940 q 484 890 504 940 q 432 764 464 839 l 256 354 m 756 1243 l 618 1417 l 699 1417 l 822 1243 l 756 1243 m 319 1083 l 517 1278 l 600 1278 l 736 1083 l 671 1083 l 554 1235 l 393 1083 l 319 1083 z "},"Ẩ":{"ha":833,"x_min":33,"x_max":906,"o":"m 33 0 l 474 1014 l 560 1014 l 678 0 l 608 0 l 576 292 l 229 292 l 106 0 l 33 0 m 256 354 l 569 354 l 525 764 q 514 890 517 839 q 510 956 511 940 q 484 890 504 940 q 432 764 464 839 l 256 354 m 733 1222 l 810 1296 q 834 1322 825 1311 q 844 1342 843 1333 q 813 1368 849 1368 l 710 1368 l 718 1417 l 817 1417 q 883 1399 861 1417 q 900 1349 906 1381 q 885 1309 897 1329 q 853 1271 872 1289 l 803 1222 l 733 1222 m 319 1083 l 517 1278 l 600 1278 l 736 1083 l 671 1083 l 554 1235 l 393 1083 l 319 1083 z "},"Ẫ":{"ha":833,"x_min":33,"x_max":786,"o":"m 33 0 l 474 1014 l 560 1014 l 678 0 l 608 0 l 576 292 l 229 292 l 106 0 l 33 0 m 256 354 l 569 354 l 525 764 q 514 890 517 839 q 510 956 511 940 q 484 890 504 940 q 432 764 464 839 l 256 354 m 663 1278 q 603 1291 626 1278 q 561 1321 579 1304 q 524 1351 543 1338 q 475 1364 504 1364 q 411 1313 422 1364 l 407 1292 l 351 1292 l 356 1313 q 399 1389 365 1361 q 483 1417 432 1417 q 543 1403 519 1417 q 585 1374 567 1390 q 622 1344 603 1357 q 671 1331 642 1331 q 709 1344 693 1331 q 728 1382 725 1358 l 731 1403 l 786 1403 l 783 1382 q 744 1306 778 1335 q 663 1278 711 1278 m 319 1083 l 513 1251 l 596 1251 l 736 1083 l 671 1083 l 550 1211 l 393 1083 l 319 1083 z "},"Ä":{"ha":833,"x_min":33,"x_max":779,"o":"m 33 0 l 474 1014 l 560 1014 l 678 0 l 608 0 l 576 292 l 229 292 l 106 0 l 33 0 m 256 354 l 569 354 l 525 764 q 514 890 517 839 q 510 956 511 940 q 484 890 504 940 q 432 764 464 839 l 256 354 m 690 1146 q 640 1167 657 1146 q 628 1222 622 1188 q 658 1278 635 1257 q 714 1299 681 1299 q 763 1278 746 1299 q 772 1222 779 1257 q 744 1167 767 1188 q 690 1146 722 1146 m 392 1146 q 342 1167 360 1146 q 331 1222 325 1188 q 360 1278 338 1257 q 415 1299 383 1299 q 465 1278 447 1299 q 475 1222 482 1257 q 447 1167 469 1188 q 392 1146 424 1146 z "},"Ạ":{"ha":833,"x_min":33,"x_max":678,"o":"m 33 0 l 474 1014 l 560 1014 l 678 0 l 608 0 l 576 292 l 229 292 l 106 0 l 33 0 m 256 354 l 569 354 l 525 764 q 514 890 517 839 q 510 956 511 940 q 484 890 504 940 q 432 764 464 839 l 256 354 m 311 -285 q 256 -264 275 -285 q 242 -208 236 -243 q 273 -153 247 -174 q 335 -132 299 -132 q 390 -153 371 -132 q 403 -208 408 -174 q 372 -264 397 -243 q 311 -285 347 -285 z "},"À":{"ha":833,"x_min":33,"x_max":678,"o":"m 33 0 l 474 1014 l 560 1014 l 678 0 l 608 0 l 576 292 l 229 292 l 106 0 l 33 0 m 256 354 l 569 354 l 525 764 q 514 890 517 839 q 510 956 511 940 q 484 890 504 940 q 432 764 464 839 l 256 354 m 511 1125 l 386 1319 l 467 1319 l 583 1125 l 511 1125 z "},"Ả":{"ha":833,"x_min":33,"x_max":683,"o":"m 33 0 l 474 1014 l 560 1014 l 678 0 l 608 0 l 576 292 l 229 292 l 106 0 l 33 0 m 256 354 l 569 354 l 525 764 q 514 890 517 839 q 510 956 511 940 q 484 890 504 940 q 432 764 464 839 l 256 354 m 492 1111 l 586 1217 q 608 1245 599 1232 q 619 1267 618 1258 q 575 1306 626 1306 l 453 1306 l 461 1354 l 583 1354 q 658 1332 632 1354 q 678 1272 683 1310 q 665 1236 675 1256 q 640 1199 656 1217 l 564 1111 l 492 1111 z "},"Ā":{"ha":833,"x_min":33,"x_max":747,"o":"m 33 0 l 474 1014 l 560 1014 l 678 0 l 608 0 l 576 292 l 229 292 l 106 0 l 33 0 m 256 354 l 569 354 l 525 764 q 514 890 517 839 q 510 956 511 940 q 484 890 504 940 q 432 764 464 839 l 256 354 m 349 1186 l 358 1246 l 747 1246 l 738 1186 l 349 1186 z "},"Ą":{"ha":833,"x_min":33,"x_max":700,"o":"m 33 0 l 474 1014 l 560 1014 l 676 14 l 676 14 l 676 14 l 678 0 l 658 0 q 584 -76 613 -37 q 551 -143 556 -114 q 562 -194 546 -175 q 611 -212 578 -212 l 700 -212 l 690 -271 l 589 -271 q 503 -241 532 -271 q 483 -160 475 -211 q 522 -77 489 -119 q 608 3 556 -35 l 576 292 l 229 292 l 106 0 l 33 0 m 256 354 l 569 354 l 525 764 q 514 890 517 839 q 510 956 511 940 q 484 890 504 940 q 432 764 464 839 l 256 354 z "},"Å":{"ha":833,"x_min":33,"x_max":706,"o":"m 33 0 l 474 1014 l 560 1014 l 678 0 l 608 0 l 576 292 l 229 292 l 106 0 l 33 0 m 256 354 l 569 354 l 525 764 q 514 890 517 839 q 510 956 511 940 q 484 890 504 940 q 432 764 464 839 l 256 354 m 529 1083 q 428 1122 464 1083 q 403 1222 393 1160 q 460 1323 414 1285 q 572 1361 507 1361 q 672 1323 638 1361 q 694 1222 706 1285 q 640 1122 685 1160 q 529 1083 594 1083 m 535 1132 q 604 1157 575 1132 q 639 1222 633 1182 q 625 1288 646 1263 q 564 1313 604 1313 q 494 1288 524 1313 q 458 1222 465 1263 q 474 1157 453 1182 q 535 1132 494 1132 z "},"Ã":{"ha":833,"x_min":33,"x_max":785,"o":"m 33 0 l 474 1014 l 560 1014 l 678 0 l 608 0 l 576 292 l 229 292 l 106 0 l 33 0 m 256 354 l 569 354 l 525 764 q 514 890 517 839 q 510 956 511 940 q 484 890 504 940 q 432 764 464 839 l 256 354 m 639 1132 q 576 1151 600 1132 q 534 1195 551 1169 q 499 1240 517 1221 q 457 1258 482 1258 q 403 1239 425 1258 q 376 1188 382 1219 l 369 1139 l 314 1139 l 321 1188 q 369 1279 331 1246 q 467 1313 408 1313 q 530 1294 506 1313 q 571 1249 554 1275 q 605 1205 588 1224 q 647 1186 622 1186 q 696 1206 676 1186 q 721 1257 715 1225 l 729 1306 l 785 1306 l 776 1257 q 731 1165 767 1199 q 639 1132 694 1132 z "},"Æ":{"ha":833,"x_min":-14,"x_max":890,"o":"m -14 0 l 408 1014 l 890 1014 l 879 951 l 589 951 l 528 558 l 768 558 l 758 496 l 518 496 l 449 63 l 739 63 l 729 0 l 369 0 l 417 299 l 181 299 l 56 0 l -14 0 m 208 361 l 426 361 l 519 951 l 449 951 l 208 361 z "},"Ǽ":{"ha":833,"x_min":-14,"x_max":890,"o":"m -14 0 l 408 1014 l 890 1014 l 879 951 l 589 951 l 528 558 l 768 558 l 758 496 l 518 496 l 449 63 l 739 63 l 729 0 l 369 0 l 417 299 l 181 299 l 56 0 l -14 0 m 208 361 l 426 361 l 519 951 l 449 951 l 208 361 m 481 1125 l 658 1319 l 746 1319 l 560 1125 l 481 1125 z "},"B":{"ha":833,"x_min":92,"x_max":769,"o":"m 92 0 l 253 1014 l 514 1014 q 705 943 640 1014 q 750 753 769 872 q 685 601 736 663 q 557 521 633 540 q 677 440 639 504 q 700 278 715 375 q 587 76 679 151 q 357 0 494 0 l 92 0 m 249 553 l 440 553 q 603 606 539 553 q 681 751 667 658 q 648 897 696 844 q 503 950 600 950 l 311 950 l 249 553 m 171 64 l 367 64 q 544 121 474 64 q 631 276 614 178 q 594 433 646 375 q 435 490 542 490 l 239 490 l 171 64 z "},"C":{"ha":833,"x_min":107,"x_max":785,"o":"m 361 -14 q 171 62 235 -14 q 126 264 107 138 l 204 750 q 312 953 224 878 q 526 1028 400 1028 q 720 949 656 1028 q 764 736 785 869 l 694 736 q 663 904 711 843 q 517 965 615 965 q 354 908 419 965 q 274 750 289 850 l 196 264 q 228 106 181 164 q 372 49 275 49 q 539 110 472 49 q 622 278 606 172 l 692 278 q 632 124 678 189 q 517 22 586 58 q 361 -14 447 -14 z "},"Ć":{"ha":833,"x_min":107,"x_max":785,"o":"m 361 -14 q 171 62 235 -14 q 126 264 107 138 l 204 750 q 312 953 224 878 q 526 1028 400 1028 q 720 949 656 1028 q 764 736 785 869 l 694 736 q 663 904 711 843 q 517 965 615 965 q 354 908 419 965 q 274 750 289 850 l 196 264 q 228 106 181 164 q 372 49 275 49 q 539 110 472 49 q 622 278 606 172 l 692 278 q 632 124 678 189 q 517 22 586 58 q 361 -14 447 -14 m 488 1125 l 665 1319 l 753 1319 l 567 1125 l 488 1125 z "},"Č":{"ha":833,"x_min":107,"x_max":785,"o":"m 361 -14 q 171 62 235 -14 q 126 264 107 138 l 204 750 q 312 953 224 878 q 526 1028 400 1028 q 720 949 656 1028 q 764 736 785 869 l 694 736 q 663 904 711 843 q 517 965 615 965 q 354 908 419 965 q 274 750 289 850 l 196 264 q 228 106 181 164 q 372 49 275 49 q 539 110 472 49 q 622 278 606 172 l 692 278 q 632 124 678 189 q 517 22 586 58 q 361 -14 447 -14 m 499 1125 l 363 1319 l 431 1319 l 547 1168 l 710 1319 l 779 1319 l 582 1125 l 499 1125 z "},"Ç":{"ha":833,"x_min":108,"x_max":785,"o":"m 229 -271 l 238 -222 l 349 -222 q 406 -204 382 -222 q 432 -164 429 -186 q 396 -110 438 -131 q 281 -89 354 -89 l 322 -12 q 161 74 214 0 q 126 264 108 147 l 204 750 q 312 953 224 878 q 526 1028 400 1028 q 720 949 656 1028 q 764 736 785 869 l 694 736 q 663 904 711 843 q 517 965 615 965 q 354 908 419 965 q 274 750 289 850 l 196 264 q 228 106 181 164 q 372 49 275 49 q 539 110 472 49 q 622 278 606 172 l 692 278 q 586 71 671 149 q 379 -14 501 -7 l 361 -47 q 428 -61 394 -49 q 482 -99 461 -74 q 496 -164 503 -124 q 446 -240 489 -208 q 340 -271 403 -271 l 229 -271 z "},"Ĉ":{"ha":833,"x_min":107,"x_max":785,"o":"m 361 -14 q 171 62 235 -14 q 126 264 107 138 l 204 750 q 312 953 224 878 q 526 1028 400 1028 q 720 949 656 1028 q 764 736 785 869 l 694 736 q 663 904 711 843 q 517 965 615 965 q 354 908 419 965 q 274 750 289 850 l 196 264 q 228 106 181 164 q 372 49 275 49 q 539 110 472 49 q 622 278 606 172 l 692 278 q 632 124 678 189 q 517 22 586 58 q 361 -14 447 -14 m 332 1125 l 529 1319 l 613 1319 l 749 1125 l 683 1125 l 568 1276 l 406 1125 l 332 1125 z "},"Ċ":{"ha":833,"x_min":107,"x_max":785,"o":"m 361 -14 q 171 62 235 -14 q 126 264 107 138 l 204 750 q 312 953 224 878 q 526 1028 400 1028 q 720 949 656 1028 q 764 736 785 869 l 694 736 q 663 904 711 843 q 517 965 615 965 q 354 908 419 965 q 274 750 289 850 l 196 264 q 228 106 181 164 q 372 49 275 49 q 539 110 472 49 q 622 278 606 172 l 692 278 q 632 124 678 189 q 517 22 586 58 q 361 -14 447 -14 m 544 1146 q 489 1167 508 1146 q 475 1222 469 1188 q 507 1278 482 1257 q 568 1299 532 1299 q 624 1278 604 1299 q 636 1222 643 1257 q 606 1167 631 1188 q 544 1146 581 1146 z "},"D":{"ha":833,"x_min":92,"x_max":754,"o":"m 92 0 l 253 1014 l 475 1014 q 633 976 569 1014 q 726 869 697 938 q 739 708 754 800 l 675 306 q 610 145 661 214 q 484 38 560 76 q 314 0 408 0 l 92 0 m 171 64 l 324 64 q 510 130 433 64 q 606 306 588 196 l 669 708 q 629 883 686 817 q 464 950 572 950 l 311 950 l 171 64 z "},"Ð":{"ha":833,"x_min":14,"x_max":754,"o":"m 92 0 l 169 488 l 14 488 l 14 549 l 179 549 l 253 1014 l 475 1014 q 633 976 569 1014 q 726 869 697 938 q 739 708 754 800 l 675 306 q 610 145 661 214 q 484 38 560 76 q 314 0 408 0 l 92 0 m 171 64 l 324 64 q 510 130 433 64 q 606 306 588 196 l 669 708 q 629 883 686 817 q 464 950 572 950 l 311 950 l 247 549 l 403 549 l 403 488 l 238 488 l 171 64 z "},"Ď":{"ha":833,"x_min":92,"x_max":772,"o":"m 92 0 l 253 1014 l 475 1014 q 633 976 569 1014 q 726 869 697 938 q 739 708 754 800 l 675 306 q 610 145 661 214 q 484 38 560 76 q 314 0 408 0 l 92 0 m 171 64 l 324 64 q 510 130 433 64 q 606 306 588 196 l 669 708 q 629 883 686 817 q 464 950 572 950 l 311 950 l 171 64 m 492 1125 l 356 1319 l 424 1319 l 540 1168 l 703 1319 l 772 1319 l 575 1125 l 492 1125 z "},"Đ":{"ha":833,"x_min":14,"x_max":754,"o":"m 92 0 l 169 488 l 14 488 l 24 549 l 179 549 l 253 1014 l 475 1014 q 633 976 569 1014 q 726 869 697 938 q 739 708 754 800 l 675 306 q 610 145 661 214 q 484 38 560 76 q 314 0 408 0 l 92 0 m 171 64 l 324 64 q 510 130 433 64 q 606 306 588 196 l 669 708 q 629 883 686 817 q 464 950 572 950 l 311 950 l 247 549 l 413 549 l 403 488 l 238 488 l 171 64 z "},"E":{"ha":833,"x_min":106,"x_max":808,"o":"m 106 0 l 267 1014 l 808 1014 l 797 950 l 325 950 l 264 560 l 688 560 l 678 497 l 254 497 l 185 64 l 657 64 l 647 0 l 106 0 z "},"É":{"ha":833,"x_min":106,"x_max":808,"o":"m 106 0 l 267 1014 l 808 1014 l 797 950 l 325 950 l 264 560 l 688 560 l 678 497 l 254 497 l 185 64 l 657 64 l 647 0 l 106 0 m 508 1125 l 686 1319 l 774 1319 l 588 1125 l 508 1125 z "},"Ĕ":{"ha":833,"x_min":106,"x_max":808,"o":"m 106 0 l 267 1014 l 808 1014 l 797 950 l 325 950 l 264 560 l 688 560 l 678 497 l 254 497 l 185 64 l 657 64 l 647 0 l 106 0 m 561 1122 q 422 1176 468 1122 q 390 1319 376 1229 l 453 1319 q 474 1216 443 1254 q 568 1178 504 1178 q 677 1216 633 1178 q 731 1319 721 1254 l 793 1319 q 717 1176 779 1229 q 561 1122 654 1122 z "},"Ě":{"ha":833,"x_min":106,"x_max":808,"o":"m 106 0 l 267 1014 l 808 1014 l 797 950 l 325 950 l 264 560 l 688 560 l 678 497 l 254 497 l 185 64 l 657 64 l 647 0 l 106 0 m 519 1125 l 383 1319 l 451 1319 l 568 1168 l 731 1319 l 800 1319 l 603 1125 l 519 1125 z "},"Ê":{"ha":833,"x_min":106,"x_max":808,"o":"m 106 0 l 267 1014 l 808 1014 l 797 950 l 325 950 l 264 560 l 688 560 l 678 497 l 254 497 l 185 64 l 657 64 l 647 0 l 106 0 m 353 1125 l 550 1319 l 633 1319 l 769 1125 l 704 1125 l 589 1276 l 426 1125 l 353 1125 z "},"Ế":{"ha":833,"x_min":106,"x_max":985,"o":"m 106 0 l 267 1014 l 808 1014 l 797 950 l 325 950 l 264 560 l 688 560 l 678 497 l 254 497 l 185 64 l 657 64 l 647 0 l 106 0 m 725 1243 l 899 1417 l 985 1417 l 797 1243 l 725 1243 m 347 1083 l 544 1278 l 628 1278 l 764 1083 l 699 1083 l 582 1235 l 421 1083 l 347 1083 z "},"Ệ":{"ha":833,"x_min":106,"x_max":808,"o":"m 106 0 l 267 1014 l 808 1014 l 797 950 l 325 950 l 264 560 l 688 560 l 678 497 l 254 497 l 185 64 l 657 64 l 647 0 l 106 0 m 400 -285 q 344 -264 364 -285 q 331 -208 325 -243 q 362 -153 336 -174 q 424 -132 388 -132 q 478 -153 460 -132 q 492 -208 497 -174 q 461 -264 486 -243 q 400 -285 436 -285 m 353 1125 l 550 1319 l 633 1319 l 769 1125 l 704 1125 l 589 1276 l 426 1125 l 353 1125 z "},"Ề":{"ha":833,"x_min":106,"x_max":850,"o":"m 106 0 l 267 1014 l 808 1014 l 797 950 l 325 950 l 264 560 l 688 560 l 678 497 l 254 497 l 185 64 l 657 64 l 647 0 l 106 0 m 783 1243 l 646 1417 l 726 1417 l 850 1243 l 783 1243 m 347 1083 l 544 1278 l 628 1278 l 764 1083 l 699 1083 l 582 1235 l 421 1083 l 347 1083 z "},"Ể":{"ha":833,"x_min":106,"x_max":933,"o":"m 106 0 l 267 1014 l 808 1014 l 797 950 l 325 950 l 264 560 l 688 560 l 678 497 l 254 497 l 185 64 l 657 64 l 647 0 l 106 0 m 761 1222 l 838 1296 q 862 1322 853 1311 q 872 1342 871 1333 q 840 1368 876 1368 l 738 1368 l 746 1417 l 844 1417 q 911 1399 889 1417 q 928 1349 933 1381 q 913 1309 925 1329 q 881 1271 900 1289 l 831 1222 l 761 1222 m 347 1083 l 544 1278 l 628 1278 l 764 1083 l 699 1083 l 582 1235 l 421 1083 l 347 1083 z "},"Ễ":{"ha":833,"x_min":106,"x_max":814,"o":"m 106 0 l 267 1014 l 808 1014 l 797 950 l 325 950 l 264 560 l 688 560 l 678 497 l 254 497 l 185 64 l 657 64 l 647 0 l 106 0 m 690 1278 q 631 1291 654 1278 q 589 1321 607 1304 q 551 1351 571 1338 q 503 1364 532 1364 q 439 1313 450 1364 l 435 1292 l 379 1292 l 383 1313 q 426 1389 393 1361 q 511 1417 460 1417 q 571 1403 547 1417 q 613 1374 594 1390 q 650 1344 631 1357 q 699 1331 669 1331 q 737 1344 721 1331 q 756 1382 753 1358 l 758 1403 l 814 1403 l 811 1382 q 772 1306 806 1335 q 690 1278 739 1278 m 347 1083 l 540 1251 l 624 1251 l 764 1083 l 699 1083 l 578 1211 l 421 1083 l 347 1083 z "},"Ë":{"ha":833,"x_min":106,"x_max":808,"o":"m 106 0 l 267 1014 l 808 1014 l 797 950 l 325 950 l 264 560 l 688 560 l 678 497 l 254 497 l 185 64 l 657 64 l 647 0 l 106 0 m 718 1146 q 667 1167 685 1146 q 656 1222 650 1188 q 685 1278 663 1257 q 742 1299 708 1299 q 790 1278 774 1299 q 800 1222 807 1257 q 772 1167 794 1188 q 718 1146 750 1146 m 419 1146 q 370 1167 388 1146 q 358 1222 353 1188 q 388 1278 365 1257 q 443 1299 411 1299 q 492 1278 475 1299 q 503 1222 510 1257 q 474 1167 497 1188 q 419 1146 451 1146 z "},"Ė":{"ha":833,"x_min":106,"x_max":808,"o":"m 106 0 l 267 1014 l 808 1014 l 797 950 l 325 950 l 264 560 l 688 560 l 678 497 l 254 497 l 185 64 l 657 64 l 647 0 l 106 0 m 565 1146 q 510 1167 529 1146 q 496 1222 490 1188 q 528 1278 503 1257 q 589 1299 553 1299 q 644 1278 625 1299 q 657 1222 664 1257 q 626 1167 651 1188 q 565 1146 601 1146 z "},"Ẹ":{"ha":833,"x_min":106,"x_max":808,"o":"m 106 0 l 267 1014 l 808 1014 l 797 950 l 325 950 l 264 560 l 688 560 l 678 497 l 254 497 l 185 64 l 657 64 l 647 0 l 106 0 m 400 -285 q 344 -264 364 -285 q 331 -208 325 -243 q 362 -153 336 -174 q 424 -132 388 -132 q 478 -153 460 -132 q 492 -208 497 -174 q 461 -264 486 -243 q 400 -285 436 -285 z "},"È":{"ha":833,"x_min":106,"x_max":808,"o":"m 106 0 l 267 1014 l 808 1014 l 797 950 l 325 950 l 264 560 l 688 560 l 678 497 l 254 497 l 185 64 l 657 64 l 647 0 l 106 0 m 539 1125 l 414 1319 l 494 1319 l 611 1125 l 539 1125 z "},"Ẻ":{"ha":833,"x_min":106,"x_max":808,"o":"m 106 0 l 267 1014 l 808 1014 l 797 950 l 325 950 l 264 560 l 688 560 l 678 497 l 254 497 l 185 64 l 657 64 l 647 0 l 106 0 m 519 1111 l 614 1217 q 636 1245 626 1232 q 647 1267 646 1258 q 603 1306 654 1306 l 481 1306 l 489 1354 l 611 1354 q 685 1332 660 1354 q 706 1272 711 1310 q 693 1236 703 1256 q 668 1199 683 1217 l 592 1111 l 519 1111 z "},"Ē":{"ha":833,"x_min":106,"x_max":808,"o":"m 106 0 l 267 1014 l 808 1014 l 797 950 l 325 950 l 264 560 l 688 560 l 678 497 l 254 497 l 185 64 l 657 64 l 647 0 l 106 0 m 376 1186 l 386 1246 l 775 1246 l 765 1186 l 376 1186 z "},"Ę":{"ha":833,"x_min":106,"x_max":808,"o":"m 106 0 l 267 1014 l 808 1014 l 797 950 l 325 950 l 264 560 l 688 560 l 678 497 l 254 497 l 185 64 l 657 64 l 647 0 l 579 0 q 505 -76 533 -37 q 472 -143 476 -114 q 483 -194 467 -175 q 532 -212 499 -212 l 621 -212 l 611 -271 l 510 -271 q 424 -241 453 -271 q 404 -160 396 -211 q 442 -78 410 -121 q 525 0 475 -36 l 106 0 z "},"Ɛ":{"ha":833,"x_min":86,"x_max":806,"o":"m 367 -14 q 209 22 274 -14 q 115 123 144 58 q 99 272 86 188 q 178 436 114 369 q 333 521 242 503 q 222 604 258 540 q 201 760 186 668 q 261 899 214 839 q 380 994 308 960 q 539 1028 451 1028 q 688 994 626 1028 q 778 899 750 960 q 793 760 806 839 l 724 760 q 685 909 739 851 q 529 967 631 967 q 357 909 428 967 q 271 760 286 851 q 310 610 257 668 q 464 553 363 553 l 561 553 l 551 490 l 447 490 q 315 463 375 490 q 217 385 256 435 q 168 268 179 335 q 211 110 153 171 q 378 49 269 49 q 510 76 450 49 q 608 153 569 104 q 657 268 647 203 l 726 268 q 663 122 714 185 q 536 22 613 58 q 367 -14 460 -14 z "},"Ẽ":{"ha":833,"x_min":106,"x_max":813,"o":"m 106 0 l 267 1014 l 808 1014 l 797 950 l 325 950 l 264 560 l 688 560 l 678 497 l 254 497 l 185 64 l 657 64 l 647 0 l 106 0 m 667 1132 q 603 1151 628 1132 q 562 1195 579 1169 q 527 1240 544 1221 q 485 1258 510 1258 q 431 1239 453 1258 q 404 1188 410 1219 l 397 1139 l 342 1139 l 349 1188 q 397 1279 358 1246 q 494 1313 436 1313 q 558 1294 533 1313 q 599 1249 582 1275 q 633 1205 615 1224 q 675 1186 650 1186 q 724 1206 704 1186 q 749 1257 743 1225 l 757 1306 l 813 1306 l 804 1257 q 758 1165 794 1199 q 667 1132 722 1132 z "},"F":{"ha":833,"x_min":99,"x_max":829,"o":"m 99 0 l 260 1014 l 829 1014 l 818 950 l 318 950 l 254 544 l 706 544 l 696 481 l 244 481 l 168 0 l 99 0 z "},"G":{"ha":833,"x_min":107,"x_max":785,"o":"m 361 -14 q 171 62 235 -14 q 126 264 107 138 l 204 750 q 312 953 224 878 q 526 1028 400 1028 q 720 949 656 1028 q 764 736 785 869 l 694 736 q 663 904 711 843 q 517 965 615 965 q 354 908 419 965 q 274 750 289 850 l 196 264 q 228 106 181 164 q 372 49 275 49 q 539 110 472 49 q 622 278 606 172 l 646 431 l 406 431 l 415 494 l 725 494 l 692 278 q 632 124 678 189 q 517 22 586 58 q 361 -14 447 -14 z "},"Ǵ":{"ha":833,"x_min":107,"x_max":785,"o":"m 361 -14 q 171 62 235 -14 q 126 264 107 138 l 204 750 q 312 953 224 878 q 526 1028 400 1028 q 720 949 656 1028 q 764 736 785 869 l 694 736 q 663 904 711 843 q 517 965 615 965 q 354 908 419 965 q 274 750 289 850 l 196 264 q 228 106 181 164 q 372 49 275 49 q 539 110 472 49 q 622 278 606 172 l 646 431 l 406 431 l 415 494 l 725 494 l 692 278 q 632 124 678 189 q 517 22 586 58 q 361 -14 447 -14 m 489 1125 l 667 1319 l 754 1319 l 568 1125 l 489 1125 z "},"Ğ":{"ha":833,"x_min":107,"x_max":785,"o":"m 361 -14 q 171 62 235 -14 q 126 264 107 138 l 204 750 q 312 953 224 878 q 526 1028 400 1028 q 720 949 656 1028 q 764 736 785 869 l 694 736 q 663 904 711 843 q 517 965 615 965 q 354 908 419 965 q 274 750 289 850 l 196 264 q 228 106 181 164 q 372 49 275 49 q 539 110 472 49 q 622 278 606 172 l 646 431 l 406 431 l 415 494 l 725 494 l 692 278 q 632 124 678 189 q 517 22 586 58 q 361 -14 447 -14 m 542 1122 q 403 1176 449 1122 q 371 1319 357 1229 l 433 1319 q 454 1216 424 1254 q 549 1178 485 1178 q 658 1216 614 1178 q 711 1319 701 1254 l 774 1319 q 697 1176 760 1229 q 542 1122 635 1122 z "},"Ǧ":{"ha":833,"x_min":107,"x_max":785,"o":"m 361 -14 q 171 62 235 -14 q 126 264 107 138 l 204 750 q 312 953 224 878 q 526 1028 400 1028 q 720 949 656 1028 q 764 736 785 869 l 694 736 q 663 904 711 843 q 517 965 615 965 q 354 908 419 965 q 274 750 289 850 l 196 264 q 228 106 181 164 q 372 49 275 49 q 539 110 472 49 q 622 278 606 172 l 646 431 l 406 431 l 415 494 l 725 494 l 692 278 q 632 124 678 189 q 517 22 586 58 q 361 -14 447 -14 m 500 1125 l 364 1319 l 432 1319 l 549 1168 l 711 1319 l 781 1319 l 583 1125 l 500 1125 z "},"Ĝ":{"ha":833,"x_min":107,"x_max":785,"o":"m 361 -14 q 171 62 235 -14 q 126 264 107 138 l 204 750 q 312 953 224 878 q 526 1028 400 1028 q 720 949 656 1028 q 764 736 785 869 l 694 736 q 663 904 711 843 q 517 965 615 965 q 354 908 419 965 q 274 750 289 850 l 196 264 q 228 106 181 164 q 372 49 275 49 q 539 110 472 49 q 622 278 606 172 l 646 431 l 406 431 l 415 494 l 725 494 l 692 278 q 632 124 678 189 q 517 22 586 58 q 361 -14 447 -14 m 333 1125 l 531 1319 l 614 1319 l 750 1125 l 685 1125 l 569 1276 l 407 1125 l 333 1125 z "},"Ģ":{"ha":833,"x_min":107,"x_max":785,"o":"m 361 -14 q 171 62 235 -14 q 126 264 107 138 l 204 750 q 312 953 224 878 q 526 1028 400 1028 q 720 949 656 1028 q 764 736 785 869 l 694 736 q 663 904 711 843 q 517 965 615 965 q 354 908 419 965 q 274 750 289 850 l 196 264 q 228 106 181 164 q 372 49 275 49 q 539 110 472 49 q 622 278 606 172 l 646 431 l 406 431 l 415 494 l 725 494 l 692 278 q 632 124 678 189 q 517 22 586 58 q 361 -14 447 -14 m 193 -333 l 350 -132 l 440 -132 l 263 -333 l 193 -333 z "},"Ġ":{"ha":833,"x_min":107,"x_max":785,"o":"m 361 -14 q 171 62 235 -14 q 126 264 107 138 l 204 750 q 312 953 224 878 q 526 1028 400 1028 q 720 949 656 1028 q 764 736 785 869 l 694 736 q 663 904 711 843 q 517 965 615 965 q 354 908 419 965 q 274 750 289 850 l 196 264 q 228 106 181 164 q 372 49 275 49 q 539 110 472 49 q 622 278 606 172 l 646 431 l 406 431 l 415 494 l 725 494 l 692 278 q 632 124 678 189 q 517 22 586 58 q 361 -14 447 -14 m 546 1146 q 490 1167 510 1146 q 476 1222 471 1188 q 508 1278 483 1257 q 569 1299 533 1299 q 625 1278 606 1299 q 638 1222 644 1257 q 607 1167 632 1188 q 546 1146 582 1146 z "},"H":{"ha":833,"x_min":92,"x_max":781,"o":"m 92 0 l 253 1014 l 322 1014 l 250 558 l 639 558 l 711 1014 l 781 1014 l 619 0 l 550 0 l 628 494 l 239 494 l 161 0 l 92 0 z "},"Ħ":{"ha":833,"x_min":72,"x_max":888,"o":"m 92 0 l 211 750 l 72 750 l 82 811 l 221 811 l 253 1014 l 322 1014 l 290 811 l 679 811 l 711 1014 l 781 1014 l 749 811 l 888 811 l 878 750 l 739 750 l 619 0 l 550 0 l 628 494 l 239 494 l 161 0 l 92 0 m 250 558 l 639 558 l 669 750 l 281 750 l 250 558 z "},"Ĥ":{"ha":833,"x_min":92,"x_max":781,"o":"m 92 0 l 253 1014 l 322 1014 l 250 558 l 639 558 l 711 1014 l 781 1014 l 619 0 l 550 0 l 628 494 l 239 494 l 161 0 l 92 0 m 325 1125 l 522 1319 l 606 1319 l 742 1125 l 676 1125 l 561 1276 l 399 1125 l 325 1125 z "},"I":{"ha":833,"x_min":106,"x_max":767,"o":"m 106 0 l 115 64 l 332 64 l 472 950 l 256 950 l 267 1014 l 767 1014 l 756 950 l 542 950 l 401 64 l 615 64 l 606 0 l 106 0 z "},"Í":{"ha":833,"x_min":106,"x_max":767,"o":"m 106 0 l 115 64 l 332 64 l 472 950 l 256 950 l 267 1014 l 767 1014 l 756 950 l 542 950 l 401 64 l 615 64 l 606 0 l 106 0 m 481 1125 l 658 1319 l 746 1319 l 560 1125 l 481 1125 z "},"Ĭ":{"ha":833,"x_min":106,"x_max":767,"o":"m 106 0 l 115 64 l 332 64 l 472 950 l 256 950 l 267 1014 l 767 1014 l 756 950 l 542 950 l 401 64 l 615 64 l 606 0 l 106 0 m 533 1122 q 394 1176 440 1122 q 363 1319 349 1229 l 425 1319 q 446 1216 415 1254 q 540 1178 476 1178 q 649 1216 606 1178 q 703 1319 693 1254 l 765 1319 q 689 1176 751 1229 q 533 1122 626 1122 z "},"Î":{"ha":833,"x_min":106,"x_max":767,"o":"m 106 0 l 115 64 l 332 64 l 472 950 l 256 950 l 267 1014 l 767 1014 l 756 950 l 542 950 l 401 64 l 615 64 l 606 0 l 106 0 m 325 1125 l 522 1319 l 606 1319 l 742 1125 l 676 1125 l 561 1276 l 399 1125 l 325 1125 z "},"Ï":{"ha":833,"x_min":106,"x_max":779,"o":"m 106 0 l 115 64 l 332 64 l 472 950 l 256 950 l 267 1014 l 767 1014 l 756 950 l 542 950 l 401 64 l 615 64 l 606 0 l 106 0 m 690 1146 q 640 1167 657 1146 q 628 1222 622 1188 q 658 1278 635 1257 q 714 1299 681 1299 q 763 1278 746 1299 q 772 1222 779 1257 q 744 1167 767 1188 q 690 1146 722 1146 m 392 1146 q 342 1167 360 1146 q 331 1222 325 1188 q 360 1278 338 1257 q 415 1299 383 1299 q 465 1278 447 1299 q 475 1222 482 1257 q 447 1167 469 1188 q 392 1146 424 1146 z "},"İ":{"ha":833,"x_min":106,"x_max":767,"o":"m 106 0 l 115 64 l 332 64 l 472 950 l 256 950 l 267 1014 l 767 1014 l 756 950 l 542 950 l 401 64 l 615 64 l 606 0 l 106 0 m 538 1146 q 482 1167 501 1146 q 468 1222 463 1188 q 500 1278 475 1257 q 561 1299 525 1299 q 617 1278 597 1299 q 629 1222 636 1257 q 599 1167 624 1188 q 538 1146 574 1146 z "},"Ị":{"ha":833,"x_min":106,"x_max":767,"o":"m 106 0 l 115 64 l 332 64 l 472 950 l 256 950 l 267 1014 l 767 1014 l 756 950 l 542 950 l 401 64 l 615 64 l 606 0 l 106 0 m 311 -285 q 256 -264 275 -285 q 242 -208 236 -243 q 273 -153 247 -174 q 335 -132 299 -132 q 390 -153 371 -132 q 403 -208 408 -174 q 372 -264 397 -243 q 311 -285 347 -285 z "},"Ì":{"ha":833,"x_min":106,"x_max":767,"o":"m 106 0 l 115 64 l 332 64 l 472 950 l 256 950 l 267 1014 l 767 1014 l 756 950 l 542 950 l 401 64 l 615 64 l 606 0 l 106 0 m 511 1125 l 386 1319 l 467 1319 l 583 1125 l 511 1125 z "},"Ỉ":{"ha":833,"x_min":106,"x_max":767,"o":"m 106 0 l 115 64 l 332 64 l 472 950 l 256 950 l 267 1014 l 767 1014 l 756 950 l 542 950 l 401 64 l 615 64 l 606 0 l 106 0 m 492 1111 l 586 1217 q 608 1245 599 1232 q 619 1267 618 1258 q 575 1306 626 1306 l 453 1306 l 461 1354 l 583 1354 q 658 1332 632 1354 q 678 1272 683 1310 q 665 1236 675 1256 q 640 1199 656 1217 l 564 1111 l 492 1111 z "},"Ī":{"ha":833,"x_min":106,"x_max":767,"o":"m 106 0 l 115 64 l 332 64 l 472 950 l 256 950 l 267 1014 l 767 1014 l 756 950 l 542 950 l 401 64 l 615 64 l 606 0 l 106 0 m 349 1186 l 358 1246 l 747 1246 l 738 1186 l 349 1186 z "},"Į":{"ha":833,"x_min":106,"x_max":767,"o":"m 106 0 l 115 64 l 332 64 l 472 950 l 256 950 l 267 1014 l 767 1014 l 756 950 l 542 950 l 401 64 l 615 64 l 606 0 l 382 0 q 309 -76 338 -37 q 275 -143 281 -114 q 285 -194 269 -175 q 335 -212 301 -212 l 424 -212 l 415 -271 l 314 -271 q 228 -241 257 -271 q 207 -160 199 -211 q 246 -78 214 -121 q 328 0 278 -36 l 106 0 z "},"Ĩ":{"ha":833,"x_min":106,"x_max":785,"o":"m 106 0 l 115 64 l 332 64 l 472 950 l 256 950 l 267 1014 l 767 1014 l 756 950 l 542 950 l 401 64 l 615 64 l 606 0 l 106 0 m 639 1132 q 576 1151 600 1132 q 534 1195 551 1169 q 499 1240 517 1221 q 457 1258 482 1258 q 403 1239 425 1258 q 376 1188 382 1219 l 369 1139 l 314 1139 l 321 1188 q 369 1279 331 1246 q 467 1313 408 1313 q 530 1294 506 1313 q 571 1249 554 1275 q 605 1205 588 1224 q 647 1186 622 1186 q 696 1206 676 1186 q 721 1257 715 1225 l 729 1306 l 785 1306 l 776 1257 q 731 1165 767 1199 q 639 1132 694 1132 z "},"J":{"ha":833,"x_min":58,"x_max":767,"o":"m 318 -14 q 122 64 185 -14 q 81 278 58 142 l 150 278 q 181 110 132 171 q 329 49 229 49 q 497 110 429 49 q 581 276 564 171 l 686 949 l 371 949 l 382 1014 l 767 1014 l 650 276 q 541 62 628 138 q 318 -14 454 -14 z "},"Ĵ":{"ha":833,"x_min":58,"x_max":925,"o":"m 318 -14 q 122 64 185 -14 q 81 278 58 142 l 150 278 q 181 110 132 171 q 329 49 229 49 q 497 110 429 49 q 581 276 564 171 l 686 949 l 371 949 l 382 1014 l 767 1014 l 650 276 q 541 62 628 138 q 318 -14 454 -14 m 508 1125 l 706 1319 l 789 1319 l 925 1125 l 860 1125 l 744 1276 l 582 1125 l 508 1125 z "},"K":{"ha":833,"x_min":92,"x_max":836,"o":"m 92 0 l 253 1014 l 322 1014 l 250 557 l 461 557 l 756 1014 l 836 1014 l 521 524 l 689 0 l 611 0 l 454 494 l 239 494 l 161 0 l 92 0 z "},"Ķ":{"ha":833,"x_min":92,"x_max":836,"o":"m 92 0 l 253 1014 l 322 1014 l 250 557 l 461 557 l 756 1014 l 836 1014 l 521 524 l 689 0 l 611 0 l 454 494 l 239 494 l 161 0 l 92 0 m 185 -333 l 342 -132 l 432 -132 l 254 -333 l 185 -333 z "},"L":{"ha":833,"x_min":133,"x_max":706,"o":"m 133 0 l 294 1014 l 364 1014 l 213 64 l 706 64 l 696 0 l 133 0 z "},"Ĺ":{"ha":833,"x_min":133,"x_max":706,"o":"m 133 0 l 294 1014 l 364 1014 l 213 64 l 706 64 l 696 0 l 133 0 m 294 1125 l 472 1319 l 560 1319 l 374 1125 l 294 1125 z "},"Ľ":{"ha":833,"x_min":133,"x_max":1057,"o":"m 133 0 l 294 1014 l 364 1014 l 213 64 l 706 64 l 696 0 l 133 0 m 933 1014 l 988 1264 l 1057 1264 l 989 1014 l 933 1014 z "},"Ļ":{"ha":833,"x_min":133,"x_max":706,"o":"m 133 0 l 294 1014 l 364 1014 l 213 64 l 706 64 l 696 0 l 133 0 m 240 -333 l 397 -132 l 488 -132 l 310 -333 l 240 -333 z "},"Ŀ":{"ha":833,"x_min":133,"x_max":706,"o":"m 133 0 l 294 1014 l 364 1014 l 213 64 l 706 64 l 696 0 l 133 0 m 547 368 q 478 397 500 368 q 463 472 456 425 q 501 547 469 519 q 581 574 533 574 q 650 547 628 574 q 665 472 672 519 q 626 397 658 425 q 547 368 594 368 z "},"Ł":{"ha":833,"x_min":19,"x_max":719,"o":"m 147 0 l 219 456 l 19 331 l 32 410 l 232 535 l 308 1014 l 378 1014 l 310 583 l 601 767 l 589 688 l 297 504 l 226 64 l 719 64 l 710 0 l 147 0 z "},"M":{"ha":833,"x_min":67,"x_max":806,"o":"m 67 0 l 228 1014 l 329 1014 l 408 625 q 422 558 415 594 q 433 499 429 522 q 463 558 444 522 q 497 625 482 594 l 700 1014 l 806 1014 l 644 0 l 576 0 l 674 611 q 697 752 685 682 q 721 882 710 822 q 739 979 732 942 l 464 451 l 390 451 l 282 979 q 270 882 278 942 q 253 752 263 822 q 232 611 243 682 l 135 0 l 67 0 z "},"N":{"ha":833,"x_min":92,"x_max":781,"o":"m 92 0 l 253 1014 l 346 1014 l 571 76 q 578 138 574 104 q 585 199 582 171 q 590 236 589 226 l 714 1014 l 781 1014 l 619 0 l 525 0 l 304 938 q 297 874 303 918 q 282 778 290 831 l 158 0 l 92 0 z "},"Ń":{"ha":833,"x_min":92,"x_max":781,"o":"m 92 0 l 253 1014 l 346 1014 l 571 76 q 578 138 574 104 q 585 199 582 171 q 590 236 589 226 l 714 1014 l 781 1014 l 619 0 l 525 0 l 304 938 q 297 874 303 918 q 282 778 290 831 l 158 0 l 92 0 m 481 1125 l 658 1319 l 746 1319 l 560 1125 l 481 1125 z "},"Ň":{"ha":833,"x_min":92,"x_max":781,"o":"m 92 0 l 253 1014 l 346 1014 l 571 76 q 578 138 574 104 q 585 199 582 171 q 590 236 589 226 l 714 1014 l 781 1014 l 619 0 l 525 0 l 304 938 q 297 874 303 918 q 282 778 290 831 l 158 0 l 92 0 m 492 1125 l 356 1319 l 424 1319 l 540 1168 l 703 1319 l 772 1319 l 575 1125 l 492 1125 z "},"Ņ":{"ha":833,"x_min":92,"x_max":781,"o":"m 92 0 l 253 1014 l 346 1014 l 571 76 q 578 138 574 104 q 585 199 582 171 q 590 236 589 226 l 714 1014 l 781 1014 l 619 0 l 525 0 l 304 938 q 297 874 303 918 q 282 778 290 831 l 158 0 l 92 0 m 185 -333 l 342 -132 l 432 -132 l 254 -333 l 185 -333 z "},"Ŋ":{"ha":833,"x_min":90,"x_max":782,"o":"m 214 -250 l 225 -187 l 336 -187 q 551 0 522 -187 l 303 938 q 295 874 301 918 q 281 778 289 831 l 157 0 l 90 0 l 251 1014 l 346 1014 l 581 131 q 589 203 583 156 q 603 304 594 251 l 715 1014 l 782 1014 l 621 0 q 526 -185 603 -119 q 325 -250 449 -250 l 214 -250 z "},"Ñ":{"ha":833,"x_min":92,"x_max":785,"o":"m 92 0 l 253 1014 l 346 1014 l 571 76 q 578 138 574 104 q 585 199 582 171 q 590 236 589 226 l 714 1014 l 781 1014 l 619 0 l 525 0 l 304 938 q 297 874 303 918 q 282 778 290 831 l 158 0 l 92 0 m 639 1132 q 576 1151 600 1132 q 534 1195 551 1169 q 499 1240 517 1221 q 457 1258 482 1258 q 403 1239 425 1258 q 376 1188 382 1219 l 369 1139 l 314 1139 l 321 1188 q 369 1279 331 1246 q 467 1313 408 1313 q 530 1294 506 1313 q 571 1249 554 1275 q 605 1205 588 1224 q 647 1186 622 1186 q 696 1206 676 1186 q 721 1257 715 1225 l 729 1306 l 785 1306 l 776 1257 q 731 1165 767 1199 q 639 1132 694 1132 z "},"O":{"ha":833,"x_min":107,"x_max":765,"o":"m 353 -14 q 169 62 231 -14 q 126 264 107 138 l 204 750 q 261 897 218 835 q 370 993 304 958 q 518 1028 436 1028 q 703 952 642 1028 q 746 750 765 876 l 668 264 q 563 62 649 138 q 353 -14 476 -14 m 363 47 q 520 104 458 47 q 599 264 582 161 l 676 750 q 647 910 692 853 q 508 967 603 967 q 351 910 414 967 q 274 750 289 853 l 196 264 q 223 104 179 161 q 363 47 267 47 z "},"Ó":{"ha":833,"x_min":107,"x_max":765,"o":"m 353 -14 q 169 62 231 -14 q 126 264 107 138 l 204 750 q 261 897 218 835 q 370 993 304 958 q 518 1028 436 1028 q 703 952 642 1028 q 746 750 765 876 l 668 264 q 563 62 649 138 q 353 -14 476 -14 m 363 47 q 520 104 458 47 q 599 264 582 161 l 676 750 q 647 910 692 853 q 508 967 603 967 q 351 910 414 967 q 274 750 289 853 l 196 264 q 223 104 179 161 q 363 47 267 47 m 481 1125 l 658 1319 l 746 1319 l 560 1125 l 481 1125 z "},"Ŏ":{"ha":833,"x_min":107,"x_max":765,"o":"m 353 -14 q 169 62 231 -14 q 126 264 107 138 l 204 750 q 261 897 218 835 q 370 993 304 958 q 518 1028 436 1028 q 703 952 642 1028 q 746 750 765 876 l 668 264 q 563 62 649 138 q 353 -14 476 -14 m 363 47 q 520 104 458 47 q 599 264 582 161 l 676 750 q 647 910 692 853 q 508 967 603 967 q 351 910 414 967 q 274 750 289 853 l 196 264 q 223 104 179 161 q 363 47 267 47 m 533 1122 q 394 1176 440 1122 q 363 1319 349 1229 l 425 1319 q 446 1216 415 1254 q 540 1178 476 1178 q 649 1216 606 1178 q 703 1319 693 1254 l 765 1319 q 689 1176 751 1229 q 533 1122 626 1122 z "},"Ô":{"ha":833,"x_min":107,"x_max":765,"o":"m 353 -14 q 169 62 231 -14 q 126 264 107 138 l 204 750 q 261 897 218 835 q 370 993 304 958 q 518 1028 436 1028 q 703 952 642 1028 q 746 750 765 876 l 668 264 q 563 62 649 138 q 353 -14 476 -14 m 363 47 q 520 104 458 47 q 599 264 582 161 l 676 750 q 647 910 692 853 q 508 967 603 967 q 351 910 414 967 q 274 750 289 853 l 196 264 q 223 104 179 161 q 363 47 267 47 m 325 1125 l 522 1319 l 606 1319 l 742 1125 l 676 1125 l 561 1276 l 399 1125 l 325 1125 z "},"Ố":{"ha":833,"x_min":107,"x_max":957,"o":"m 353 -14 q 169 62 231 -14 q 126 264 107 138 l 204 750 q 261 897 218 835 q 370 993 304 958 q 518 1028 436 1028 q 703 952 642 1028 q 746 750 765 876 l 668 264 q 563 62 649 138 q 353 -14 476 -14 m 363 47 q 520 104 458 47 q 599 264 582 161 l 676 750 q 647 910 692 853 q 508 967 603 967 q 351 910 414 967 q 274 750 289 853 l 196 264 q 223 104 179 161 q 363 47 267 47 m 697 1243 l 871 1417 l 957 1417 l 769 1243 l 697 1243 m 319 1083 l 517 1278 l 600 1278 l 736 1083 l 671 1083 l 554 1235 l 393 1083 l 319 1083 z "},"Ộ":{"ha":833,"x_min":107,"x_max":765,"o":"m 353 -14 q 169 62 231 -14 q 126 264 107 138 l 204 750 q 261 897 218 835 q 370 993 304 958 q 518 1028 436 1028 q 703 952 642 1028 q 746 750 765 876 l 668 264 q 563 62 649 138 q 353 -14 476 -14 m 363 47 q 520 104 458 47 q 599 264 582 161 l 676 750 q 647 910 692 853 q 508 967 603 967 q 351 910 414 967 q 274 750 289 853 l 196 264 q 223 104 179 161 q 363 47 267 47 m 311 -285 q 256 -264 275 -285 q 242 -208 236 -243 q 273 -153 247 -174 q 335 -132 299 -132 q 390 -153 371 -132 q 403 -208 408 -174 q 372 -264 397 -243 q 311 -285 347 -285 m 325 1125 l 522 1319 l 606 1319 l 742 1125 l 676 1125 l 561 1276 l 399 1125 l 325 1125 z "},"Ồ":{"ha":833,"x_min":107,"x_max":822,"o":"m 353 -14 q 169 62 231 -14 q 126 264 107 138 l 204 750 q 261 897 218 835 q 370 993 304 958 q 518 1028 436 1028 q 703 952 642 1028 q 746 750 765 876 l 668 264 q 563 62 649 138 q 353 -14 476 -14 m 363 47 q 520 104 458 47 q 599 264 582 161 l 676 750 q 647 910 692 853 q 508 967 603 967 q 351 910 414 967 q 274 750 289 853 l 196 264 q 223 104 179 161 q 363 47 267 47 m 756 1243 l 618 1417 l 699 1417 l 822 1243 l 756 1243 m 319 1083 l 517 1278 l 600 1278 l 736 1083 l 671 1083 l 554 1235 l 393 1083 l 319 1083 z "},"Ổ":{"ha":833,"x_min":107,"x_max":906,"o":"m 353 -14 q 169 62 231 -14 q 126 264 107 138 l 204 750 q 261 897 218 835 q 370 993 304 958 q 518 1028 436 1028 q 703 952 642 1028 q 746 750 765 876 l 668 264 q 563 62 649 138 q 353 -14 476 -14 m 363 47 q 520 104 458 47 q 599 264 582 161 l 676 750 q 647 910 692 853 q 508 967 603 967 q 351 910 414 967 q 274 750 289 853 l 196 264 q 223 104 179 161 q 363 47 267 47 m 733 1222 l 810 1296 q 834 1322 825 1311 q 844 1342 843 1333 q 813 1368 849 1368 l 710 1368 l 718 1417 l 817 1417 q 883 1399 861 1417 q 900 1349 906 1381 q 885 1309 897 1329 q 853 1271 872 1289 l 803 1222 l 733 1222 m 319 1083 l 517 1278 l 600 1278 l 736 1083 l 671 1083 l 554 1235 l 393 1083 l 319 1083 z "},"Ỗ":{"ha":833,"x_min":107,"x_max":786,"o":"m 353 -14 q 169 62 231 -14 q 126 264 107 138 l 204 750 q 261 897 218 835 q 370 993 304 958 q 518 1028 436 1028 q 703 952 642 1028 q 746 750 765 876 l 668 264 q 563 62 649 138 q 353 -14 476 -14 m 363 47 q 520 104 458 47 q 599 264 582 161 l 676 750 q 647 910 692 853 q 508 967 603 967 q 351 910 414 967 q 274 750 289 853 l 196 264 q 223 104 179 161 q 363 47 267 47 m 663 1278 q 603 1291 626 1278 q 561 1321 579 1304 q 524 1351 543 1338 q 475 1364 504 1364 q 411 1313 422 1364 l 407 1292 l 351 1292 l 356 1313 q 399 1389 365 1361 q 483 1417 432 1417 q 543 1403 519 1417 q 585 1374 567 1390 q 622 1344 603 1357 q 671 1331 642 1331 q 709 1344 693 1331 q 728 1382 725 1358 l 731 1403 l 786 1403 l 783 1382 q 744 1306 778 1335 q 663 1278 711 1278 m 319 1083 l 513 1251 l 596 1251 l 736 1083 l 671 1083 l 550 1211 l 393 1083 l 319 1083 z "},"Ö":{"ha":833,"x_min":107,"x_max":779,"o":"m 353 -14 q 169 62 231 -14 q 126 264 107 138 l 204 750 q 261 897 218 835 q 370 993 304 958 q 518 1028 436 1028 q 703 952 642 1028 q 746 750 765 876 l 668 264 q 563 62 649 138 q 353 -14 476 -14 m 363 47 q 520 104 458 47 q 599 264 582 161 l 676 750 q 647 910 692 853 q 508 967 603 967 q 351 910 414 967 q 274 750 289 853 l 196 264 q 223 104 179 161 q 363 47 267 47 m 690 1146 q 640 1167 657 1146 q 628 1222 622 1188 q 658 1278 635 1257 q 714 1299 681 1299 q 763 1278 746 1299 q 772 1222 779 1257 q 744 1167 767 1188 q 690 1146 722 1146 m 392 1146 q 342 1167 360 1146 q 331 1222 325 1188 q 360 1278 338 1257 q 415 1299 383 1299 q 465 1278 447 1299 q 475 1222 482 1257 q 447 1167 469 1188 q 392 1146 424 1146 z "},"Ọ":{"ha":833,"x_min":107,"x_max":765,"o":"m 353 -14 q 169 62 231 -14 q 126 264 107 138 l 204 750 q 261 897 218 835 q 370 993 304 958 q 518 1028 436 1028 q 703 952 642 1028 q 746 750 765 876 l 668 264 q 563 62 649 138 q 353 -14 476 -14 m 363 47 q 520 104 458 47 q 599 264 582 161 l 676 750 q 647 910 692 853 q 508 967 603 967 q 351 910 414 967 q 274 750 289 853 l 196 264 q 223 104 179 161 q 363 47 267 47 m 311 -285 q 256 -264 275 -285 q 242 -208 236 -243 q 273 -153 247 -174 q 335 -132 299 -132 q 390 -153 371 -132 q 403 -208 408 -174 q 372 -264 397 -243 q 311 -285 347 -285 z "},"Ò":{"ha":833,"x_min":107,"x_max":765,"o":"m 353 -14 q 169 62 231 -14 q 126 264 107 138 l 204 750 q 261 897 218 835 q 370 993 304 958 q 518 1028 436 1028 q 703 952 642 1028 q 746 750 765 876 l 668 264 q 563 62 649 138 q 353 -14 476 -14 m 363 47 q 520 104 458 47 q 599 264 582 161 l 676 750 q 647 910 692 853 q 508 967 603 967 q 351 910 414 967 q 274 750 289 853 l 196 264 q 223 104 179 161 q 363 47 267 47 m 511 1125 l 386 1319 l 467 1319 l 583 1125 l 511 1125 z "},"Ỏ":{"ha":833,"x_min":107,"x_max":765,"o":"m 353 -14 q 169 62 231 -14 q 126 264 107 138 l 204 750 q 261 897 218 835 q 370 993 304 958 q 518 1028 436 1028 q 703 952 642 1028 q 746 750 765 876 l 668 264 q 563 62 649 138 q 353 -14 476 -14 m 363 47 q 520 104 458 47 q 599 264 582 161 l 676 750 q 647 910 692 853 q 508 967 603 967 q 351 910 414 967 q 274 750 289 853 l 196 264 q 223 104 179 161 q 363 47 267 47 m 492 1111 l 586 1217 q 608 1245 599 1232 q 619 1267 618 1258 q 575 1306 626 1306 l 453 1306 l 461 1354 l 583 1354 q 658 1332 632 1354 q 678 1272 683 1310 q 665 1236 675 1256 q 640 1199 656 1217 l 564 1111 l 492 1111 z "},"Ơ":{"ha":833,"x_min":107,"x_max":843,"o":"m 353 -14 q 169 62 231 -14 q 126 264 107 138 l 204 750 q 261 897 218 835 q 370 993 304 958 q 518 1028 436 1028 q 683 972 622 1028 l 701 972 q 749 992 729 972 q 774 1042 768 1011 l 788 1125 l 843 1125 l 829 1042 q 793 965 822 996 q 721 926 764 935 q 746 750 763 854 l 668 264 q 563 62 649 138 q 353 -14 476 -14 m 363 47 q 520 104 458 47 q 599 264 582 161 l 676 750 q 647 910 692 853 q 508 967 603 967 q 351 910 414 967 q 274 750 289 853 l 196 264 q 223 104 179 161 q 363 47 267 47 z "},"Ớ":{"ha":833,"x_min":107,"x_max":843,"o":"m 353 -14 q 169 62 231 -14 q 126 264 107 138 l 204 750 q 261 897 218 835 q 370 993 304 958 q 518 1028 436 1028 q 683 972 622 1028 l 701 972 q 749 992 729 972 q 774 1042 768 1011 l 788 1125 l 843 1125 l 829 1042 q 793 965 822 996 q 721 926 764 935 q 746 750 763 854 l 668 264 q 563 62 649 138 q 353 -14 476 -14 m 363 47 q 520 104 458 47 q 599 264 582 161 l 676 750 q 647 910 692 853 q 508 967 603 967 q 351 910 414 967 q 274 750 289 853 l 196 264 q 223 104 179 161 q 363 47 267 47 m 506 1125 l 683 1319 l 771 1319 l 585 1125 l 506 1125 z "},"Ợ":{"ha":833,"x_min":107,"x_max":843,"o":"m 353 -14 q 169 62 231 -14 q 126 264 107 138 l 204 750 q 261 897 218 835 q 370 993 304 958 q 518 1028 436 1028 q 683 972 622 1028 l 701 972 q 749 992 729 972 q 774 1042 768 1011 l 788 1125 l 843 1125 l 829 1042 q 793 965 822 996 q 721 926 764 935 q 746 750 763 854 l 668 264 q 563 62 649 138 q 353 -14 476 -14 m 363 47 q 520 104 458 47 q 599 264 582 161 l 676 750 q 647 910 692 853 q 508 967 603 967 q 351 910 414 967 q 274 750 289 853 l 196 264 q 223 104 179 161 q 363 47 267 47 m 311 -285 q 256 -264 275 -285 q 242 -208 236 -243 q 273 -153 247 -174 q 335 -132 299 -132 q 390 -153 371 -132 q 403 -208 408 -174 q 372 -264 397 -243 q 311 -285 347 -285 z "},"Ờ":{"ha":833,"x_min":107,"x_max":843,"o":"m 353 -14 q 169 62 231 -14 q 126 264 107 138 l 204 750 q 261 897 218 835 q 370 993 304 958 q 518 1028 436 1028 q 683 972 622 1028 l 701 972 q 749 992 729 972 q 774 1042 768 1011 l 788 1125 l 843 1125 l 829 1042 q 793 965 822 996 q 721 926 764 935 q 746 750 763 854 l 668 264 q 563 62 649 138 q 353 -14 476 -14 m 363 47 q 520 104 458 47 q 599 264 582 161 l 676 750 q 647 910 692 853 q 508 967 603 967 q 351 910 414 967 q 274 750 289 853 l 196 264 q 223 104 179 161 q 363 47 267 47 m 536 1125 l 411 1319 l 492 1319 l 608 1125 l 536 1125 z "},"Ở":{"ha":833,"x_min":107,"x_max":843,"o":"m 353 -14 q 169 62 231 -14 q 126 264 107 138 l 204 750 q 261 897 218 835 q 370 993 304 958 q 518 1028 436 1028 q 683 972 622 1028 l 701 972 q 749 992 729 972 q 774 1042 768 1011 l 788 1125 l 843 1125 l 829 1042 q 793 965 822 996 q 721 926 764 935 q 746 750 763 854 l 668 264 q 563 62 649 138 q 353 -14 476 -14 m 363 47 q 520 104 458 47 q 599 264 582 161 l 676 750 q 647 910 692 853 q 508 967 603 967 q 351 910 414 967 q 274 750 289 853 l 196 264 q 223 104 179 161 q 363 47 267 47 m 517 1111 l 611 1217 q 633 1245 624 1232 q 644 1267 643 1258 q 600 1306 651 1306 l 478 1306 l 486 1354 l 608 1354 q 683 1332 657 1354 q 703 1272 708 1310 q 690 1236 700 1256 q 665 1199 681 1217 l 589 1111 l 517 1111 z "},"Ỡ":{"ha":833,"x_min":107,"x_max":843,"o":"m 353 -14 q 169 62 231 -14 q 126 264 107 138 l 204 750 q 261 897 218 835 q 370 993 304 958 q 518 1028 436 1028 q 683 972 622 1028 l 701 972 q 749 992 729 972 q 774 1042 768 1011 l 788 1125 l 843 1125 l 829 1042 q 793 965 822 996 q 721 926 764 935 q 746 750 763 854 l 668 264 q 563 62 649 138 q 353 -14 476 -14 m 363 47 q 520 104 458 47 q 599 264 582 161 l 676 750 q 647 910 692 853 q 508 967 603 967 q 351 910 414 967 q 274 750 289 853 l 196 264 q 223 104 179 161 q 363 47 267 47 m 664 1132 q 601 1151 625 1132 q 559 1195 576 1169 q 524 1240 542 1221 q 482 1258 507 1258 q 428 1239 450 1258 q 401 1188 407 1219 l 394 1139 l 339 1139 l 346 1188 q 394 1279 356 1246 q 492 1313 433 1313 q 555 1294 531 1313 q 596 1249 579 1275 q 630 1205 613 1224 q 672 1186 647 1186 q 721 1206 701 1186 q 746 1257 740 1225 l 754 1306 l 810 1306 l 801 1257 q 756 1165 792 1199 q 664 1132 719 1132 z "},"Ő":{"ha":833,"x_min":107,"x_max":843,"o":"m 353 -14 q 169 62 231 -14 q 126 264 107 138 l 204 750 q 261 897 218 835 q 370 993 304 958 q 518 1028 436 1028 q 703 952 642 1028 q 746 750 765 876 l 668 264 q 563 62 649 138 q 353 -14 476 -14 m 363 47 q 520 104 458 47 q 599 264 582 161 l 676 750 q 647 910 692 853 q 508 967 603 967 q 351 910 414 967 q 274 750 289 853 l 196 264 q 223 104 179 161 q 363 47 267 47 m 579 1125 l 757 1319 l 843 1319 l 657 1125 l 579 1125 m 358 1125 l 536 1319 l 622 1319 l 436 1125 l 358 1125 z "},"Ō":{"ha":833,"x_min":107,"x_max":765,"o":"m 353 -14 q 169 62 231 -14 q 126 264 107 138 l 204 750 q 261 897 218 835 q 370 993 304 958 q 518 1028 436 1028 q 703 952 642 1028 q 746 750 765 876 l 668 264 q 563 62 649 138 q 353 -14 476 -14 m 363 47 q 520 104 458 47 q 599 264 582 161 l 676 750 q 647 910 692 853 q 508 967 603 967 q 351 910 414 967 q 274 750 289 853 l 196 264 q 223 104 179 161 q 363 47 267 47 m 349 1186 l 358 1246 l 747 1246 l 738 1186 l 349 1186 z "},"Ǫ":{"ha":833,"x_min":107,"x_max":765,"o":"m 408 -271 q 323 -241 351 -271 q 303 -160 294 -211 q 337 -83 308 -124 q 410 -8 365 -43 q 381 -12 399 -11 q 353 -14 364 -14 q 169 62 231 -14 q 126 264 107 138 l 204 750 q 261 897 218 835 q 370 993 304 958 q 518 1028 436 1028 q 703 952 642 1028 q 746 750 765 876 l 668 264 q 608 113 654 175 q 493 14 563 50 l 478 3 q 403 -74 432 -33 q 371 -143 375 -114 q 381 -194 365 -175 q 431 -212 397 -212 l 519 -212 l 510 -271 l 408 -271 m 363 47 q 520 104 458 47 q 599 264 582 161 l 676 750 q 647 910 692 853 q 508 967 603 967 q 351 910 414 967 q 274 750 289 853 l 196 264 q 223 104 179 161 q 363 47 267 47 z "},"Ø":{"ha":833,"x_min":0,"x_max":868,"o":"m 0 -56 l 133 126 q 126 264 114 188 l 204 750 q 261 897 218 835 q 370 993 304 958 q 518 1028 436 1028 q 639 1003 588 1028 q 718 931 690 978 l 799 1042 l 868 1042 l 743 869 q 746 750 756 815 l 668 264 q 562 62 647 138 q 353 -14 476 -14 q 161 71 222 -14 l 69 -56 l 0 -56 m 196 264 q 192 207 190 233 l 671 867 q 508 967 638 967 q 352 910 414 967 q 274 750 290 853 l 196 264 m 363 47 q 520 104 458 47 q 599 264 582 161 l 676 750 q 681 783 679 767 l 206 132 q 363 47 243 47 z "},"Ǿ":{"ha":833,"x_min":0,"x_max":868,"o":"m 0 -56 l 133 126 q 126 264 114 188 l 204 750 q 261 897 218 835 q 370 993 304 958 q 518 1028 436 1028 q 639 1003 588 1028 q 718 931 690 978 l 799 1042 l 868 1042 l 743 869 q 746 750 756 815 l 668 264 q 562 62 647 138 q 353 -14 476 -14 q 161 71 222 -14 l 69 -56 l 0 -56 m 196 264 q 192 207 190 233 l 671 867 q 508 967 638 967 q 352 910 414 967 q 274 750 290 853 l 196 264 m 363 47 q 520 104 458 47 q 599 264 582 161 l 676 750 q 681 783 679 767 l 206 132 q 363 47 243 47 m 481 1125 l 658 1319 l 746 1319 l 560 1125 l 481 1125 z "},"Õ":{"ha":833,"x_min":107,"x_max":785,"o":"m 353 -14 q 169 62 231 -14 q 126 264 107 138 l 204 750 q 261 897 218 835 q 370 993 304 958 q 518 1028 436 1028 q 703 952 642 1028 q 746 750 765 876 l 668 264 q 563 62 649 138 q 353 -14 476 -14 m 363 47 q 520 104 458 47 q 599 264 582 161 l 676 750 q 647 910 692 853 q 508 967 603 967 q 351 910 414 967 q 274 750 289 853 l 196 264 q 223 104 179 161 q 363 47 267 47 m 639 1132 q 576 1151 600 1132 q 534 1195 551 1169 q 499 1240 517 1221 q 457 1258 482 1258 q 403 1239 425 1258 q 376 1188 382 1219 l 369 1139 l 314 1139 l 321 1188 q 369 1279 331 1246 q 467 1313 408 1313 q 530 1294 506 1313 q 571 1249 554 1275 q 605 1205 588 1224 q 647 1186 622 1186 q 696 1206 676 1186 q 721 1257 715 1225 l 729 1306 l 785 1306 l 776 1257 q 731 1165 767 1199 q 639 1132 694 1132 z "},"Œ":{"ha":833,"x_min":19,"x_max":890,"o":"m 208 -14 q 101 19 146 -14 q 38 109 57 51 q 32 240 19 167 l 117 774 q 166 906 129 849 q 257 995 203 963 q 374 1028 311 1028 q 453 1008 422 1028 q 501 959 485 988 q 519 903 517 931 l 526 903 l 544 1014 l 890 1014 l 879 944 l 610 944 l 549 558 l 768 558 l 757 489 l 538 489 l 471 69 l 740 69 l 729 0 l 383 0 l 401 111 l 394 111 q 358 56 383 85 q 294 6 332 26 q 208 -14 257 -14 m 235 56 q 356 106 304 56 q 421 240 408 156 l 506 774 q 483 908 519 858 q 378 958 447 958 q 258 907 308 958 q 193 774 207 856 l 108 240 q 131 107 96 158 q 235 56 165 56 z "},"P":{"ha":833,"x_min":92,"x_max":818,"o":"m 92 0 l 253 1014 l 551 1014 q 751 937 685 1014 q 797 732 818 860 q 738 583 785 647 q 621 485 692 519 q 461 450 550 450 l 232 450 l 161 0 l 92 0 m 243 514 l 472 514 q 643 573 574 514 q 728 732 713 632 q 694 892 744 833 q 540 950 643 950 l 311 950 l 243 514 z "},"Þ":{"ha":833,"x_min":85,"x_max":778,"o":"m 85 0 l 246 1014 l 315 1014 l 278 785 l 525 785 q 715 716 651 785 q 758 528 778 647 q 656 340 740 410 q 444 271 571 271 l 197 271 l 154 0 l 85 0 m 207 335 l 454 335 q 612 387 549 335 q 689 528 675 439 q 657 670 704 618 q 515 722 610 722 l 268 722 l 207 335 z "},"Q":{"ha":833,"x_min":107,"x_max":760,"o":"m 531 -250 l 422 -8 q 391 -12 410 -10 q 354 -14 372 -14 q 169 62 231 -14 q 126 264 107 138 l 204 750 q 310 953 225 878 q 519 1028 394 1028 q 658 992 603 1028 q 736 893 713 956 q 746 750 760 831 l 668 264 q 606 109 654 175 q 486 13 558 43 l 601 -250 l 531 -250 m 365 49 q 521 106 460 49 q 599 264 582 163 l 676 750 q 649 908 693 851 q 510 965 604 965 q 352 909 414 965 q 274 750 290 853 l 196 264 q 224 106 179 163 q 365 49 269 49 z "},"R":{"ha":833,"x_min":92,"x_max":804,"o":"m 92 0 l 253 1014 l 538 1014 q 738 938 672 1014 q 785 733 804 863 q 691 549 767 622 q 506 460 615 475 l 669 0 l 594 0 l 436 458 l 233 458 l 161 0 l 92 0 m 243 521 l 458 521 q 630 580 560 521 q 715 736 700 639 q 679 892 731 835 q 526 950 628 950 l 311 950 l 243 521 z "},"Ŕ":{"ha":833,"x_min":92,"x_max":804,"o":"m 92 0 l 253 1014 l 538 1014 q 738 938 672 1014 q 785 733 804 863 q 691 549 767 622 q 506 460 615 475 l 669 0 l 594 0 l 436 458 l 233 458 l 161 0 l 92 0 m 243 521 l 458 521 q 630 580 560 521 q 715 736 700 639 q 679 892 731 835 q 526 950 628 950 l 311 950 l 243 521 m 481 1125 l 658 1319 l 746 1319 l 560 1125 l 481 1125 z "},"Ř":{"ha":833,"x_min":92,"x_max":804,"o":"m 92 0 l 253 1014 l 538 1014 q 738 938 672 1014 q 785 733 804 863 q 691 549 767 622 q 506 460 615 475 l 669 0 l 594 0 l 436 458 l 233 458 l 161 0 l 92 0 m 243 521 l 458 521 q 630 580 560 521 q 715 736 700 639 q 679 892 731 835 q 526 950 628 950 l 311 950 l 243 521 m 492 1125 l 356 1319 l 424 1319 l 540 1168 l 703 1319 l 772 1319 l 575 1125 l 492 1125 z "},"Ŗ":{"ha":833,"x_min":92,"x_max":804,"o":"m 92 0 l 253 1014 l 538 1014 q 738 938 672 1014 q 785 733 804 863 q 691 549 767 622 q 506 460 615 475 l 669 0 l 594 0 l 436 458 l 233 458 l 161 0 l 92 0 m 243 521 l 458 521 q 630 580 560 521 q 715 736 700 639 q 679 892 731 835 q 526 950 628 950 l 311 950 l 243 521 m 185 -333 l 342 -132 l 432 -132 l 254 -333 l 185 -333 z "},"S":{"ha":833,"x_min":78,"x_max":781,"o":"m 360 -14 q 149 60 219 -14 q 97 257 78 133 l 167 257 q 208 106 153 163 q 371 49 264 49 q 542 101 475 49 q 624 246 610 153 q 601 389 636 331 q 489 471 567 447 l 376 506 q 238 607 282 535 q 208 776 193 679 q 313 960 226 892 q 526 1028 399 1028 q 717 956 654 1028 q 761 761 781 885 l 692 761 q 658 910 707 854 q 515 965 610 965 q 354 917 418 965 q 278 782 290 868 q 300 647 267 704 q 403 568 333 590 l 515 533 q 662 425 614 503 q 694 250 710 347 q 585 58 675 129 q 360 -14 494 -14 z "},"Ś":{"ha":833,"x_min":78,"x_max":781,"o":"m 360 -14 q 149 60 219 -14 q 97 257 78 133 l 167 257 q 208 106 153 163 q 371 49 264 49 q 542 101 475 49 q 624 246 610 153 q 601 389 636 331 q 489 471 567 447 l 376 506 q 238 607 282 535 q 208 776 193 679 q 313 960 226 892 q 526 1028 399 1028 q 717 956 654 1028 q 761 761 781 885 l 692 761 q 658 910 707 854 q 515 965 610 965 q 354 917 418 965 q 278 782 290 868 q 300 647 267 704 q 403 568 333 590 l 515 533 q 662 425 614 503 q 694 250 710 347 q 585 58 675 129 q 360 -14 494 -14 m 481 1125 l 658 1319 l 746 1319 l 560 1125 l 481 1125 z "},"Š":{"ha":833,"x_min":78,"x_max":781,"o":"m 360 -14 q 149 60 219 -14 q 97 257 78 133 l 167 257 q 208 106 153 163 q 371 49 264 49 q 542 101 475 49 q 624 246 610 153 q 601 389 636 331 q 489 471 567 447 l 376 506 q 238 607 282 535 q 208 776 193 679 q 313 960 226 892 q 526 1028 399 1028 q 717 956 654 1028 q 761 761 781 885 l 692 761 q 658 910 707 854 q 515 965 610 965 q 354 917 418 965 q 278 782 290 868 q 300 647 267 704 q 403 568 333 590 l 515 533 q 662 425 614 503 q 694 250 710 347 q 585 58 675 129 q 360 -14 494 -14 m 492 1125 l 356 1319 l 424 1319 l 540 1168 l 703 1319 l 772 1319 l 575 1125 l 492 1125 z "},"Ş":{"ha":833,"x_min":79,"x_max":781,"o":"m 222 -271 l 231 -222 l 342 -222 q 399 -204 375 -222 q 425 -164 422 -186 q 389 -110 431 -131 q 274 -89 347 -89 l 315 -11 q 138 72 196 0 q 97 257 79 143 l 167 257 q 208 106 153 163 q 371 49 264 49 q 542 101 475 49 q 624 246 610 153 q 601 389 636 331 q 489 471 567 447 l 376 506 q 238 607 282 535 q 208 776 193 679 q 313 960 226 892 q 526 1028 399 1028 q 717 956 654 1028 q 761 761 781 885 l 692 761 q 658 910 707 854 q 515 965 610 965 q 354 917 418 965 q 278 782 290 868 q 300 647 267 704 q 403 568 333 590 l 515 533 q 662 425 614 503 q 694 250 710 347 q 589 61 675 132 q 374 -14 503 -10 l 356 -47 q 421 -61 388 -49 q 475 -99 454 -74 q 489 -164 496 -124 q 440 -240 483 -208 q 333 -271 396 -271 l 222 -271 z "},"Ŝ":{"ha":833,"x_min":78,"x_max":781,"o":"m 360 -14 q 149 60 219 -14 q 97 257 78 133 l 167 257 q 208 106 153 163 q 371 49 264 49 q 542 101 475 49 q 624 246 610 153 q 601 389 636 331 q 489 471 567 447 l 376 506 q 238 607 282 535 q 208 776 193 679 q 313 960 226 892 q 526 1028 399 1028 q 717 956 654 1028 q 761 761 781 885 l 692 761 q 658 910 707 854 q 515 965 610 965 q 354 917 418 965 q 278 782 290 868 q 300 647 267 704 q 403 568 333 590 l 515 533 q 662 425 614 503 q 694 250 710 347 q 585 58 675 129 q 360 -14 494 -14 m 325 1125 l 522 1319 l 606 1319 l 742 1125 l 676 1125 l 561 1276 l 399 1125 l 325 1125 z "},"Ș":{"ha":833,"x_min":78,"x_max":781,"o":"m 360 -14 q 149 60 219 -14 q 97 257 78 133 l 167 257 q 208 106 153 163 q 371 49 264 49 q 542 101 475 49 q 624 246 610 153 q 601 389 636 331 q 489 471 567 447 l 376 506 q 238 607 282 535 q 208 776 193 679 q 313 960 226 892 q 526 1028 399 1028 q 717 956 654 1028 q 761 761 781 885 l 692 761 q 658 910 707 854 q 515 965 610 965 q 354 917 418 965 q 278 782 290 868 q 300 647 267 704 q 403 568 333 590 l 515 533 q 662 425 614 503 q 694 250 710 347 q 585 58 675 129 q 360 -14 494 -14 m 185 -333 l 342 -132 l 432 -132 l 254 -333 l 185 -333 z "},"ẞ":{"ha":833,"x_min":92,"x_max":818,"o":"m 92 0 l 211 754 q 316 944 231 874 q 524 1014 401 1014 l 818 1014 l 807 950 l 472 565 q 663 488 599 561 q 707 292 726 414 q 647 138 693 203 q 530 36 601 72 q 369 0 458 0 l 283 0 l 293 63 l 379 63 q 551 124 481 63 q 638 289 621 186 q 602 451 653 390 q 450 511 551 511 l 394 511 l 404 571 l 733 951 l 513 951 q 358 898 421 951 q 281 754 296 844 l 161 0 l 92 0 z "},"Ə":{"ha":833,"x_min":107,"x_max":765,"o":"m 351 -14 q 166 62 225 -14 q 126 264 107 138 l 168 525 l 640 525 l 676 750 q 648 908 692 850 q 507 965 604 965 q 348 904 408 965 q 271 736 288 843 l 201 736 q 305 949 222 869 q 517 1028 388 1028 q 705 953 644 1028 q 746 750 765 878 l 668 264 q 564 62 649 138 q 351 -14 479 -14 m 361 47 q 522 105 460 47 q 599 264 583 163 l 631 465 l 228 465 l 196 264 q 223 106 181 164 q 361 47 265 47 z "},"T":{"ha":833,"x_min":172,"x_max":850,"o":"m 322 0 l 472 950 l 172 950 l 183 1014 l 850 1014 l 839 950 l 542 950 l 392 0 l 322 0 z "},"Ŧ":{"ha":833,"x_min":172,"x_max":850,"o":"m 322 0 l 390 431 l 175 431 l 185 493 l 400 493 l 472 950 l 172 950 l 183 1014 l 850 1014 l 839 950 l 542 950 l 469 493 l 685 493 l 675 431 l 460 431 l 392 0 l 322 0 z "},"Ť":{"ha":833,"x_min":172,"x_max":850,"o":"m 322 0 l 472 950 l 172 950 l 183 1014 l 850 1014 l 839 950 l 542 950 l 392 0 l 322 0 m 492 1125 l 356 1319 l 424 1319 l 540 1168 l 703 1319 l 772 1319 l 575 1125 l 492 1125 z "},"Ţ":{"ha":833,"x_min":172,"x_max":850,"o":"m 322 0 l 472 950 l 172 950 l 183 1014 l 850 1014 l 839 950 l 542 950 l 392 0 l 365 -47 q 432 -61 399 -49 q 486 -99 465 -74 q 500 -164 507 -124 q 450 -240 493 -208 q 344 -271 407 -271 l 233 -271 l 242 -222 l 353 -222 q 410 -204 386 -222 q 436 -164 433 -186 q 400 -110 442 -131 q 285 -89 358 -89 l 333 0 l 322 0 z "},"Ț":{"ha":833,"x_min":172,"x_max":850,"o":"m 322 0 l 472 950 l 172 950 l 183 1014 l 850 1014 l 839 950 l 542 950 l 392 0 l 322 0 m 185 -333 l 342 -132 l 432 -132 l 254 -333 l 185 -333 z "},"U":{"ha":833,"x_min":111,"x_max":783,"o":"m 354 -14 q 172 62 232 -14 q 131 264 111 138 l 250 1014 l 319 1014 l 200 264 q 228 106 185 163 q 365 49 272 49 q 519 106 458 49 q 594 264 579 163 l 714 1014 l 783 1014 l 664 264 q 608 118 651 181 q 500 21 565 56 q 354 -14 435 -14 z "},"Ú":{"ha":833,"x_min":111,"x_max":783,"o":"m 354 -14 q 172 62 232 -14 q 131 264 111 138 l 250 1014 l 319 1014 l 200 264 q 228 106 185 163 q 365 49 272 49 q 519 106 458 49 q 594 264 579 163 l 714 1014 l 783 1014 l 664 264 q 608 118 651 181 q 500 21 565 56 q 354 -14 435 -14 m 481 1125 l 658 1319 l 746 1319 l 560 1125 l 481 1125 z "},"Ŭ":{"ha":833,"x_min":111,"x_max":783,"o":"m 354 -14 q 172 62 232 -14 q 131 264 111 138 l 250 1014 l 319 1014 l 200 264 q 228 106 185 163 q 365 49 272 49 q 519 106 458 49 q 594 264 579 163 l 714 1014 l 783 1014 l 664 264 q 608 118 651 181 q 500 21 565 56 q 354 -14 435 -14 m 533 1122 q 394 1176 440 1122 q 363 1319 349 1229 l 425 1319 q 446 1216 415 1254 q 540 1178 476 1178 q 649 1216 606 1178 q 703 1319 693 1254 l 765 1319 q 689 1176 751 1229 q 533 1122 626 1122 z "},"Û":{"ha":833,"x_min":111,"x_max":783,"o":"m 354 -14 q 172 62 232 -14 q 131 264 111 138 l 250 1014 l 319 1014 l 200 264 q 228 106 185 163 q 365 49 272 49 q 519 106 458 49 q 594 264 579 163 l 714 1014 l 783 1014 l 664 264 q 608 118 651 181 q 500 21 565 56 q 354 -14 435 -14 m 325 1125 l 522 1319 l 606 1319 l 742 1125 l 676 1125 l 561 1276 l 399 1125 l 325 1125 z "},"Ü":{"ha":833,"x_min":111,"x_max":783,"o":"m 354 -14 q 172 62 232 -14 q 131 264 111 138 l 250 1014 l 319 1014 l 200 264 q 228 106 185 163 q 365 49 272 49 q 519 106 458 49 q 594 264 579 163 l 714 1014 l 783 1014 l 664 264 q 608 118 651 181 q 500 21 565 56 q 354 -14 435 -14 m 690 1146 q 640 1167 657 1146 q 628 1222 622 1188 q 658 1278 635 1257 q 714 1299 681 1299 q 763 1278 746 1299 q 772 1222 779 1257 q 744 1167 767 1188 q 690 1146 722 1146 m 392 1146 q 342 1167 360 1146 q 331 1222 325 1188 q 360 1278 338 1257 q 415 1299 383 1299 q 465 1278 447 1299 q 475 1222 482 1257 q 447 1167 469 1188 q 392 1146 424 1146 z "},"Ụ":{"ha":833,"x_min":111,"x_max":783,"o":"m 354 -14 q 172 62 232 -14 q 131 264 111 138 l 250 1014 l 319 1014 l 200 264 q 228 106 185 163 q 365 49 272 49 q 519 106 458 49 q 594 264 579 163 l 714 1014 l 783 1014 l 664 264 q 608 118 651 181 q 500 21 565 56 q 354 -14 435 -14 m 311 -285 q 256 -264 275 -285 q 242 -208 236 -243 q 273 -153 247 -174 q 335 -132 299 -132 q 390 -153 371 -132 q 403 -208 408 -174 q 372 -264 397 -243 q 311 -285 347 -285 z "},"Ù":{"ha":833,"x_min":111,"x_max":783,"o":"m 354 -14 q 172 62 232 -14 q 131 264 111 138 l 250 1014 l 319 1014 l 200 264 q 228 106 185 163 q 365 49 272 49 q 519 106 458 49 q 594 264 579 163 l 714 1014 l 783 1014 l 664 264 q 608 118 651 181 q 500 21 565 56 q 354 -14 435 -14 m 511 1125 l 386 1319 l 467 1319 l 583 1125 l 511 1125 z "},"Ủ":{"ha":833,"x_min":111,"x_max":783,"o":"m 354 -14 q 172 62 232 -14 q 131 264 111 138 l 250 1014 l 319 1014 l 200 264 q 228 106 185 163 q 365 49 272 49 q 519 106 458 49 q 594 264 579 163 l 714 1014 l 783 1014 l 664 264 q 608 118 651 181 q 500 21 565 56 q 354 -14 435 -14 m 492 1111 l 586 1217 q 608 1245 599 1232 q 619 1267 618 1258 q 575 1306 626 1306 l 453 1306 l 461 1354 l 583 1354 q 658 1332 632 1354 q 678 1272 683 1310 q 665 1236 675 1256 q 640 1199 656 1217 l 564 1111 l 492 1111 z "},"Ư":{"ha":833,"x_min":111,"x_max":976,"o":"m 354 -14 q 172 62 232 -14 q 131 264 111 138 l 250 1014 l 319 1014 l 200 264 q 228 106 185 163 q 365 49 272 49 q 519 106 458 49 q 594 264 579 163 l 714 1014 l 835 1014 q 882 1033 863 1014 q 907 1083 901 1053 l 921 1167 l 976 1167 l 963 1083 q 917 998 954 1031 q 826 965 879 965 l 775 965 l 664 264 q 608 118 651 181 q 500 21 565 56 q 354 -14 435 -14 z "},"Ứ":{"ha":833,"x_min":111,"x_max":976,"o":"m 354 -14 q 172 62 232 -14 q 131 264 111 138 l 250 1014 l 319 1014 l 200 264 q 228 106 185 163 q 365 49 272 49 q 519 106 458 49 q 594 264 579 163 l 714 1014 l 835 1014 q 882 1033 863 1014 q 907 1083 901 1053 l 921 1167 l 976 1167 l 963 1083 q 917 998 954 1031 q 826 965 879 965 l 775 965 l 664 264 q 608 118 651 181 q 500 21 565 56 q 354 -14 435 -14 m 464 1125 l 642 1319 l 729 1319 l 543 1125 l 464 1125 z "},"Ự":{"ha":833,"x_min":111,"x_max":976,"o":"m 354 -14 q 172 62 232 -14 q 131 264 111 138 l 250 1014 l 319 1014 l 200 264 q 228 106 185 163 q 365 49 272 49 q 519 106 458 49 q 594 264 579 163 l 714 1014 l 835 1014 q 882 1033 863 1014 q 907 1083 901 1053 l 921 1167 l 976 1167 l 963 1083 q 917 998 954 1031 q 826 965 879 965 l 775 965 l 664 264 q 608 118 651 181 q 500 21 565 56 q 354 -14 435 -14 m 311 -285 q 256 -264 275 -285 q 242 -208 236 -243 q 273 -153 247 -174 q 335 -132 299 -132 q 390 -153 371 -132 q 403 -208 408 -174 q 372 -264 397 -243 q 311 -285 347 -285 z "},"Ừ":{"ha":833,"x_min":111,"x_max":976,"o":"m 354 -14 q 172 62 232 -14 q 131 264 111 138 l 250 1014 l 319 1014 l 200 264 q 228 106 185 163 q 365 49 272 49 q 519 106 458 49 q 594 264 579 163 l 714 1014 l 835 1014 q 882 1033 863 1014 q 907 1083 901 1053 l 921 1167 l 976 1167 l 963 1083 q 917 998 954 1031 q 826 965 879 965 l 775 965 l 664 264 q 608 118 651 181 q 500 21 565 56 q 354 -14 435 -14 m 494 1125 l 369 1319 l 450 1319 l 567 1125 l 494 1125 z "},"Ử":{"ha":833,"x_min":111,"x_max":976,"o":"m 354 -14 q 172 62 232 -14 q 131 264 111 138 l 250 1014 l 319 1014 l 200 264 q 228 106 185 163 q 365 49 272 49 q 519 106 458 49 q 594 264 579 163 l 714 1014 l 835 1014 q 882 1033 863 1014 q 907 1083 901 1053 l 921 1167 l 976 1167 l 963 1083 q 917 998 954 1031 q 826 965 879 965 l 775 965 l 664 264 q 608 118 651 181 q 500 21 565 56 q 354 -14 435 -14 m 475 1111 l 569 1217 q 592 1245 582 1232 q 603 1267 601 1258 q 558 1306 610 1306 l 436 1306 l 444 1354 l 567 1354 q 641 1332 615 1354 q 661 1272 667 1310 q 649 1236 658 1256 q 624 1199 639 1217 l 547 1111 l 475 1111 z "},"Ữ":{"ha":833,"x_min":111,"x_max":976,"o":"m 354 -14 q 172 62 232 -14 q 131 264 111 138 l 250 1014 l 319 1014 l 200 264 q 228 106 185 163 q 365 49 272 49 q 519 106 458 49 q 594 264 579 163 l 714 1014 l 835 1014 q 882 1033 863 1014 q 907 1083 901 1053 l 921 1167 l 976 1167 l 963 1083 q 917 998 954 1031 q 826 965 879 965 l 775 965 l 664 264 q 608 118 651 181 q 500 21 565 56 q 354 -14 435 -14 m 622 1132 q 559 1151 583 1132 q 517 1195 535 1169 q 483 1240 500 1221 q 440 1258 465 1258 q 387 1239 408 1258 q 360 1188 365 1219 l 353 1139 l 297 1139 l 304 1188 q 353 1279 314 1246 q 450 1313 392 1313 q 513 1294 489 1313 q 554 1249 538 1275 q 588 1205 571 1224 q 631 1186 606 1186 q 679 1206 660 1186 q 704 1257 699 1225 l 713 1306 l 768 1306 l 760 1257 q 714 1165 750 1199 q 622 1132 678 1132 z "},"Ű":{"ha":833,"x_min":111,"x_max":843,"o":"m 354 -14 q 172 62 232 -14 q 131 264 111 138 l 250 1014 l 319 1014 l 200 264 q 228 106 185 163 q 365 49 272 49 q 519 106 458 49 q 594 264 579 163 l 714 1014 l 783 1014 l 664 264 q 608 118 651 181 q 500 21 565 56 q 354 -14 435 -14 m 579 1125 l 757 1319 l 843 1319 l 657 1125 l 579 1125 m 358 1125 l 536 1319 l 622 1319 l 436 1125 l 358 1125 z "},"Ū":{"ha":833,"x_min":111,"x_max":783,"o":"m 354 -14 q 172 62 232 -14 q 131 264 111 138 l 250 1014 l 319 1014 l 200 264 q 228 106 185 163 q 365 49 272 49 q 519 106 458 49 q 594 264 579 163 l 714 1014 l 783 1014 l 664 264 q 608 118 651 181 q 500 21 565 56 q 354 -14 435 -14 m 349 1186 l 358 1246 l 747 1246 l 738 1186 l 349 1186 z "},"Ų":{"ha":833,"x_min":111,"x_max":783,"o":"m 408 -271 q 323 -241 351 -271 q 303 -160 294 -211 q 337 -83 308 -124 q 410 -8 365 -43 q 381 -12 399 -11 q 353 -14 364 -14 q 171 62 231 -14 q 131 264 111 138 l 250 1014 l 319 1014 l 200 264 q 225 104 183 161 q 363 47 267 47 q 518 104 458 47 q 594 264 578 161 l 714 1014 l 783 1014 l 664 264 q 606 113 650 175 q 493 14 563 50 l 478 3 q 403 -74 432 -33 q 371 -143 375 -114 q 381 -194 365 -175 q 431 -212 397 -212 l 519 -212 l 510 -271 l 408 -271 z "},"Ů":{"ha":833,"x_min":111,"x_max":783,"o":"m 354 -14 q 172 62 232 -14 q 131 264 111 138 l 250 1014 l 319 1014 l 200 264 q 228 106 185 163 q 365 49 272 49 q 519 106 458 49 q 594 264 579 163 l 714 1014 l 783 1014 l 664 264 q 608 118 651 181 q 500 21 565 56 q 354 -14 435 -14 m 529 1083 q 428 1122 464 1083 q 403 1222 393 1160 q 460 1323 414 1285 q 572 1361 507 1361 q 672 1323 638 1361 q 694 1222 706 1285 q 640 1122 685 1160 q 529 1083 594 1083 m 535 1132 q 604 1157 575 1132 q 639 1222 633 1182 q 625 1288 646 1263 q 564 1313 604 1313 q 494 1288 524 1313 q 458 1222 465 1263 q 474 1157 453 1182 q 535 1132 494 1132 z "},"Ũ":{"ha":833,"x_min":111,"x_max":785,"o":"m 354 -14 q 172 62 232 -14 q 131 264 111 138 l 250 1014 l 319 1014 l 200 264 q 228 106 185 163 q 365 49 272 49 q 519 106 458 49 q 594 264 579 163 l 714 1014 l 783 1014 l 664 264 q 608 118 651 181 q 500 21 565 56 q 354 -14 435 -14 m 639 1132 q 576 1151 600 1132 q 534 1195 551 1169 q 499 1240 517 1221 q 457 1258 482 1258 q 403 1239 425 1258 q 376 1188 382 1219 l 369 1139 l 314 1139 l 321 1188 q 369 1279 331 1246 q 467 1313 408 1313 q 530 1294 506 1313 q 571 1249 554 1275 q 605 1205 588 1224 q 647 1186 622 1186 q 696 1206 676 1186 q 721 1257 715 1225 l 729 1306 l 785 1306 l 776 1257 q 731 1165 767 1199 q 639 1132 694 1132 z "},"V":{"ha":833,"x_min":194,"x_max":839,"o":"m 311 0 l 194 1014 l 264 1014 l 350 250 q 360 137 357 190 q 364 56 363 83 q 393 137 374 83 q 439 250 413 190 l 767 1014 l 839 1014 l 400 0 l 311 0 z "},"W":{"ha":833,"x_min":119,"x_max":878,"o":"m 119 0 l 156 1014 l 217 1014 l 192 264 q 190 200 192 239 q 186 121 188 161 q 183 49 185 81 q 205 121 193 81 q 228 200 217 161 q 247 264 240 239 l 474 1014 l 563 1014 l 546 264 q 545 200 546 239 q 544 121 544 161 q 542 49 543 81 q 563 121 551 81 q 586 200 575 161 q 604 264 597 239 l 810 1014 l 878 1014 l 590 0 l 490 0 l 506 736 q 508 853 507 789 q 511 958 510 918 q 480 855 499 919 q 444 736 461 790 l 217 0 l 119 0 z "},"Ẃ":{"ha":833,"x_min":119,"x_max":878,"o":"m 119 0 l 156 1014 l 217 1014 l 192 264 q 190 200 192 239 q 186 121 188 161 q 183 49 185 81 q 205 121 193 81 q 228 200 217 161 q 247 264 240 239 l 474 1014 l 563 1014 l 546 264 q 545 200 546 239 q 544 121 544 161 q 542 49 543 81 q 563 121 551 81 q 586 200 575 161 q 604 264 597 239 l 810 1014 l 878 1014 l 590 0 l 490 0 l 506 736 q 508 853 507 789 q 511 958 510 918 q 480 855 499 919 q 444 736 461 790 l 217 0 l 119 0 m 481 1125 l 658 1319 l 746 1319 l 560 1125 l 481 1125 z "},"Ŵ":{"ha":833,"x_min":119,"x_max":878,"o":"m 119 0 l 156 1014 l 217 1014 l 192 264 q 190 200 192 239 q 186 121 188 161 q 183 49 185 81 q 205 121 193 81 q 228 200 217 161 q 247 264 240 239 l 474 1014 l 563 1014 l 546 264 q 545 200 546 239 q 544 121 544 161 q 542 49 543 81 q 563 121 551 81 q 586 200 575 161 q 604 264 597 239 l 810 1014 l 878 1014 l 590 0 l 490 0 l 506 736 q 508 853 507 789 q 511 958 510 918 q 480 855 499 919 q 444 736 461 790 l 217 0 l 119 0 m 325 1125 l 522 1319 l 606 1319 l 742 1125 l 676 1125 l 561 1276 l 399 1125 l 325 1125 z "},"Ẅ":{"ha":833,"x_min":119,"x_max":878,"o":"m 119 0 l 156 1014 l 217 1014 l 192 264 q 190 200 192 239 q 186 121 188 161 q 183 49 185 81 q 205 121 193 81 q 228 200 217 161 q 247 264 240 239 l 474 1014 l 563 1014 l 546 264 q 545 200 546 239 q 544 121 544 161 q 542 49 543 81 q 563 121 551 81 q 586 200 575 161 q 604 264 597 239 l 810 1014 l 878 1014 l 590 0 l 490 0 l 506 736 q 508 853 507 789 q 511 958 510 918 q 480 855 499 919 q 444 736 461 790 l 217 0 l 119 0 m 690 1146 q 640 1167 657 1146 q 628 1222 622 1188 q 658 1278 635 1257 q 714 1299 681 1299 q 763 1278 746 1299 q 772 1222 779 1257 q 744 1167 767 1188 q 690 1146 722 1146 m 392 1146 q 342 1167 360 1146 q 331 1222 325 1188 q 360 1278 338 1257 q 415 1299 383 1299 q 465 1278 447 1299 q 475 1222 482 1257 q 447 1167 469 1188 q 392 1146 424 1146 z "},"Ẁ":{"ha":833,"x_min":119,"x_max":878,"o":"m 119 0 l 156 1014 l 217 1014 l 192 264 q 190 200 192 239 q 186 121 188 161 q 183 49 185 81 q 205 121 193 81 q 228 200 217 161 q 247 264 240 239 l 474 1014 l 563 1014 l 546 264 q 545 200 546 239 q 544 121 544 161 q 542 49 543 81 q 563 121 551 81 q 586 200 575 161 q 604 264 597 239 l 810 1014 l 878 1014 l 590 0 l 490 0 l 506 736 q 508 853 507 789 q 511 958 510 918 q 480 855 499 919 q 444 736 461 790 l 217 0 l 119 0 m 511 1125 l 386 1319 l 467 1319 l 583 1125 l 511 1125 z "},"X":{"ha":833,"x_min":13,"x_max":839,"o":"m 13 0 l 399 529 l 194 1014 l 269 1014 l 389 706 q 416 644 399 682 q 446 578 433 606 q 494 644 465 606 q 539 706 522 682 l 761 1014 l 839 1014 l 481 529 l 699 0 l 624 0 l 490 350 q 464 410 482 372 q 435 478 446 449 q 385 410 413 449 q 342 350 357 372 l 92 0 l 13 0 z "},"Y":{"ha":833,"x_min":169,"x_max":864,"o":"m 321 0 l 382 389 l 169 1014 l 239 1014 l 394 556 q 414 499 406 525 q 426 458 422 472 q 451 498 435 471 q 488 556 467 525 l 789 1014 l 864 1014 l 451 389 l 390 0 l 321 0 z "},"Ý":{"ha":833,"x_min":169,"x_max":864,"o":"m 321 0 l 382 389 l 169 1014 l 239 1014 l 394 556 q 414 499 406 525 q 426 458 422 472 q 451 498 435 471 q 488 556 467 525 l 789 1014 l 864 1014 l 451 389 l 390 0 l 321 0 m 481 1125 l 658 1319 l 746 1319 l 560 1125 l 481 1125 z "},"Ŷ":{"ha":833,"x_min":169,"x_max":864,"o":"m 321 0 l 382 389 l 169 1014 l 239 1014 l 394 556 q 414 499 406 525 q 426 458 422 472 q 451 498 435 471 q 488 556 467 525 l 789 1014 l 864 1014 l 451 389 l 390 0 l 321 0 m 325 1125 l 522 1319 l 606 1319 l 742 1125 l 676 1125 l 561 1276 l 399 1125 l 325 1125 z "},"Ÿ":{"ha":833,"x_min":169,"x_max":864,"o":"m 321 0 l 382 389 l 169 1014 l 239 1014 l 394 556 q 414 499 406 525 q 426 458 422 472 q 451 498 435 471 q 488 556 467 525 l 789 1014 l 864 1014 l 451 389 l 390 0 l 321 0 m 690 1146 q 640 1167 657 1146 q 628 1222 622 1188 q 658 1278 635 1257 q 714 1299 681 1299 q 763 1278 746 1299 q 772 1222 779 1257 q 744 1167 767 1188 q 690 1146 722 1146 m 392 1146 q 342 1167 360 1146 q 331 1222 325 1188 q 360 1278 338 1257 q 415 1299 383 1299 q 465 1278 447 1299 q 475 1222 482 1257 q 447 1167 469 1188 q 392 1146 424 1146 z "},"Ỵ":{"ha":833,"x_min":169,"x_max":864,"o":"m 321 0 l 382 389 l 169 1014 l 239 1014 l 394 556 q 414 499 406 525 q 426 458 422 472 q 451 498 435 471 q 488 556 467 525 l 789 1014 l 864 1014 l 451 389 l 390 0 l 321 0 m 311 -285 q 256 -264 275 -285 q 242 -208 236 -243 q 273 -153 247 -174 q 335 -132 299 -132 q 390 -153 371 -132 q 403 -208 408 -174 q 372 -264 397 -243 q 311 -285 347 -285 z "},"Ỳ":{"ha":833,"x_min":169,"x_max":864,"o":"m 321 0 l 382 389 l 169 1014 l 239 1014 l 394 556 q 414 499 406 525 q 426 458 422 472 q 451 498 435 471 q 488 556 467 525 l 789 1014 l 864 1014 l 451 389 l 390 0 l 321 0 m 511 1125 l 386 1319 l 467 1319 l 583 1125 l 511 1125 z "},"Ỷ":{"ha":833,"x_min":169,"x_max":864,"o":"m 321 0 l 382 389 l 169 1014 l 239 1014 l 394 556 q 414 499 406 525 q 426 458 422 472 q 451 498 435 471 q 488 556 467 525 l 789 1014 l 864 1014 l 451 389 l 390 0 l 321 0 m 492 1111 l 586 1217 q 608 1245 599 1232 q 619 1267 618 1258 q 575 1306 626 1306 l 453 1306 l 461 1354 l 583 1354 q 658 1332 632 1354 q 678 1272 683 1310 q 665 1236 675 1256 q 640 1199 656 1217 l 564 1111 l 492 1111 z "},"Ȳ":{"ha":833,"x_min":169,"x_max":864,"o":"m 321 0 l 382 389 l 169 1014 l 239 1014 l 394 556 q 414 499 406 525 q 426 458 422 472 q 451 498 435 471 q 488 556 467 525 l 789 1014 l 864 1014 l 451 389 l 390 0 l 321 0 m 349 1186 l 358 1246 l 747 1246 l 738 1186 l 349 1186 z "},"Ỹ":{"ha":833,"x_min":169,"x_max":864,"o":"m 321 0 l 382 389 l 169 1014 l 239 1014 l 394 556 q 414 499 406 525 q 426 458 422 472 q 451 498 435 471 q 488 556 467 525 l 789 1014 l 864 1014 l 451 389 l 390 0 l 321 0 m 639 1132 q 576 1151 600 1132 q 534 1195 551 1169 q 499 1240 517 1221 q 457 1258 482 1258 q 403 1239 425 1258 q 376 1188 382 1219 l 369 1139 l 314 1139 l 321 1188 q 369 1279 331 1246 q 467 1313 408 1313 q 530 1294 506 1313 q 571 1249 554 1275 q 605 1205 588 1224 q 647 1186 622 1186 q 696 1206 676 1186 q 721 1257 715 1225 l 729 1306 l 785 1306 l 776 1257 q 731 1165 767 1199 q 639 1132 694 1132 z "},"Z":{"ha":833,"x_min":65,"x_max":788,"o":"m 65 0 l 76 69 l 706 950 l 221 950 l 232 1014 l 788 1014 l 775 935 l 150 64 l 654 64 l 644 0 l 65 0 z "},"Ź":{"ha":833,"x_min":65,"x_max":788,"o":"m 65 0 l 76 69 l 706 950 l 221 950 l 232 1014 l 788 1014 l 775 935 l 150 64 l 654 64 l 644 0 l 65 0 m 481 1125 l 658 1319 l 746 1319 l 560 1125 l 481 1125 z "},"Ž":{"ha":833,"x_min":65,"x_max":788,"o":"m 65 0 l 76 69 l 706 950 l 221 950 l 232 1014 l 788 1014 l 775 935 l 150 64 l 654 64 l 644 0 l 65 0 m 492 1125 l 356 1319 l 424 1319 l 540 1168 l 703 1319 l 772 1319 l 575 1125 l 492 1125 z "},"Ż":{"ha":833,"x_min":65,"x_max":788,"o":"m 65 0 l 76 69 l 706 950 l 221 950 l 232 1014 l 788 1014 l 775 935 l 150 64 l 654 64 l 644 0 l 65 0 m 538 1146 q 482 1167 501 1146 q 468 1222 463 1188 q 500 1278 475 1257 q 561 1299 525 1299 q 617 1278 597 1299 q 629 1222 636 1257 q 599 1167 624 1188 q 538 1146 574 1146 z "},"a":{"ha":833,"x_min":107,"x_max":740,"o":"m 335 -14 q 164 62 221 -14 q 126 263 107 138 l 164 500 q 219 646 178 583 q 322 743 260 708 q 461 778 385 778 q 584 747 535 778 q 650 660 633 715 l 654 660 l 671 764 l 740 764 l 619 0 l 550 0 l 567 104 l 561 104 q 468 17 528 49 q 335 -14 408 -14 m 358 46 q 515 103 453 46 q 592 263 576 161 l 629 500 q 602 660 644 603 q 465 718 560 718 q 310 660 372 718 q 233 500 249 603 l 196 263 q 223 103 181 161 q 358 46 265 46 z "},"á":{"ha":833,"x_min":107,"x_max":740,"o":"m 335 -14 q 164 62 221 -14 q 126 263 107 138 l 164 500 q 219 646 178 583 q 322 743 260 708 q 461 778 385 778 q 584 747 535 778 q 650 660 633 715 l 654 660 l 671 764 l 740 764 l 619 0 l 550 0 l 567 104 l 561 104 q 468 17 528 49 q 335 -14 408 -14 m 358 46 q 515 103 453 46 q 592 263 576 161 l 629 500 q 602 660 644 603 q 465 718 560 718 q 310 660 372 718 q 233 500 249 603 l 196 263 q 223 103 181 161 q 358 46 265 46 m 465 896 l 643 1090 l 731 1090 l 544 896 l 465 896 z "},"ă":{"ha":833,"x_min":107,"x_max":740,"o":"m 335 -14 q 164 62 221 -14 q 126 263 107 138 l 164 500 q 219 646 178 583 q 322 743 260 708 q 461 778 385 778 q 584 747 535 778 q 650 660 633 715 l 654 660 l 671 764 l 740 764 l 619 0 l 550 0 l 567 104 l 561 104 q 468 17 528 49 q 335 -14 408 -14 m 358 46 q 515 103 453 46 q 592 263 576 161 l 629 500 q 602 660 644 603 q 465 718 560 718 q 310 660 372 718 q 233 500 249 603 l 196 263 q 223 103 181 161 q 358 46 265 46 m 504 893 q 365 947 411 893 q 333 1090 319 1000 l 396 1090 q 417 987 386 1025 q 511 949 447 949 q 620 987 576 949 q 674 1090 664 1025 l 736 1090 q 660 947 722 1000 q 504 893 597 893 z "},"ắ":{"ha":833,"x_min":107,"x_max":740,"o":"m 335 -14 q 164 62 221 -14 q 126 263 107 138 l 164 500 q 219 646 178 583 q 322 743 260 708 q 461 778 385 778 q 584 747 535 778 q 650 660 633 715 l 654 660 l 671 764 l 740 764 l 619 0 l 550 0 l 567 104 l 561 104 q 468 17 528 49 q 335 -14 408 -14 m 358 46 q 515 103 453 46 q 592 263 576 161 l 629 500 q 602 660 644 603 q 465 718 560 718 q 310 660 372 718 q 233 500 249 603 l 196 263 q 223 103 181 161 q 358 46 265 46 m 467 1056 l 649 1236 l 738 1236 l 542 1056 l 467 1056 m 503 896 q 360 944 410 896 q 322 1069 310 992 l 383 1069 q 410 984 375 1017 q 510 951 446 951 q 621 984 575 951 q 675 1069 667 1017 l 739 1069 q 662 944 726 992 q 503 896 597 896 z "},"ặ":{"ha":833,"x_min":107,"x_max":740,"o":"m 335 -14 q 164 62 221 -14 q 126 263 107 138 l 164 500 q 219 646 178 583 q 322 743 260 708 q 461 778 385 778 q 584 747 535 778 q 650 660 633 715 l 654 660 l 671 764 l 740 764 l 619 0 l 550 0 l 567 104 l 561 104 q 468 17 528 49 q 335 -14 408 -14 m 358 46 q 515 103 453 46 q 592 263 576 161 l 629 500 q 602 660 644 603 q 465 718 560 718 q 310 660 372 718 q 233 500 249 603 l 196 263 q 223 103 181 161 q 358 46 265 46 m 318 -285 q 263 -264 282 -285 q 249 -208 243 -243 q 280 -153 254 -174 q 342 -132 306 -132 q 397 -153 378 -132 q 410 -208 415 -174 q 379 -264 404 -243 q 318 -285 354 -285 m 504 893 q 365 947 411 893 q 333 1090 319 1000 l 396 1090 q 417 987 386 1025 q 511 949 447 949 q 620 987 576 949 q 674 1090 664 1025 l 736 1090 q 660 947 722 1000 q 504 893 597 893 z "},"ằ":{"ha":833,"x_min":107,"x_max":740,"o":"m 335 -14 q 164 62 221 -14 q 126 263 107 138 l 164 500 q 219 646 178 583 q 322 743 260 708 q 461 778 385 778 q 584 747 535 778 q 650 660 633 715 l 654 660 l 671 764 l 740 764 l 619 0 l 550 0 l 567 104 l 561 104 q 468 17 528 49 q 335 -14 408 -14 m 358 46 q 515 103 453 46 q 592 263 576 161 l 629 500 q 602 660 644 603 q 465 718 560 718 q 310 660 372 718 q 233 500 249 603 l 196 263 q 223 103 181 161 q 358 46 265 46 m 519 1056 l 382 1236 l 461 1236 l 585 1056 l 519 1056 m 503 896 q 360 944 410 896 q 322 1069 310 992 l 383 1069 q 410 984 375 1017 q 510 951 444 951 q 621 984 575 951 q 675 1069 667 1017 l 739 1069 q 662 944 726 992 q 503 896 597 896 z "},"ẳ":{"ha":833,"x_min":107,"x_max":740,"o":"m 335 -14 q 164 62 221 -14 q 126 263 107 138 l 164 500 q 219 646 178 583 q 322 743 260 708 q 461 778 385 778 q 584 747 535 778 q 650 660 633 715 l 654 660 l 671 764 l 740 764 l 619 0 l 550 0 l 567 104 l 561 104 q 468 17 528 49 q 335 -14 408 -14 m 358 46 q 515 103 453 46 q 592 263 576 161 l 629 500 q 602 660 644 603 q 465 718 560 718 q 310 660 372 718 q 233 500 249 603 l 196 263 q 223 103 181 161 q 358 46 265 46 m 472 1056 l 561 1151 q 590 1201 588 1178 q 553 1238 597 1238 l 450 1238 l 457 1286 l 560 1286 q 632 1265 607 1286 q 651 1207 657 1243 q 607 1126 647 1171 l 542 1056 l 472 1056 m 503 896 q 360 944 410 896 q 322 1069 310 992 l 383 1069 q 410 984 375 1017 q 510 951 444 951 q 621 984 575 951 q 675 1069 667 1017 l 739 1069 q 662 944 726 992 q 503 896 597 896 z "},"ẵ":{"ha":833,"x_min":107,"x_max":765,"o":"m 335 -14 q 164 62 221 -14 q 126 263 107 138 l 164 500 q 219 646 178 583 q 322 743 260 708 q 461 778 385 778 q 584 747 535 778 q 650 660 633 715 l 654 660 l 671 764 l 740 764 l 619 0 l 550 0 l 567 104 l 561 104 q 468 17 528 49 q 335 -14 408 -14 m 358 46 q 515 103 453 46 q 592 263 576 161 l 629 500 q 602 660 644 603 q 465 718 560 718 q 310 660 372 718 q 233 500 249 603 l 196 263 q 223 103 181 161 q 358 46 265 46 m 638 1132 q 578 1147 600 1132 q 542 1181 557 1161 q 510 1215 526 1200 q 465 1229 493 1229 q 401 1174 410 1229 l 396 1139 l 340 1139 l 346 1174 q 475 1285 363 1285 q 533 1270 513 1285 q 569 1236 554 1256 q 601 1202 585 1217 q 646 1188 618 1188 q 704 1243 696 1188 l 710 1278 l 765 1278 l 760 1243 q 638 1132 743 1132 m 503 896 q 360 944 410 896 q 322 1069 310 992 l 385 1069 q 411 984 376 1017 q 511 951 446 951 q 622 984 576 951 q 676 1069 668 1017 l 739 1069 q 662 944 726 992 q 503 896 597 896 z "},"ǎ":{"ha":833,"x_min":107,"x_max":744,"o":"m 335 -14 q 164 62 221 -14 q 126 263 107 138 l 164 500 q 219 646 178 583 q 322 743 260 708 q 461 778 385 778 q 584 747 535 778 q 650 660 633 715 l 654 660 l 671 764 l 740 764 l 619 0 l 550 0 l 567 104 l 561 104 q 468 17 528 49 q 335 -14 408 -14 m 358 46 q 515 103 453 46 q 592 263 576 161 l 629 500 q 602 660 644 603 q 465 718 560 718 q 310 660 372 718 q 233 500 249 603 l 196 263 q 223 103 181 161 q 358 46 265 46 m 464 896 l 328 1090 l 396 1090 l 513 939 l 675 1090 l 744 1090 l 547 896 l 464 896 z "},"â":{"ha":833,"x_min":107,"x_max":740,"o":"m 335 -14 q 164 62 221 -14 q 126 263 107 138 l 164 500 q 219 646 178 583 q 322 743 260 708 q 461 778 385 778 q 584 747 535 778 q 650 660 633 715 l 654 660 l 671 764 l 740 764 l 619 0 l 550 0 l 567 104 l 561 104 q 468 17 528 49 q 335 -14 408 -14 m 358 46 q 515 103 453 46 q 592 263 576 161 l 629 500 q 602 660 644 603 q 465 718 560 718 q 310 660 372 718 q 233 500 249 603 l 196 263 q 223 103 181 161 q 358 46 265 46 m 296 896 l 493 1090 l 576 1090 l 713 896 l 647 896 l 531 1047 l 369 896 l 296 896 z "},"ấ":{"ha":833,"x_min":107,"x_max":949,"o":"m 335 -14 q 164 62 221 -14 q 126 263 107 138 l 164 500 q 219 646 178 583 q 322 743 260 708 q 461 778 385 778 q 584 747 535 778 q 650 660 633 715 l 654 660 l 671 764 l 740 764 l 619 0 l 550 0 l 567 104 l 561 104 q 468 17 528 49 q 335 -14 408 -14 m 358 46 q 515 103 453 46 q 592 263 576 161 l 629 500 q 602 660 644 603 q 465 718 560 718 q 310 660 372 718 q 233 500 249 603 l 196 263 q 223 103 181 161 q 358 46 265 46 m 669 1056 l 860 1250 l 949 1250 l 744 1056 l 669 1056 m 294 896 l 492 1090 l 575 1090 l 711 896 l 646 896 l 529 1047 l 368 896 l 294 896 z "},"ậ":{"ha":833,"x_min":107,"x_max":740,"o":"m 335 -14 q 164 62 221 -14 q 126 263 107 138 l 164 500 q 219 646 178 583 q 322 743 260 708 q 461 778 385 778 q 584 747 535 778 q 650 660 633 715 l 654 660 l 671 764 l 740 764 l 619 0 l 550 0 l 567 104 l 561 104 q 468 17 528 49 q 335 -14 408 -14 m 358 46 q 515 103 453 46 q 592 263 576 161 l 629 500 q 602 660 644 603 q 465 718 560 718 q 310 660 372 718 q 233 500 249 603 l 196 263 q 223 103 181 161 q 358 46 265 46 m 318 -285 q 263 -264 282 -285 q 249 -208 243 -243 q 280 -153 254 -174 q 342 -132 306 -132 q 397 -153 378 -132 q 410 -208 415 -174 q 379 -264 404 -243 q 318 -285 354 -285 m 296 896 l 493 1090 l 576 1090 l 713 896 l 647 896 l 531 1047 l 369 896 l 296 896 z "},"ầ":{"ha":833,"x_min":107,"x_max":800,"o":"m 335 -14 q 164 62 221 -14 q 126 263 107 138 l 164 500 q 219 646 178 583 q 322 743 260 708 q 461 778 385 778 q 584 747 535 778 q 650 660 633 715 l 654 660 l 671 764 l 740 764 l 619 0 l 550 0 l 567 104 l 561 104 q 468 17 528 49 q 335 -14 408 -14 m 358 46 q 515 103 453 46 q 592 263 576 161 l 629 500 q 602 660 644 603 q 465 718 560 718 q 310 660 372 718 q 233 500 249 603 l 196 263 q 223 103 181 161 q 358 46 265 46 m 736 1056 l 588 1250 l 665 1250 l 800 1056 l 736 1056 m 294 896 l 492 1090 l 575 1090 l 711 896 l 646 896 l 529 1047 l 368 896 l 294 896 z "},"ẩ":{"ha":833,"x_min":107,"x_max":878,"o":"m 335 -14 q 164 62 221 -14 q 126 263 107 138 l 164 500 q 219 646 178 583 q 322 743 260 708 q 461 778 385 778 q 584 747 535 778 q 650 660 633 715 l 654 660 l 671 764 l 740 764 l 619 0 l 550 0 l 567 104 l 561 104 q 468 17 528 49 q 335 -14 408 -14 m 358 46 q 515 103 453 46 q 592 263 576 161 l 629 500 q 602 660 644 603 q 465 718 560 718 q 310 660 372 718 q 233 500 249 603 l 196 263 q 223 103 181 161 q 358 46 265 46 m 693 1056 l 782 1151 q 811 1201 808 1178 q 774 1238 818 1238 l 671 1238 l 678 1286 l 781 1286 q 853 1265 828 1286 q 872 1207 878 1243 q 828 1126 868 1171 l 763 1056 l 693 1056 m 294 896 l 492 1090 l 575 1090 l 711 896 l 646 896 l 529 1047 l 368 896 l 294 896 z "},"ẫ":{"ha":833,"x_min":107,"x_max":765,"o":"m 335 -14 q 164 62 221 -14 q 126 263 107 138 l 164 500 q 219 646 178 583 q 322 743 260 708 q 461 778 385 778 q 584 747 535 778 q 650 660 633 715 l 654 660 l 671 764 l 740 764 l 619 0 l 550 0 l 567 104 l 561 104 q 468 17 528 49 q 335 -14 408 -14 m 358 46 q 515 103 453 46 q 592 263 576 161 l 629 500 q 602 660 644 603 q 465 718 560 718 q 310 660 372 718 q 233 500 249 603 l 196 263 q 223 103 181 161 q 358 46 265 46 m 638 1132 q 578 1147 600 1132 q 542 1181 557 1161 q 510 1215 528 1200 q 465 1229 493 1229 q 401 1174 410 1229 l 396 1139 l 340 1139 l 346 1174 q 475 1285 363 1285 q 534 1270 513 1285 q 570 1236 556 1256 q 601 1202 585 1217 q 646 1188 618 1188 q 704 1243 696 1188 l 710 1278 l 765 1278 l 760 1243 q 638 1132 743 1132 m 294 896 l 492 1090 l 575 1090 l 711 896 l 647 896 l 531 1047 l 369 896 l 294 896 z "},"ä":{"ha":833,"x_min":107,"x_max":746,"o":"m 335 -14 q 164 62 221 -14 q 126 263 107 138 l 164 500 q 219 646 178 583 q 322 743 260 708 q 461 778 385 778 q 584 747 535 778 q 650 660 633 715 l 654 660 l 671 764 l 740 764 l 619 0 l 550 0 l 567 104 l 561 104 q 468 17 528 49 q 335 -14 408 -14 m 358 46 q 515 103 453 46 q 592 263 576 161 l 629 500 q 602 660 644 603 q 465 718 560 718 q 310 660 372 718 q 233 500 249 603 l 196 263 q 223 103 181 161 q 358 46 265 46 m 657 910 q 606 931 624 910 q 594 986 589 951 q 624 1042 601 1021 q 681 1063 647 1063 q 729 1042 713 1063 q 739 986 746 1021 q 711 931 733 951 q 657 910 689 910 m 358 910 q 309 931 326 910 q 297 986 292 951 q 327 1042 304 1021 q 382 1063 350 1063 q 431 1042 414 1063 q 442 986 449 1021 q 413 931 436 951 q 358 910 390 910 z "},"ạ":{"ha":833,"x_min":107,"x_max":740,"o":"m 335 -14 q 164 62 221 -14 q 126 263 107 138 l 164 500 q 219 646 178 583 q 322 743 260 708 q 461 778 385 778 q 584 747 535 778 q 650 660 633 715 l 654 660 l 671 764 l 740 764 l 619 0 l 550 0 l 567 104 l 561 104 q 468 17 528 49 q 335 -14 408 -14 m 358 46 q 515 103 453 46 q 592 263 576 161 l 629 500 q 602 660 644 603 q 465 718 560 718 q 310 660 372 718 q 233 500 249 603 l 196 263 q 223 103 181 161 q 358 46 265 46 m 318 -285 q 263 -264 282 -285 q 249 -208 243 -243 q 280 -153 254 -174 q 342 -132 306 -132 q 397 -153 378 -132 q 410 -208 415 -174 q 379 -264 404 -243 q 318 -285 354 -285 z "},"à":{"ha":833,"x_min":107,"x_max":740,"o":"m 335 -14 q 164 62 221 -14 q 126 263 107 138 l 164 500 q 219 646 178 583 q 322 743 260 708 q 461 778 385 778 q 584 747 535 778 q 650 660 633 715 l 654 660 l 671 764 l 740 764 l 619 0 l 550 0 l 567 104 l 561 104 q 468 17 528 49 q 335 -14 408 -14 m 358 46 q 515 103 453 46 q 592 263 576 161 l 629 500 q 602 660 644 603 q 465 718 560 718 q 310 660 372 718 q 233 500 249 603 l 196 263 q 223 103 181 161 q 358 46 265 46 m 483 896 l 358 1090 l 439 1090 l 556 896 l 483 896 z "},"ả":{"ha":833,"x_min":107,"x_max":740,"o":"m 335 -14 q 164 62 221 -14 q 126 263 107 138 l 164 500 q 219 646 178 583 q 322 743 260 708 q 461 778 385 778 q 584 747 535 778 q 650 660 633 715 l 654 660 l 671 764 l 740 764 l 619 0 l 550 0 l 567 104 l 561 104 q 468 17 528 49 q 335 -14 408 -14 m 358 46 q 515 103 453 46 q 592 263 576 161 l 629 500 q 602 660 644 603 q 465 718 560 718 q 310 660 372 718 q 233 500 249 603 l 196 263 q 223 103 181 161 q 358 46 265 46 m 465 896 l 560 1001 q 582 1030 572 1017 q 593 1051 592 1043 q 549 1090 600 1090 l 426 1090 l 435 1139 l 557 1139 q 631 1117 606 1139 q 651 1057 657 1094 q 639 1021 649 1040 q 614 983 629 1001 l 538 896 l 465 896 z "},"ā":{"ha":833,"x_min":107,"x_max":740,"o":"m 335 -14 q 164 62 221 -14 q 126 263 107 138 l 164 500 q 219 646 178 583 q 322 743 260 708 q 461 778 385 778 q 584 747 535 778 q 650 660 633 715 l 654 660 l 671 764 l 740 764 l 619 0 l 550 0 l 567 104 l 561 104 q 468 17 528 49 q 335 -14 408 -14 m 358 46 q 515 103 453 46 q 592 263 576 161 l 629 500 q 602 660 644 603 q 465 718 560 718 q 310 660 372 718 q 233 500 249 603 l 196 263 q 223 103 181 161 q 358 46 265 46 m 318 950 l 328 1010 l 717 1010 l 707 950 l 318 950 z "},"ą":{"ha":833,"x_min":107,"x_max":740,"o":"m 335 -14 q 164 62 221 -14 q 126 263 107 138 l 164 500 q 219 646 178 583 q 322 743 260 708 q 461 778 385 778 q 584 747 535 778 q 650 660 633 715 l 654 660 l 671 764 l 740 764 l 619 0 q 545 -76 574 -37 q 513 -143 517 -114 q 523 -194 507 -175 q 572 -212 539 -212 l 661 -212 l 651 -271 l 550 -271 q 465 -241 493 -271 q 444 -160 436 -211 q 482 -78 450 -121 q 565 0 514 -36 l 550 0 l 567 104 l 561 104 q 468 17 528 49 q 335 -14 408 -14 m 358 46 q 515 103 453 46 q 592 263 576 161 l 629 500 q 602 660 644 603 q 465 718 560 718 q 310 660 372 718 q 233 500 249 603 l 196 263 q 223 103 181 161 q 358 46 265 46 z "},"å":{"ha":833,"x_min":107,"x_max":740,"o":"m 335 -14 q 164 62 221 -14 q 126 263 107 138 l 164 500 q 219 646 178 583 q 322 743 260 708 q 461 778 385 778 q 584 747 535 778 q 650 660 633 715 l 654 660 l 671 764 l 740 764 l 619 0 l 550 0 l 567 104 l 561 104 q 468 17 528 49 q 335 -14 408 -14 m 358 46 q 515 103 453 46 q 592 263 576 161 l 629 500 q 602 660 644 603 q 465 718 560 718 q 310 660 372 718 q 233 500 249 603 l 196 263 q 223 103 181 161 q 358 46 265 46 m 499 854 q 399 892 433 854 q 374 993 364 931 q 431 1094 385 1056 q 543 1132 478 1132 q 642 1094 608 1132 q 665 993 676 1056 q 610 892 656 931 q 499 854 564 854 m 506 903 q 575 928 546 903 q 610 993 604 953 q 596 1058 617 1033 q 535 1083 575 1083 q 465 1058 494 1083 q 429 993 436 1033 q 444 928 424 953 q 506 903 465 903 z "},"ã":{"ha":833,"x_min":107,"x_max":756,"o":"m 335 -14 q 164 62 221 -14 q 126 263 107 138 l 164 500 q 219 646 178 583 q 322 743 260 708 q 461 778 385 778 q 584 747 535 778 q 650 660 633 715 l 654 660 l 671 764 l 740 764 l 619 0 l 550 0 l 567 104 l 561 104 q 468 17 528 49 q 335 -14 408 -14 m 358 46 q 515 103 453 46 q 592 263 576 161 l 629 500 q 602 660 644 603 q 465 718 560 718 q 310 660 372 718 q 233 500 249 603 l 196 263 q 223 103 181 161 q 358 46 265 46 m 610 903 q 547 922 571 903 q 505 966 522 940 q 470 1010 488 992 q 428 1029 453 1029 q 374 1010 396 1029 q 347 958 353 990 l 340 910 l 285 910 l 292 958 q 340 1050 301 1017 q 438 1083 379 1083 q 501 1065 476 1083 q 542 1020 525 1046 q 576 976 558 994 q 618 957 593 957 q 667 976 647 957 q 692 1028 686 996 l 700 1076 l 756 1076 l 747 1028 q 701 936 738 969 q 610 903 665 903 z "},"æ":{"ha":833,"x_min":11,"x_max":822,"o":"m 178 -14 q 51 43 92 -14 q 25 193 11 100 l 35 257 q 104 387 49 339 q 244 435 160 435 l 394 435 l 415 569 q 396 675 426 633 q 307 717 365 717 q 213 681 253 717 q 157 590 172 646 l 88 590 q 168 727 108 676 q 313 778 228 778 q 399 758 367 778 q 447 712 432 739 q 463 658 463 685 l 465 658 q 501 712 476 685 q 563 758 525 739 q 650 778 601 778 q 780 721 738 778 q 807 569 822 664 l 775 372 l 453 372 l 425 194 q 445 90 415 131 q 535 49 475 49 q 626 83 589 49 q 676 174 663 118 l 746 174 q 669 38 725 89 q 528 -14 613 -14 q 442 5 475 -14 q 394 51 408 24 q 378 104 379 79 l 374 104 q 340 51 365 79 q 275 5 315 24 q 178 -14 235 -14 m 464 435 l 717 435 l 738 569 q 720 674 747 632 q 636 717 693 717 q 538 674 581 717 q 485 569 494 632 l 464 435 m 200 44 q 301 88 257 44 q 356 194 346 131 l 383 372 l 233 372 q 149 340 185 372 q 104 257 113 308 l 94 193 q 113 87 85 129 q 200 44 142 44 z "},"ǽ":{"ha":833,"x_min":11,"x_max":822,"o":"m 178 -14 q 51 43 92 -14 q 25 193 11 100 l 35 257 q 104 387 49 339 q 244 435 160 435 l 394 435 l 415 569 q 396 675 426 633 q 307 717 365 717 q 213 681 253 717 q 157 590 172 646 l 88 590 q 168 727 108 676 q 313 778 228 778 q 399 758 367 778 q 447 712 432 739 q 463 658 463 685 l 465 658 q 501 712 476 685 q 563 758 525 739 q 650 778 601 778 q 780 721 738 778 q 807 569 822 664 l 775 372 l 453 372 l 425 194 q 445 90 415 131 q 535 49 475 49 q 626 83 589 49 q 676 174 663 118 l 746 174 q 669 38 725 89 q 528 -14 613 -14 q 442 5 475 -14 q 394 51 408 24 q 378 104 379 79 l 374 104 q 340 51 365 79 q 275 5 315 24 q 178 -14 235 -14 m 464 435 l 717 435 l 738 569 q 720 674 747 632 q 636 717 693 717 q 538 674 581 717 q 485 569 494 632 l 464 435 m 200 44 q 301 88 257 44 q 356 194 346 131 l 383 372 l 233 372 q 149 340 185 372 q 104 257 113 308 l 94 193 q 113 87 85 129 q 200 44 142 44 m 458 896 l 636 1090 l 724 1090 l 538 896 l 458 896 z "},"b":{"ha":833,"x_min":92,"x_max":725,"o":"m 371 -14 q 248 17 297 -14 q 182 104 199 49 l 178 104 l 161 0 l 92 0 l 253 1014 l 322 1014 l 289 806 l 265 660 l 271 660 q 364 747 304 715 q 497 778 424 778 q 669 701 613 778 q 706 500 725 625 l 668 263 q 614 117 656 179 q 510 21 572 56 q 371 -14 447 -14 m 367 46 q 521 103 460 46 q 599 263 582 161 l 636 500 q 610 660 653 603 q 474 718 567 718 q 318 660 379 718 q 240 500 257 603 l 203 263 q 230 103 186 161 q 367 46 274 46 z "},"c":{"ha":833,"x_min":107,"x_max":735,"o":"m 356 -14 q 168 62 229 -14 q 126 264 107 138 l 164 500 q 221 647 178 585 q 331 743 264 708 q 482 778 399 778 q 672 706 608 778 q 715 514 735 635 l 646 514 q 614 661 661 608 q 471 714 567 714 q 313 658 376 714 q 233 500 249 601 l 196 264 q 226 107 181 164 q 367 50 272 50 q 526 103 463 50 q 604 250 589 157 l 674 250 q 568 58 654 129 q 356 -14 482 -14 z "},"ć":{"ha":833,"x_min":107,"x_max":735,"o":"m 356 -14 q 168 62 229 -14 q 126 264 107 138 l 164 500 q 221 647 178 585 q 331 743 264 708 q 482 778 399 778 q 672 706 608 778 q 715 514 735 635 l 646 514 q 614 661 661 608 q 471 714 567 714 q 313 658 376 714 q 233 500 249 601 l 196 264 q 226 107 181 164 q 367 50 272 50 q 526 103 463 50 q 604 250 589 157 l 674 250 q 568 58 654 129 q 356 -14 482 -14 m 461 896 l 639 1090 l 726 1090 l 540 896 l 461 896 z "},"č":{"ha":833,"x_min":107,"x_max":740,"o":"m 356 -14 q 168 62 229 -14 q 126 264 107 138 l 164 500 q 221 647 178 585 q 331 743 264 708 q 482 778 399 778 q 672 706 608 778 q 715 514 735 635 l 646 514 q 614 661 661 608 q 471 714 567 714 q 313 658 376 714 q 233 500 249 601 l 196 264 q 226 107 181 164 q 367 50 272 50 q 526 103 463 50 q 604 250 589 157 l 674 250 q 568 58 654 129 q 356 -14 482 -14 m 460 896 l 324 1090 l 392 1090 l 508 939 l 671 1090 l 740 1090 l 543 896 l 460 896 z "},"ç":{"ha":833,"x_min":110,"x_max":735,"o":"m 190 -271 l 199 -222 l 310 -222 q 367 -204 343 -222 q 393 -164 390 -186 q 357 -110 399 -131 q 242 -89 315 -89 l 286 -7 q 152 84 194 13 q 126 264 110 156 l 164 500 q 221 647 178 585 q 331 743 264 708 q 482 778 399 778 q 672 706 608 778 q 715 514 735 635 l 646 514 q 614 661 661 608 q 471 714 567 714 q 313 658 376 714 q 233 500 249 601 l 196 264 q 226 107 181 164 q 367 50 272 50 q 526 103 463 50 q 604 250 589 157 l 674 250 q 568 58 654 129 q 356 -14 482 -14 q 342 -14 349 -14 l 324 -47 q 389 -61 356 -49 q 443 -99 422 -74 q 457 -164 464 -124 q 408 -240 451 -208 q 301 -271 364 -271 l 190 -271 z "},"ĉ":{"ha":833,"x_min":107,"x_max":735,"o":"m 356 -14 q 168 62 229 -14 q 126 264 107 138 l 164 500 q 221 647 178 585 q 331 743 264 708 q 482 778 399 778 q 672 706 608 778 q 715 514 735 635 l 646 514 q 614 661 661 608 q 471 714 567 714 q 313 658 376 714 q 233 500 249 601 l 196 264 q 226 107 181 164 q 367 50 272 50 q 526 103 463 50 q 604 250 589 157 l 674 250 q 568 58 654 129 q 356 -14 482 -14 m 292 896 l 489 1090 l 572 1090 l 708 896 l 643 896 l 526 1047 l 365 896 l 292 896 z "},"ċ":{"ha":833,"x_min":107,"x_max":735,"o":"m 356 -14 q 168 62 229 -14 q 126 264 107 138 l 164 500 q 221 647 178 585 q 331 743 264 708 q 482 778 399 778 q 672 706 608 778 q 715 514 735 635 l 646 514 q 614 661 661 608 q 471 714 567 714 q 313 658 376 714 q 233 500 249 601 l 196 264 q 226 107 181 164 q 367 50 272 50 q 526 103 463 50 q 604 250 589 157 l 674 250 q 568 58 654 129 q 356 -14 482 -14 m 501 910 q 447 931 465 910 q 433 986 428 951 q 465 1042 439 1021 q 526 1063 490 1063 q 581 1042 563 1063 q 594 986 600 1021 q 563 931 589 951 q 501 910 538 910 z "},"d":{"ha":833,"x_min":107,"x_max":781,"o":"m 335 -14 q 164 62 221 -14 q 126 263 107 138 l 164 500 q 219 646 178 583 q 322 743 260 708 q 461 778 385 778 q 584 747 535 778 q 650 660 633 715 l 654 660 l 678 806 l 711 1014 l 781 1014 l 619 0 l 550 0 l 567 104 l 561 104 q 468 17 528 49 q 335 -14 408 -14 m 358 46 q 514 103 453 46 q 592 263 575 161 l 629 500 q 603 660 646 603 q 465 718 560 718 q 311 660 372 718 q 233 500 250 603 l 196 263 q 222 103 179 161 q 358 46 265 46 z "},"ð":{"ha":833,"x_min":75,"x_max":738,"o":"m 353 -14 q 144 72 214 -14 q 97 299 75 157 q 159 462 113 393 q 277 568 206 531 q 438 606 349 606 q 528 585 489 606 q 592 537 567 565 q 629 482 618 508 l 633 482 q 612 554 631 501 q 553 682 593 607 l 475 825 l 215 713 l 224 774 l 449 872 l 367 1014 l 436 1014 l 500 894 l 736 996 l 728 935 l 526 847 l 601 718 q 708 296 738 482 q 644 133 693 203 q 521 24 596 63 q 353 -14 446 -14 m 364 56 q 541 122 468 56 q 632 300 614 189 q 622 426 643 371 q 555 511 601 481 q 442 542 508 542 q 264 476 336 542 q 174 299 192 410 q 207 122 156 188 q 364 56 258 56 z "},"ď":{"ha":833,"x_min":86,"x_max":892,"o":"m 768 764 l 822 1014 l 892 1014 l 831 764 l 768 764 m 300 -14 q 138 61 190 -14 q 106 263 86 136 l 143 500 q 240 703 163 628 q 426 778 317 778 q 544 747 499 778 q 604 660 590 715 l 606 660 l 629 806 l 663 1014 l 732 1014 l 571 0 l 501 0 l 518 104 l 515 104 q 428 17 485 49 q 300 -14 372 -14 m 324 46 q 469 104 410 46 q 543 263 528 163 l 581 500 q 556 659 596 600 q 431 718 517 718 q 287 659 346 718 q 213 500 228 600 l 175 263 q 199 104 160 163 q 324 46 239 46 z "},"đ":{"ha":833,"x_min":107,"x_max":897,"o":"m 126 263 l 151 417 q 206 563 165 500 q 309 660 247 625 q 447 694 371 694 q 571 663 521 694 q 636 576 621 632 l 642 576 l 664 722 l 679 814 l 429 814 l 439 876 l 689 876 l 711 1014 l 781 1014 l 758 876 l 897 876 l 888 814 l 749 814 l 619 0 l 550 0 l 567 104 l 561 104 q 468 17 528 49 q 335 -14 408 -14 q 164 62 221 -14 q 126 263 107 138 m 196 263 q 222 103 179 161 q 358 46 265 46 q 514 103 453 46 q 592 263 575 161 l 617 417 q 589 577 632 519 q 451 635 546 635 q 297 577 358 635 q 221 417 236 519 l 196 263 z "},"e":{"ha":833,"x_min":107,"x_max":725,"o":"m 354 -14 q 167 62 226 -14 q 126 264 107 138 l 164 500 q 269 702 183 626 q 481 778 354 778 q 666 702 607 778 q 706 500 725 626 l 685 368 l 213 368 l 196 264 q 224 106 181 164 q 364 47 267 47 q 498 85 442 47 q 585 188 554 122 l 654 188 q 540 40 619 94 q 354 -14 461 -14 m 222 428 l 624 428 l 636 500 q 610 658 653 600 q 471 717 567 717 q 311 659 374 717 q 233 500 249 601 l 222 428 z "},"é":{"ha":833,"x_min":107,"x_max":725,"o":"m 354 -14 q 167 62 226 -14 q 126 264 107 138 l 164 500 q 269 702 183 626 q 481 778 354 778 q 666 702 607 778 q 706 500 725 626 l 685 368 l 213 368 l 196 264 q 224 106 181 164 q 364 47 267 47 q 498 85 442 47 q 585 188 554 122 l 654 188 q 540 40 619 94 q 354 -14 461 -14 m 222 428 l 624 428 l 636 500 q 610 658 653 600 q 471 717 567 717 q 311 659 374 717 q 233 500 249 601 l 222 428 m 458 896 l 636 1090 l 724 1090 l 538 896 l 458 896 z "},"ĕ":{"ha":833,"x_min":107,"x_max":729,"o":"m 354 -14 q 167 62 226 -14 q 126 264 107 138 l 164 500 q 269 702 183 626 q 481 778 354 778 q 666 702 607 778 q 706 500 725 626 l 685 368 l 213 368 l 196 264 q 224 106 181 164 q 364 47 267 47 q 498 85 442 47 q 585 188 554 122 l 654 188 q 540 40 619 94 q 354 -14 461 -14 m 222 428 l 624 428 l 636 500 q 610 658 653 600 q 471 717 567 717 q 311 659 374 717 q 233 500 249 601 l 222 428 m 497 893 q 358 947 404 893 q 326 1090 313 1000 l 389 1090 q 410 987 379 1025 q 504 949 440 949 q 613 987 569 949 q 667 1090 657 1025 l 729 1090 q 653 947 715 1000 q 497 893 590 893 z "},"ě":{"ha":833,"x_min":107,"x_max":738,"o":"m 354 -14 q 167 62 226 -14 q 126 264 107 138 l 164 500 q 269 702 183 626 q 481 778 354 778 q 666 702 607 778 q 706 500 725 626 l 685 368 l 213 368 l 196 264 q 224 106 181 164 q 364 47 267 47 q 498 85 442 47 q 585 188 554 122 l 654 188 q 540 40 619 94 q 354 -14 461 -14 m 222 428 l 624 428 l 636 500 q 610 658 653 600 q 471 717 567 717 q 311 659 374 717 q 233 500 249 601 l 222 428 m 457 896 l 321 1090 l 389 1090 l 506 939 l 668 1090 l 738 1090 l 540 896 l 457 896 z "},"ê":{"ha":833,"x_min":107,"x_max":725,"o":"m 354 -14 q 167 62 226 -14 q 126 264 107 138 l 164 500 q 269 702 183 626 q 481 778 354 778 q 666 702 607 778 q 706 500 725 626 l 685 368 l 213 368 l 196 264 q 224 106 181 164 q 364 47 267 47 q 498 85 442 47 q 585 188 554 122 l 654 188 q 540 40 619 94 q 354 -14 461 -14 m 222 428 l 624 428 l 636 500 q 610 658 653 600 q 471 717 567 717 q 311 659 374 717 q 233 500 249 601 l 222 428 m 289 896 l 486 1090 l 569 1090 l 706 896 l 640 896 l 524 1047 l 363 896 l 289 896 z "},"ế":{"ha":833,"x_min":107,"x_max":942,"o":"m 354 -14 q 167 62 226 -14 q 126 264 107 138 l 164 500 q 269 702 183 626 q 481 778 354 778 q 666 702 607 778 q 706 500 725 626 l 685 368 l 213 368 l 196 264 q 224 106 181 164 q 364 47 267 47 q 498 85 442 47 q 585 188 554 122 l 654 188 q 540 40 619 94 q 354 -14 461 -14 m 222 428 l 624 428 l 636 500 q 610 658 653 600 q 471 717 567 717 q 311 659 374 717 q 233 500 249 601 l 222 428 m 663 1056 l 853 1250 l 942 1250 l 738 1056 l 663 1056 m 288 896 l 485 1090 l 568 1090 l 704 896 l 639 896 l 522 1047 l 361 896 l 288 896 z "},"ệ":{"ha":833,"x_min":107,"x_max":725,"o":"m 354 -14 q 167 62 226 -14 q 126 264 107 138 l 164 500 q 269 702 183 626 q 481 778 354 778 q 666 702 607 778 q 706 500 725 626 l 685 368 l 213 368 l 196 264 q 224 106 181 164 q 364 47 267 47 q 498 85 442 47 q 585 188 554 122 l 654 188 q 540 40 619 94 q 354 -14 461 -14 m 222 428 l 624 428 l 636 500 q 610 658 653 600 q 471 717 567 717 q 311 659 374 717 q 233 500 249 601 l 222 428 m 311 -285 q 256 -264 275 -285 q 242 -208 236 -243 q 273 -153 247 -174 q 335 -132 299 -132 q 390 -153 371 -132 q 403 -208 408 -174 q 372 -264 397 -243 q 311 -285 347 -285 m 289 896 l 486 1090 l 569 1090 l 706 896 l 640 896 l 524 1047 l 363 896 l 289 896 z "},"ề":{"ha":833,"x_min":107,"x_max":793,"o":"m 354 -14 q 167 62 226 -14 q 126 264 107 138 l 164 500 q 269 702 183 626 q 481 778 354 778 q 666 702 607 778 q 706 500 725 626 l 685 368 l 213 368 l 196 264 q 224 106 181 164 q 364 47 267 47 q 498 85 442 47 q 585 188 554 122 l 654 188 q 540 40 619 94 q 354 -14 461 -14 m 222 428 l 624 428 l 636 500 q 610 658 653 600 q 471 717 567 717 q 311 659 374 717 q 233 500 249 601 l 222 428 m 729 1056 l 581 1250 l 658 1250 l 793 1056 l 729 1056 m 288 896 l 485 1090 l 568 1090 l 704 896 l 639 896 l 522 1047 l 361 896 l 288 896 z "},"ể":{"ha":833,"x_min":107,"x_max":871,"o":"m 354 -14 q 167 62 226 -14 q 126 264 107 138 l 164 500 q 269 702 183 626 q 481 778 354 778 q 666 702 607 778 q 706 500 725 626 l 685 368 l 213 368 l 196 264 q 224 106 181 164 q 364 47 267 47 q 498 85 442 47 q 585 188 554 122 l 654 188 q 540 40 619 94 q 354 -14 461 -14 m 222 428 l 624 428 l 636 500 q 610 658 653 600 q 471 717 567 717 q 311 659 374 717 q 233 500 249 601 l 222 428 m 686 1056 l 775 1151 q 804 1201 801 1178 q 767 1238 811 1238 l 664 1238 l 671 1286 l 774 1286 q 846 1265 821 1286 q 865 1207 871 1243 q 821 1126 861 1171 l 756 1056 l 686 1056 m 288 896 l 485 1090 l 568 1090 l 704 896 l 639 896 l 522 1047 l 361 896 l 288 896 z "},"ễ":{"ha":833,"x_min":107,"x_max":758,"o":"m 354 -14 q 167 62 226 -14 q 126 264 107 138 l 164 500 q 269 702 183 626 q 481 778 354 778 q 666 702 607 778 q 706 500 725 626 l 685 368 l 213 368 l 196 264 q 224 106 181 164 q 364 47 267 47 q 498 85 442 47 q 585 188 554 122 l 654 188 q 540 40 619 94 q 354 -14 461 -14 m 222 428 l 624 428 l 636 500 q 610 658 653 600 q 471 717 567 717 q 311 659 374 717 q 233 500 249 601 l 222 428 m 631 1132 q 572 1147 593 1132 q 535 1181 550 1161 q 503 1215 521 1200 q 458 1229 486 1229 q 394 1174 403 1229 l 389 1139 l 333 1139 l 339 1174 q 468 1285 356 1285 q 527 1270 506 1285 q 563 1236 549 1256 q 594 1202 578 1217 q 639 1188 611 1188 q 697 1243 689 1188 l 703 1278 l 758 1278 l 753 1243 q 631 1132 736 1132 m 288 896 l 485 1090 l 568 1090 l 704 896 l 640 896 l 524 1047 l 363 896 l 288 896 z "},"ë":{"ha":833,"x_min":107,"x_max":739,"o":"m 354 -14 q 167 62 226 -14 q 126 264 107 138 l 164 500 q 269 702 183 626 q 481 778 354 778 q 666 702 607 778 q 706 500 725 626 l 685 368 l 213 368 l 196 264 q 224 106 181 164 q 364 47 267 47 q 498 85 442 47 q 585 188 554 122 l 654 188 q 540 40 619 94 q 354 -14 461 -14 m 222 428 l 624 428 l 636 500 q 610 658 653 600 q 471 717 567 717 q 311 659 374 717 q 233 500 249 601 l 222 428 m 650 910 q 599 931 617 910 q 588 986 582 951 q 617 1042 594 1021 q 674 1063 640 1063 q 722 1042 706 1063 q 732 986 739 1021 q 704 931 726 951 q 650 910 682 910 m 351 910 q 302 931 319 910 q 290 986 285 951 q 320 1042 297 1021 q 375 1063 343 1063 q 424 1042 407 1063 q 435 986 442 1021 q 406 931 429 951 q 351 910 383 910 z "},"ė":{"ha":833,"x_min":107,"x_max":725,"o":"m 354 -14 q 167 62 226 -14 q 126 264 107 138 l 164 500 q 269 702 183 626 q 481 778 354 778 q 666 702 607 778 q 706 500 725 626 l 685 368 l 213 368 l 196 264 q 224 106 181 164 q 364 47 267 47 q 498 85 442 47 q 585 188 554 122 l 654 188 q 540 40 619 94 q 354 -14 461 -14 m 222 428 l 624 428 l 636 500 q 610 658 653 600 q 471 717 567 717 q 311 659 374 717 q 233 500 249 601 l 222 428 m 499 910 q 444 931 463 910 q 431 986 425 951 q 462 1042 436 1021 q 524 1063 488 1063 q 578 1042 560 1063 q 592 986 597 1021 q 560 931 586 951 q 499 910 535 910 z "},"ẹ":{"ha":833,"x_min":107,"x_max":725,"o":"m 354 -14 q 167 62 226 -14 q 126 264 107 138 l 164 500 q 269 702 183 626 q 481 778 354 778 q 666 702 607 778 q 706 500 725 626 l 685 368 l 213 368 l 196 264 q 224 106 181 164 q 364 47 267 47 q 498 85 442 47 q 585 188 554 122 l 654 188 q 540 40 619 94 q 354 -14 461 -14 m 222 428 l 624 428 l 636 500 q 610 658 653 600 q 471 717 567 717 q 311 659 374 717 q 233 500 249 601 l 222 428 m 311 -285 q 256 -264 275 -285 q 242 -208 236 -243 q 273 -153 247 -174 q 335 -132 299 -132 q 390 -153 371 -132 q 403 -208 408 -174 q 372 -264 397 -243 q 311 -285 347 -285 z "},"è":{"ha":833,"x_min":107,"x_max":725,"o":"m 354 -14 q 167 62 226 -14 q 126 264 107 138 l 164 500 q 269 702 183 626 q 481 778 354 778 q 666 702 607 778 q 706 500 725 626 l 685 368 l 213 368 l 196 264 q 224 106 181 164 q 364 47 267 47 q 498 85 442 47 q 585 188 554 122 l 654 188 q 540 40 619 94 q 354 -14 461 -14 m 222 428 l 624 428 l 636 500 q 610 658 653 600 q 471 717 567 717 q 311 659 374 717 q 233 500 249 601 l 222 428 m 476 896 l 351 1090 l 432 1090 l 549 896 l 476 896 z "},"ẻ":{"ha":833,"x_min":107,"x_max":725,"o":"m 354 -14 q 167 62 226 -14 q 126 264 107 138 l 164 500 q 269 702 183 626 q 481 778 354 778 q 666 702 607 778 q 706 500 725 626 l 685 368 l 213 368 l 196 264 q 224 106 181 164 q 364 47 267 47 q 498 85 442 47 q 585 188 554 122 l 654 188 q 540 40 619 94 q 354 -14 461 -14 m 222 428 l 624 428 l 636 500 q 610 658 653 600 q 471 717 567 717 q 311 659 374 717 q 233 500 249 601 l 222 428 m 458 896 l 553 1001 q 575 1030 565 1017 q 586 1051 585 1043 q 542 1090 593 1090 l 419 1090 l 428 1139 l 550 1139 q 624 1117 599 1139 q 644 1057 650 1094 q 632 1021 642 1040 q 607 983 622 1001 l 531 896 l 458 896 z "},"ē":{"ha":833,"x_min":107,"x_max":725,"o":"m 354 -14 q 167 62 226 -14 q 126 264 107 138 l 164 500 q 269 702 183 626 q 481 778 354 778 q 666 702 607 778 q 706 500 725 626 l 685 368 l 213 368 l 196 264 q 224 106 181 164 q 364 47 267 47 q 498 85 442 47 q 585 188 554 122 l 654 188 q 540 40 619 94 q 354 -14 461 -14 m 222 428 l 624 428 l 636 500 q 610 658 653 600 q 471 717 567 717 q 311 659 374 717 q 233 500 249 601 l 222 428 m 311 950 l 321 1010 l 710 1010 l 700 950 l 311 950 z "},"ę":{"ha":833,"x_min":107,"x_max":725,"o":"m 418 -271 q 333 -241 361 -271 q 313 -160 304 -211 q 344 -90 318 -128 q 424 -7 369 -51 q 354 -14 389 -14 q 167 62 226 -14 q 126 264 107 138 l 164 500 q 269 702 183 626 q 481 778 354 778 q 666 702 607 778 q 706 500 725 626 l 685 368 l 213 368 l 196 264 q 224 106 181 164 q 364 47 267 47 q 498 85 442 47 q 585 188 554 122 l 654 188 q 531 33 615 88 l 488 0 q 413 -76 442 -37 q 381 -143 385 -114 q 391 -194 375 -175 q 440 -212 407 -212 l 529 -212 l 519 -271 l 418 -271 m 222 428 l 625 428 l 636 500 q 609 658 651 600 q 471 717 567 717 q 311 659 374 717 q 233 500 249 601 l 222 428 z "},"ẽ":{"ha":833,"x_min":107,"x_max":749,"o":"m 354 -14 q 167 62 226 -14 q 126 264 107 138 l 164 500 q 269 702 183 626 q 481 778 354 778 q 666 702 607 778 q 706 500 725 626 l 685 368 l 213 368 l 196 264 q 224 106 181 164 q 364 47 267 47 q 498 85 442 47 q 585 188 554 122 l 654 188 q 540 40 619 94 q 354 -14 461 -14 m 222 428 l 624 428 l 636 500 q 610 658 653 600 q 471 717 567 717 q 311 659 374 717 q 233 500 249 601 l 222 428 m 603 903 q 540 922 564 903 q 498 966 515 940 q 463 1010 481 992 q 421 1029 446 1029 q 367 1010 389 1029 q 340 958 346 990 l 333 910 l 278 910 l 285 958 q 333 1050 294 1017 q 431 1083 372 1083 q 494 1065 469 1083 q 535 1020 518 1046 q 569 976 551 994 q 611 957 586 957 q 660 976 640 957 q 685 1028 679 996 l 693 1076 l 749 1076 l 740 1028 q 694 936 731 969 q 603 903 658 903 z "},"ə":{"ha":833,"x_min":107,"x_max":725,"o":"m 351 -14 q 166 62 225 -14 q 126 264 107 138 l 147 396 l 619 396 l 636 500 q 608 658 651 600 q 468 717 565 717 q 335 679 392 717 q 247 576 278 642 l 178 576 q 292 724 214 669 q 478 778 371 778 q 665 703 606 778 q 706 500 725 628 l 668 264 q 564 62 649 138 q 351 -14 479 -14 m 361 47 q 522 105 460 47 q 599 264 583 163 l 610 336 l 208 336 l 196 264 q 223 106 181 164 q 361 47 265 47 z "},"f":{"ha":833,"x_min":0,"x_max":826,"o":"m 0 -250 l 11 -187 l 147 -187 q 233 -158 200 -187 q 275 -76 267 -129 l 390 624 l 135 624 l 144 686 l 400 686 l 425 840 q 494 968 439 922 q 633 1014 549 1014 l 826 1014 l 815 951 l 622 951 q 536 922 569 951 q 494 840 503 893 l 469 686 l 774 686 l 764 624 l 460 624 l 344 -76 q 276 -203 331 -157 q 136 -250 221 -250 l 0 -250 z "},"g":{"ha":833,"x_min":118,"x_max":740,"o":"m 140 -250 l 151 -187 l 353 -187 q 547 -21 522 -187 l 557 42 l 581 196 q 489 93 551 131 q 346 56 426 56 q 175 131 232 56 q 138 332 118 207 l 164 500 q 219 646 178 583 q 322 743 260 708 q 461 778 385 778 q 592 740 542 778 q 651 638 642 703 l 671 764 l 740 764 l 617 -21 q 528 -192 599 -135 q 342 -250 458 -250 l 140 -250 m 369 115 q 526 173 464 115 q 603 332 588 231 l 629 500 q 602 660 644 603 q 465 718 560 718 q 310 660 372 718 q 233 500 249 603 l 207 332 q 234 173 192 231 q 369 115 276 115 z "},"ǵ":{"ha":833,"x_min":118,"x_max":740,"o":"m 140 -250 l 151 -187 l 353 -187 q 547 -21 522 -187 l 557 42 l 581 196 q 489 93 551 131 q 346 56 426 56 q 175 131 232 56 q 138 332 118 207 l 164 500 q 219 646 178 583 q 322 743 260 708 q 461 778 385 778 q 592 740 542 778 q 651 638 642 703 l 671 764 l 740 764 l 617 -21 q 528 -192 599 -135 q 342 -250 458 -250 l 140 -250 m 369 115 q 526 173 464 115 q 603 332 588 231 l 629 500 q 602 660 644 603 q 465 718 560 718 q 310 660 372 718 q 233 500 249 603 l 207 332 q 234 173 192 231 q 369 115 276 115 m 454 896 l 632 1090 l 719 1090 l 533 896 l 454 896 z "},"ğ":{"ha":833,"x_min":118,"x_max":740,"o":"m 140 -250 l 151 -187 l 353 -187 q 547 -21 522 -187 l 557 42 l 581 196 q 489 93 551 131 q 346 56 426 56 q 175 131 232 56 q 138 332 118 207 l 164 500 q 219 646 178 583 q 322 743 260 708 q 461 778 385 778 q 592 740 542 778 q 651 638 642 703 l 671 764 l 740 764 l 617 -21 q 528 -192 599 -135 q 342 -250 458 -250 l 140 -250 m 369 115 q 526 173 464 115 q 603 332 588 231 l 629 500 q 602 660 644 603 q 465 718 560 718 q 310 660 372 718 q 233 500 249 603 l 207 332 q 234 173 192 231 q 369 115 276 115 m 493 893 q 354 947 400 893 q 322 1090 308 1000 l 385 1090 q 406 987 375 1025 q 500 949 436 949 q 609 987 565 949 q 663 1090 653 1025 l 725 1090 q 649 947 711 1000 q 493 893 586 893 z "},"ǧ":{"ha":833,"x_min":118,"x_max":740,"o":"m 140 -250 l 151 -187 l 353 -187 q 547 -21 522 -187 l 557 42 l 581 196 q 489 93 551 131 q 346 56 426 56 q 175 131 232 56 q 138 332 118 207 l 164 500 q 219 646 178 583 q 322 743 260 708 q 461 778 385 778 q 592 740 542 778 q 651 638 642 703 l 671 764 l 740 764 l 617 -21 q 528 -192 599 -135 q 342 -250 458 -250 l 140 -250 m 369 115 q 526 173 464 115 q 603 332 588 231 l 629 500 q 602 660 644 603 q 465 718 560 718 q 310 660 372 718 q 233 500 249 603 l 207 332 q 234 173 192 231 q 369 115 276 115 m 453 896 l 317 1090 l 385 1090 l 501 939 l 664 1090 l 733 1090 l 536 896 l 453 896 z "},"ĝ":{"ha":833,"x_min":118,"x_max":740,"o":"m 140 -250 l 151 -187 l 353 -187 q 547 -21 522 -187 l 557 42 l 581 196 q 489 93 551 131 q 346 56 426 56 q 175 131 232 56 q 138 332 118 207 l 164 500 q 219 646 178 583 q 322 743 260 708 q 461 778 385 778 q 592 740 542 778 q 651 638 642 703 l 671 764 l 740 764 l 617 -21 q 528 -192 599 -135 q 342 -250 458 -250 l 140 -250 m 369 115 q 526 173 464 115 q 603 332 588 231 l 629 500 q 602 660 644 603 q 465 718 560 718 q 310 660 372 718 q 233 500 249 603 l 207 332 q 234 173 192 231 q 369 115 276 115 m 285 896 l 482 1090 l 565 1090 l 701 896 l 636 896 l 519 1047 l 358 896 l 285 896 z "},"ģ":{"ha":833,"x_min":118,"x_max":740,"o":"m 140 -250 l 151 -187 l 353 -187 q 547 -21 522 -187 l 557 42 l 581 196 q 489 93 551 131 q 346 56 426 56 q 175 131 232 56 q 138 332 118 207 l 164 500 q 219 646 178 583 q 322 743 260 708 q 461 778 385 778 q 592 740 542 778 q 651 638 642 703 l 671 764 l 740 764 l 617 -21 q 528 -192 599 -135 q 342 -250 458 -250 l 140 -250 m 369 115 q 526 173 464 115 q 603 332 588 231 l 629 500 q 602 660 644 603 q 465 718 560 718 q 310 660 372 718 q 233 500 249 603 l 207 332 q 234 173 192 231 q 369 115 276 115 m 686 1222 l 503 896 l 407 896 l 618 1222 l 686 1222 z "},"ġ":{"ha":833,"x_min":118,"x_max":740,"o":"m 140 -250 l 151 -187 l 353 -187 q 547 -21 522 -187 l 557 42 l 581 196 q 489 93 551 131 q 346 56 426 56 q 175 131 232 56 q 138 332 118 207 l 164 500 q 219 646 178 583 q 322 743 260 708 q 461 778 385 778 q 592 740 542 778 q 651 638 642 703 l 671 764 l 740 764 l 617 -21 q 528 -192 599 -135 q 342 -250 458 -250 l 140 -250 m 369 115 q 526 173 464 115 q 603 332 588 231 l 629 500 q 602 660 644 603 q 465 718 560 718 q 310 660 372 718 q 233 500 249 603 l 207 332 q 234 173 192 231 q 369 115 276 115 m 494 910 q 440 931 458 910 q 426 986 421 951 q 458 1042 432 1021 q 519 1063 483 1063 q 574 1042 556 1063 q 588 986 593 1021 q 556 931 582 951 q 494 910 531 910 z "},"h":{"ha":833,"x_min":92,"x_max":722,"o":"m 92 0 l 253 1014 l 322 1014 l 289 806 l 264 653 l 269 653 q 361 744 301 711 q 497 778 421 778 q 666 706 610 778 q 703 510 722 633 l 622 0 l 553 0 l 632 500 q 606 660 649 603 q 474 718 564 718 q 319 660 382 718 q 240 500 256 601 l 161 0 l 92 0 z "},"ħ":{"ha":833,"x_min":81,"x_max":710,"o":"m 81 814 l 90 876 l 231 876 l 253 1014 l 322 1014 l 300 876 l 549 876 l 539 814 l 290 814 l 269 681 l 251 569 l 257 569 q 348 661 289 628 q 483 694 407 694 q 653 622 596 694 q 690 426 710 550 l 622 0 l 553 0 l 619 417 q 592 577 635 519 q 460 635 550 635 q 306 576 368 635 q 228 417 243 518 l 161 0 l 92 0 l 221 814 l 81 814 z "},"ĥ":{"ha":833,"x_min":82,"x_max":722,"o":"m 92 0 l 253 1014 l 322 1014 l 289 806 l 264 653 l 269 653 q 361 744 301 711 q 497 778 421 778 q 666 706 610 778 q 703 510 722 633 l 622 0 l 553 0 l 632 500 q 606 660 649 603 q 474 718 564 718 q 319 660 382 718 q 240 500 256 601 l 161 0 l 92 0 m 82 1118 l 279 1313 l 363 1313 l 499 1118 l 433 1118 l 317 1269 l 156 1118 l 82 1118 z "},"i":{"ha":833,"x_min":71,"x_max":692,"o":"m 71 0 l 81 63 l 360 63 l 461 701 l 217 701 l 226 764 l 540 764 l 429 63 l 692 63 l 682 0 l 71 0 m 519 910 q 465 931 483 910 q 451 986 446 951 q 483 1042 457 1021 q 544 1063 508 1063 q 599 1042 581 1063 q 613 986 618 1021 q 581 931 607 951 q 519 910 556 910 z "},"ı":{"ha":833,"x_min":71,"x_max":692,"o":"m 71 0 l 81 63 l 360 63 l 461 701 l 217 701 l 226 764 l 540 764 l 429 63 l 692 63 l 682 0 l 71 0 z "},"í":{"ha":833,"x_min":71,"x_max":744,"o":"m 71 0 l 81 63 l 360 63 l 461 701 l 217 701 l 226 764 l 540 764 l 429 63 l 692 63 l 682 0 l 71 0 m 479 896 l 657 1090 l 744 1090 l 558 896 l 479 896 z "},"ĭ":{"ha":833,"x_min":71,"x_max":750,"o":"m 71 0 l 81 63 l 360 63 l 461 701 l 217 701 l 226 764 l 540 764 l 429 63 l 692 63 l 682 0 l 71 0 m 518 893 q 379 947 425 893 q 347 1090 333 1000 l 410 1090 q 431 987 400 1025 q 525 949 461 949 q 634 987 590 949 q 688 1090 678 1025 l 750 1090 q 674 947 736 1000 q 518 893 611 893 z "},"ǐ":{"ha":833,"x_min":71,"x_max":758,"o":"m 71 0 l 81 63 l 360 63 l 461 701 l 217 701 l 226 764 l 540 764 l 429 63 l 692 63 l 682 0 l 71 0 m 478 896 l 342 1090 l 410 1090 l 526 939 l 689 1090 l 758 1090 l 561 896 l 478 896 z "},"î":{"ha":833,"x_min":71,"x_max":726,"o":"m 71 0 l 81 63 l 360 63 l 461 701 l 217 701 l 226 764 l 540 764 l 429 63 l 692 63 l 682 0 l 71 0 m 310 896 l 507 1090 l 590 1090 l 726 896 l 661 896 l 544 1047 l 383 896 l 310 896 z "},"ï":{"ha":833,"x_min":71,"x_max":760,"o":"m 71 0 l 81 63 l 360 63 l 461 701 l 217 701 l 226 764 l 540 764 l 429 63 l 692 63 l 682 0 l 71 0 m 671 910 q 620 931 638 910 q 608 986 603 951 q 638 1042 615 1021 q 694 1063 661 1063 q 743 1042 726 1063 q 753 986 760 1021 q 725 931 747 951 q 671 910 703 910 m 372 910 q 323 931 340 910 q 311 986 306 951 q 341 1042 318 1021 q 396 1063 364 1063 q 445 1042 428 1063 q 456 986 463 1021 q 427 931 450 951 q 372 910 404 910 z "},"ị":{"ha":833,"x_min":71,"x_max":692,"o":"m 71 0 l 81 63 l 360 63 l 461 701 l 217 701 l 226 764 l 540 764 l 429 63 l 692 63 l 682 0 l 71 0 m 519 910 q 465 931 483 910 q 451 986 446 951 q 483 1042 457 1021 q 544 1063 508 1063 q 599 1042 581 1063 q 613 986 618 1021 q 581 931 607 951 q 519 910 556 910 m 332 -285 q 276 -264 296 -285 q 263 -208 257 -243 q 294 -153 268 -174 q 356 -132 319 -132 q 410 -153 392 -132 q 424 -208 429 -174 q 393 -264 418 -243 q 332 -285 368 -285 z "},"ì":{"ha":833,"x_min":71,"x_max":692,"o":"m 71 0 l 81 63 l 360 63 l 461 701 l 217 701 l 226 764 l 540 764 l 429 63 l 692 63 l 682 0 l 71 0 m 497 896 l 372 1090 l 453 1090 l 569 896 l 497 896 z "},"ỉ":{"ha":833,"x_min":71,"x_max":692,"o":"m 71 0 l 81 63 l 360 63 l 461 701 l 217 701 l 226 764 l 540 764 l 429 63 l 692 63 l 682 0 l 71 0 m 479 896 l 574 1001 q 596 1030 586 1017 q 607 1051 606 1043 q 563 1090 614 1090 l 440 1090 l 449 1139 l 571 1139 q 645 1117 619 1139 q 665 1057 671 1094 q 653 1021 663 1040 q 628 983 643 1001 l 551 896 l 479 896 z "},"ī":{"ha":833,"x_min":71,"x_max":731,"o":"m 71 0 l 81 63 l 360 63 l 461 701 l 217 701 l 226 764 l 540 764 l 429 63 l 692 63 l 682 0 l 71 0 m 332 950 l 342 1010 l 731 1010 l 721 950 l 332 950 z "},"į":{"ha":833,"x_min":71,"x_max":692,"o":"m 519 910 q 465 931 483 910 q 451 986 446 951 q 483 1042 457 1021 q 544 1063 508 1063 q 599 1042 581 1063 q 613 986 618 1021 q 581 931 607 951 q 519 910 556 910 m 71 0 l 81 63 l 360 63 l 461 701 l 217 701 l 226 764 l 540 764 l 429 63 l 692 63 l 682 0 l 406 0 q 331 -76 360 -37 q 299 -143 303 -114 q 309 -194 293 -175 q 358 -212 325 -212 l 447 -212 l 438 -271 l 336 -271 q 251 -241 279 -271 q 231 -160 222 -211 q 269 -78 236 -121 q 351 0 301 -36 l 71 0 z "},"ĩ":{"ha":833,"x_min":71,"x_max":769,"o":"m 71 0 l 81 63 l 360 63 l 461 701 l 217 701 l 226 764 l 540 764 l 429 63 l 692 63 l 682 0 l 71 0 m 624 903 q 560 922 585 903 q 519 966 536 940 q 484 1010 501 992 q 442 1029 467 1029 q 388 1010 410 1029 q 361 958 367 990 l 354 910 l 299 910 l 306 958 q 354 1050 315 1017 q 451 1083 393 1083 q 515 1065 490 1083 q 556 1020 539 1046 q 590 976 572 994 q 632 957 607 957 q 681 976 661 957 q 706 1028 700 996 l 714 1076 l 769 1076 l 761 1028 q 715 936 751 969 q 624 903 679 903 z "},"j":{"ha":833,"x_min":31,"x_max":728,"o":"m 31 -250 l 42 -187 l 229 -187 q 387 -135 328 -187 q 461 14 446 -83 l 569 701 l 222 701 l 232 764 l 649 764 l 531 14 q 428 -180 511 -110 q 218 -250 346 -250 l 31 -250 m 629 910 q 574 931 593 910 q 561 986 556 951 q 592 1042 567 1021 q 654 1063 618 1063 q 709 1042 690 1063 q 722 986 728 1021 q 691 931 717 951 q 629 910 665 910 z "},"ȷ":{"ha":833,"x_min":31,"x_max":649,"o":"m 31 -250 l 42 -187 l 229 -187 q 387 -135 328 -187 q 461 14 446 -83 l 569 701 l 222 701 l 232 764 l 649 764 l 531 14 q 428 -180 511 -110 q 218 -250 346 -250 l 31 -250 z "},"ĵ":{"ha":833,"x_min":31,"x_max":836,"o":"m 31 -250 l 42 -187 l 229 -187 q 387 -135 328 -187 q 461 14 446 -83 l 569 701 l 222 701 l 232 764 l 649 764 l 531 14 q 428 -180 511 -110 q 218 -250 346 -250 l 31 -250 m 419 896 l 617 1090 l 700 1090 l 836 896 l 771 896 l 654 1047 l 493 896 l 419 896 z "},"k":{"ha":833,"x_min":96,"x_max":792,"o":"m 96 0 l 257 1014 l 326 1014 l 233 429 l 415 429 l 707 764 l 792 764 l 471 393 l 676 0 l 596 0 l 408 367 l 224 367 l 165 0 l 96 0 z "},"ķ":{"ha":833,"x_min":96,"x_max":792,"o":"m 96 0 l 257 1014 l 326 1014 l 233 429 l 415 429 l 707 764 l 792 764 l 471 393 l 676 0 l 596 0 l 408 367 l 224 367 l 165 0 l 96 0 m 185 -333 l 342 -132 l 432 -132 l 254 -333 l 185 -333 z "},"ĸ":{"ha":833,"x_min":96,"x_max":792,"o":"m 96 0 l 217 764 l 286 764 l 233 429 l 414 429 l 706 764 l 792 764 l 476 394 l 676 0 l 596 0 l 410 367 l 224 367 l 165 0 l 96 0 z "},"l":{"ha":833,"x_min":158,"x_max":699,"o":"m 446 0 q 310 49 353 0 q 281 188 267 97 l 401 951 l 158 951 l 169 1014 l 482 1014 l 350 188 q 456 63 331 63 l 699 63 l 689 0 l 446 0 z "},"ĺ":{"ha":833,"x_min":158,"x_max":699,"o":"m 446 0 q 310 49 353 0 q 281 188 267 97 l 401 951 l 158 951 l 169 1014 l 482 1014 l 350 188 q 456 63 331 63 l 699 63 l 689 0 l 446 0 m 397 1125 l 575 1319 l 663 1319 l 476 1125 l 397 1125 z "},"ƛ":{"ha":833,"x_min":35,"x_max":753,"o":"m 35 0 l 453 749 l 436 819 l 172 697 l 183 764 l 424 875 l 392 1014 l 471 1014 l 493 907 l 753 1028 l 742 961 l 504 851 l 679 0 l 607 0 l 508 496 q 489 592 499 542 q 474 671 479 642 q 436 592 460 642 q 388 496 413 542 l 117 0 l 35 0 z "},"ľ":{"ha":833,"x_min":158,"x_max":1057,"o":"m 446 0 q 310 49 353 0 q 281 188 267 97 l 401 951 l 158 951 l 169 1014 l 482 1014 l 350 188 q 456 63 331 63 l 699 63 l 689 0 l 446 0 m 933 1014 l 988 1264 l 1057 1264 l 989 1014 l 933 1014 z "},"ļ":{"ha":833,"x_min":158,"x_max":699,"o":"m 446 0 q 310 49 353 0 q 281 188 267 97 l 401 951 l 158 951 l 169 1014 l 482 1014 l 350 188 q 456 63 331 63 l 699 63 l 689 0 l 446 0 m 163 -333 l 319 -132 l 410 -132 l 232 -333 l 163 -333 z "},"ŀ":{"ha":833,"x_min":131,"x_max":867,"o":"m 418 0 q 282 49 325 0 q 253 188 239 97 l 374 951 l 131 951 l 142 1014 l 454 1014 l 322 188 q 428 63 303 63 l 671 63 l 661 0 l 418 0 m 742 368 q 672 397 694 368 q 657 472 650 425 q 696 547 664 519 q 775 574 728 574 q 844 547 822 574 q 860 472 867 519 q 821 397 853 425 q 742 368 789 368 z "},"ł":{"ha":833,"x_min":139,"x_max":699,"o":"m 139 333 l 139 410 l 338 546 l 401 951 l 158 951 l 169 1014 l 482 1014 l 415 600 l 653 764 l 653 688 l 403 515 l 350 188 q 456 63 331 63 l 699 63 l 689 0 l 446 0 q 310 49 353 0 q 281 188 267 97 l 324 461 l 139 333 z "},"m":{"ha":833,"x_min":49,"x_max":771,"o":"m 49 0 l 169 764 l 231 764 l 214 660 l 221 660 q 272 746 233 714 q 368 778 311 778 q 453 747 422 778 q 488 660 485 717 l 494 660 q 545 746 507 714 q 640 778 583 778 q 740 730 710 778 q 757 599 771 682 l 663 0 l 594 0 l 688 590 q 676 685 697 650 q 610 719 656 719 q 526 684 561 719 q 482 590 492 649 l 389 0 l 322 0 l 415 590 q 404 685 425 650 q 338 719 383 719 q 257 685 292 719 q 210 590 222 650 l 117 0 l 49 0 z "},"n":{"ha":833,"x_min":92,"x_max":722,"o":"m 92 0 l 213 764 l 282 764 l 261 633 q 353 739 292 700 q 497 778 415 778 q 666 706 610 778 q 703 510 722 633 l 622 0 l 553 0 l 632 500 q 606 660 649 603 q 474 718 564 718 q 319 660 382 718 q 240 500 256 601 l 161 0 l 92 0 z "},"ń":{"ha":833,"x_min":92,"x_max":725,"o":"m 92 0 l 213 764 l 282 764 l 261 633 q 353 739 292 700 q 497 778 415 778 q 666 706 610 778 q 703 510 722 633 l 622 0 l 553 0 l 632 500 q 606 660 649 603 q 474 718 564 718 q 319 660 382 718 q 240 500 256 601 l 161 0 l 92 0 m 460 896 l 638 1090 l 725 1090 l 539 896 l 460 896 z "},"ŉ":{"ha":833,"x_min":88,"x_max":722,"o":"m 92 0 l 213 764 l 282 764 l 261 633 q 353 739 292 700 q 497 778 415 778 q 666 706 610 778 q 703 510 722 633 l 622 0 l 553 0 l 632 500 q 606 660 649 603 q 474 718 564 718 q 319 660 382 718 q 240 500 256 601 l 161 0 l 92 0 m 88 896 l 244 1097 l 335 1097 l 157 896 l 88 896 z "},"ň":{"ha":833,"x_min":92,"x_max":739,"o":"m 92 0 l 213 764 l 282 764 l 261 633 q 353 739 292 700 q 497 778 415 778 q 666 706 610 778 q 703 510 722 633 l 622 0 l 553 0 l 632 500 q 606 660 649 603 q 474 718 564 718 q 319 660 382 718 q 240 500 256 601 l 161 0 l 92 0 m 458 896 l 322 1090 l 390 1090 l 507 939 l 669 1090 l 739 1090 l 542 896 l 458 896 z "},"ņ":{"ha":833,"x_min":92,"x_max":722,"o":"m 92 0 l 213 764 l 282 764 l 261 633 q 353 739 292 700 q 497 778 415 778 q 666 706 610 778 q 703 510 722 633 l 622 0 l 553 0 l 632 500 q 606 660 649 603 q 474 718 564 718 q 319 660 382 718 q 240 500 256 601 l 161 0 l 92 0 m 185 -333 l 342 -132 l 432 -132 l 254 -333 l 185 -333 z "},"ŋ":{"ha":833,"x_min":92,"x_max":722,"o":"m 239 -250 l 250 -187 l 307 -187 q 474 -132 407 -187 q 556 21 542 -76 l 632 500 q 606 660 649 603 q 474 718 564 718 q 319 660 382 718 q 240 500 256 601 l 161 0 l 92 0 l 213 764 l 282 764 l 261 633 q 353 739 292 700 q 497 778 415 778 q 666 706 610 778 q 703 510 722 633 l 625 21 q 567 -123 613 -62 q 453 -217 522 -183 q 296 -250 383 -250 l 239 -250 z "},"ñ":{"ha":833,"x_min":92,"x_max":750,"o":"m 92 0 l 213 764 l 282 764 l 261 633 q 353 739 292 700 q 497 778 415 778 q 666 706 610 778 q 703 510 722 633 l 622 0 l 553 0 l 632 500 q 606 660 649 603 q 474 718 564 718 q 319 660 382 718 q 240 500 256 601 l 161 0 l 92 0 m 604 903 q 541 922 565 903 q 499 966 517 940 q 465 1010 482 992 q 422 1029 447 1029 q 369 1010 390 1029 q 342 958 347 990 l 335 910 l 279 910 l 286 958 q 335 1050 296 1017 q 432 1083 374 1083 q 495 1065 471 1083 q 536 1020 519 1046 q 570 976 553 994 q 613 957 588 957 q 661 976 642 957 q 686 1028 681 996 l 694 1076 l 750 1076 l 742 1028 q 696 936 732 969 q 604 903 660 903 z "},"o":{"ha":833,"x_min":107,"x_max":725,"o":"m 353 -14 q 169 62 231 -14 q 126 264 107 138 l 164 500 q 221 647 178 585 q 331 743 264 708 q 479 778 397 778 q 664 702 603 778 q 706 500 725 626 l 668 264 q 563 62 649 138 q 353 -14 476 -14 m 363 47 q 520 104 458 47 q 599 264 582 161 l 636 500 q 608 660 653 603 q 469 717 564 717 q 313 660 375 717 q 233 500 250 603 l 196 264 q 223 104 179 161 q 363 47 267 47 z "},"ó":{"ha":833,"x_min":107,"x_max":725,"o":"m 353 -14 q 169 62 231 -14 q 126 264 107 138 l 164 500 q 221 647 178 585 q 331 743 264 708 q 479 778 397 778 q 664 702 603 778 q 706 500 725 626 l 668 264 q 563 62 649 138 q 353 -14 476 -14 m 363 47 q 520 104 458 47 q 599 264 582 161 l 636 500 q 608 660 653 603 q 469 717 564 717 q 313 660 375 717 q 233 500 250 603 l 196 264 q 223 104 179 161 q 363 47 267 47 m 458 896 l 636 1090 l 724 1090 l 538 896 l 458 896 z "},"ŏ":{"ha":833,"x_min":107,"x_max":729,"o":"m 353 -14 q 169 62 231 -14 q 126 264 107 138 l 164 500 q 221 647 178 585 q 331 743 264 708 q 479 778 397 778 q 664 702 603 778 q 706 500 725 626 l 668 264 q 563 62 649 138 q 353 -14 476 -14 m 363 47 q 520 104 458 47 q 599 264 582 161 l 636 500 q 608 660 653 603 q 469 717 564 717 q 313 660 375 717 q 233 500 250 603 l 196 264 q 223 104 179 161 q 363 47 267 47 m 497 893 q 358 947 404 893 q 326 1090 313 1000 l 389 1090 q 410 987 379 1025 q 504 949 440 949 q 613 987 569 949 q 667 1090 657 1025 l 729 1090 q 653 947 715 1000 q 497 893 590 893 z "},"ǒ":{"ha":833,"x_min":107,"x_max":738,"o":"m 353 -14 q 169 62 231 -14 q 126 264 107 138 l 164 500 q 221 647 178 585 q 331 743 264 708 q 479 778 397 778 q 664 702 603 778 q 706 500 725 626 l 668 264 q 563 62 649 138 q 353 -14 476 -14 m 363 47 q 520 104 458 47 q 599 264 582 161 l 636 500 q 608 660 653 603 q 469 717 564 717 q 313 660 375 717 q 233 500 250 603 l 196 264 q 223 104 179 161 q 363 47 267 47 m 457 896 l 321 1090 l 389 1090 l 506 939 l 668 1090 l 738 1090 l 540 896 l 457 896 z "},"ô":{"ha":833,"x_min":107,"x_max":725,"o":"m 353 -14 q 169 62 231 -14 q 126 264 107 138 l 164 500 q 221 647 178 585 q 331 743 264 708 q 479 778 397 778 q 664 702 603 778 q 706 500 725 626 l 668 264 q 563 62 649 138 q 353 -14 476 -14 m 363 47 q 520 104 458 47 q 599 264 582 161 l 636 500 q 608 660 653 603 q 469 717 564 717 q 313 660 375 717 q 233 500 250 603 l 196 264 q 223 104 179 161 q 363 47 267 47 m 289 896 l 486 1090 l 569 1090 l 706 896 l 640 896 l 524 1047 l 363 896 l 289 896 z "},"ố":{"ha":833,"x_min":107,"x_max":942,"o":"m 353 -14 q 169 62 231 -14 q 126 264 107 138 l 164 500 q 221 647 178 585 q 331 743 264 708 q 479 778 397 778 q 664 702 603 778 q 706 500 725 626 l 668 264 q 563 62 649 138 q 353 -14 476 -14 m 363 47 q 520 104 458 47 q 599 264 582 161 l 636 500 q 608 660 653 603 q 469 717 564 717 q 313 660 375 717 q 233 500 250 603 l 196 264 q 223 104 179 161 q 363 47 267 47 m 663 1056 l 853 1250 l 942 1250 l 738 1056 l 663 1056 m 288 896 l 485 1090 l 568 1090 l 704 896 l 639 896 l 522 1047 l 361 896 l 288 896 z "},"ộ":{"ha":833,"x_min":107,"x_max":725,"o":"m 353 -14 q 169 62 231 -14 q 126 264 107 138 l 164 500 q 221 647 178 585 q 331 743 264 708 q 479 778 397 778 q 664 702 603 778 q 706 500 725 626 l 668 264 q 563 62 649 138 q 353 -14 476 -14 m 363 47 q 520 104 458 47 q 599 264 582 161 l 636 500 q 608 660 653 603 q 469 717 564 717 q 313 660 375 717 q 233 500 250 603 l 196 264 q 223 104 179 161 q 363 47 267 47 m 311 -285 q 256 -264 275 -285 q 242 -208 236 -243 q 273 -153 247 -174 q 335 -132 299 -132 q 390 -153 371 -132 q 403 -208 408 -174 q 372 -264 397 -243 q 311 -285 347 -285 m 289 896 l 486 1090 l 569 1090 l 706 896 l 640 896 l 524 1047 l 363 896 l 289 896 z "},"ồ":{"ha":833,"x_min":107,"x_max":793,"o":"m 353 -14 q 169 62 231 -14 q 126 264 107 138 l 164 500 q 221 647 178 585 q 331 743 264 708 q 479 778 397 778 q 664 702 603 778 q 706 500 725 626 l 668 264 q 563 62 649 138 q 353 -14 476 -14 m 363 47 q 520 104 458 47 q 599 264 582 161 l 636 500 q 608 660 653 603 q 469 717 564 717 q 313 660 375 717 q 233 500 250 603 l 196 264 q 223 104 179 161 q 363 47 267 47 m 729 1056 l 581 1250 l 658 1250 l 793 1056 l 729 1056 m 288 896 l 485 1090 l 568 1090 l 704 896 l 639 896 l 522 1047 l 361 896 l 288 896 z "},"ổ":{"ha":833,"x_min":107,"x_max":871,"o":"m 353 -14 q 169 62 231 -14 q 126 264 107 138 l 164 500 q 221 647 178 585 q 331 743 264 708 q 479 778 397 778 q 664 702 603 778 q 706 500 725 626 l 668 264 q 563 62 649 138 q 353 -14 476 -14 m 363 47 q 520 104 458 47 q 599 264 582 161 l 636 500 q 608 660 653 603 q 469 717 564 717 q 313 660 375 717 q 233 500 250 603 l 196 264 q 223 104 179 161 q 363 47 267 47 m 686 1056 l 775 1151 q 804 1201 801 1178 q 767 1238 811 1238 l 664 1238 l 671 1286 l 774 1286 q 846 1265 821 1286 q 865 1207 871 1243 q 821 1126 861 1171 l 756 1056 l 686 1056 m 288 896 l 485 1090 l 568 1090 l 704 896 l 639 896 l 522 1047 l 361 896 l 288 896 z "},"ỗ":{"ha":833,"x_min":107,"x_max":758,"o":"m 353 -14 q 169 62 231 -14 q 126 264 107 138 l 164 500 q 221 647 178 585 q 331 743 264 708 q 479 778 397 778 q 664 702 603 778 q 706 500 725 626 l 668 264 q 563 62 649 138 q 353 -14 476 -14 m 363 47 q 520 104 458 47 q 599 264 582 161 l 636 500 q 608 660 653 603 q 469 717 564 717 q 313 660 375 717 q 233 500 250 603 l 196 264 q 223 104 179 161 q 363 47 267 47 m 631 1132 q 572 1147 593 1132 q 535 1181 550 1161 q 503 1215 521 1200 q 458 1229 486 1229 q 394 1174 403 1229 l 389 1139 l 333 1139 l 339 1174 q 468 1285 356 1285 q 527 1270 506 1285 q 563 1236 549 1256 q 594 1202 578 1217 q 639 1188 611 1188 q 697 1243 689 1188 l 703 1278 l 758 1278 l 753 1243 q 631 1132 736 1132 m 288 896 l 485 1090 l 568 1090 l 704 896 l 640 896 l 524 1047 l 363 896 l 288 896 z "},"ö":{"ha":833,"x_min":107,"x_max":739,"o":"m 353 -14 q 169 62 231 -14 q 126 264 107 138 l 164 500 q 221 647 178 585 q 331 743 264 708 q 479 778 397 778 q 664 702 603 778 q 706 500 725 626 l 668 264 q 563 62 649 138 q 353 -14 476 -14 m 363 47 q 520 104 458 47 q 599 264 582 161 l 636 500 q 608 660 653 603 q 469 717 564 717 q 313 660 375 717 q 233 500 250 603 l 196 264 q 223 104 179 161 q 363 47 267 47 m 650 910 q 599 931 617 910 q 588 986 582 951 q 617 1042 594 1021 q 674 1063 640 1063 q 722 1042 706 1063 q 732 986 739 1021 q 704 931 726 951 q 650 910 682 910 m 351 910 q 302 931 319 910 q 290 986 285 951 q 320 1042 297 1021 q 375 1063 343 1063 q 424 1042 407 1063 q 435 986 442 1021 q 406 931 429 951 q 351 910 383 910 z "},"ọ":{"ha":833,"x_min":107,"x_max":725,"o":"m 353 -14 q 169 62 231 -14 q 126 264 107 138 l 164 500 q 221 647 178 585 q 331 743 264 708 q 479 778 397 778 q 664 702 603 778 q 706 500 725 626 l 668 264 q 563 62 649 138 q 353 -14 476 -14 m 363 47 q 520 104 458 47 q 599 264 582 161 l 636 500 q 608 660 653 603 q 469 717 564 717 q 313 660 375 717 q 233 500 250 603 l 196 264 q 223 104 179 161 q 363 47 267 47 m 311 -285 q 256 -264 275 -285 q 242 -208 236 -243 q 273 -153 247 -174 q 335 -132 299 -132 q 390 -153 371 -132 q 403 -208 408 -174 q 372 -264 397 -243 q 311 -285 347 -285 z "},"ò":{"ha":833,"x_min":107,"x_max":725,"o":"m 353 -14 q 169 62 231 -14 q 126 264 107 138 l 164 500 q 221 647 178 585 q 331 743 264 708 q 479 778 397 778 q 664 702 603 778 q 706 500 725 626 l 668 264 q 563 62 649 138 q 353 -14 476 -14 m 363 47 q 520 104 458 47 q 599 264 582 161 l 636 500 q 608 660 653 603 q 469 717 564 717 q 313 660 375 717 q 233 500 250 603 l 196 264 q 223 104 179 161 q 363 47 267 47 m 476 896 l 351 1090 l 432 1090 l 549 896 l 476 896 z "},"ỏ":{"ha":833,"x_min":107,"x_max":725,"o":"m 353 -14 q 169 62 231 -14 q 126 264 107 138 l 164 500 q 221 647 178 585 q 331 743 264 708 q 479 778 397 778 q 664 702 603 778 q 706 500 725 626 l 668 264 q 563 62 649 138 q 353 -14 476 -14 m 363 47 q 520 104 458 47 q 599 264 582 161 l 636 500 q 608 660 653 603 q 469 717 564 717 q 313 660 375 717 q 233 500 250 603 l 196 264 q 223 104 179 161 q 363 47 267 47 m 458 896 l 553 1001 q 575 1030 565 1017 q 586 1051 585 1043 q 542 1090 593 1090 l 419 1090 l 428 1139 l 550 1139 q 624 1117 599 1139 q 644 1057 650 1094 q 632 1021 642 1040 q 607 983 622 1001 l 531 896 l 458 896 z "},"ơ":{"ha":833,"x_min":107,"x_max":810,"o":"m 353 -14 q 169 62 231 -14 q 126 264 107 138 l 164 500 q 221 647 178 585 q 331 743 264 708 q 479 778 397 778 q 628 736 568 778 l 668 736 q 715 756 696 736 q 740 806 735 775 l 754 889 l 810 889 l 796 806 q 755 724 788 756 q 674 688 722 693 q 706 500 724 614 l 668 264 q 563 62 649 138 q 353 -14 476 -14 m 363 47 q 520 104 458 47 q 599 264 582 161 l 636 500 q 608 660 653 603 q 469 717 564 717 q 313 660 375 717 q 233 500 250 603 l 196 264 q 223 104 179 161 q 363 47 267 47 z "},"ớ":{"ha":833,"x_min":107,"x_max":810,"o":"m 353 -14 q 169 62 231 -14 q 126 264 107 138 l 164 500 q 221 647 178 585 q 331 743 264 708 q 479 778 397 778 q 628 736 568 778 l 668 736 q 715 756 696 736 q 740 806 735 775 l 754 889 l 810 889 l 796 806 q 755 724 788 756 q 674 688 722 693 q 706 500 724 614 l 668 264 q 563 62 649 138 q 353 -14 476 -14 m 363 47 q 520 104 458 47 q 599 264 582 161 l 636 500 q 608 660 653 603 q 469 717 564 717 q 313 660 375 717 q 233 500 250 603 l 196 264 q 223 104 179 161 q 363 47 267 47 m 454 896 l 632 1090 l 719 1090 l 533 896 l 454 896 z "},"ợ":{"ha":833,"x_min":107,"x_max":810,"o":"m 353 -14 q 169 62 231 -14 q 126 264 107 138 l 164 500 q 221 647 178 585 q 331 743 264 708 q 479 778 397 778 q 628 736 568 778 l 668 736 q 715 756 696 736 q 740 806 735 775 l 754 889 l 810 889 l 796 806 q 755 724 788 756 q 674 688 722 693 q 706 500 724 614 l 668 264 q 563 62 649 138 q 353 -14 476 -14 m 363 47 q 520 104 458 47 q 599 264 582 161 l 636 500 q 608 660 653 603 q 469 717 564 717 q 313 660 375 717 q 233 500 250 603 l 196 264 q 223 104 179 161 q 363 47 267 47 m 311 -285 q 256 -264 275 -285 q 242 -208 236 -243 q 273 -153 247 -174 q 335 -132 299 -132 q 390 -153 371 -132 q 403 -208 408 -174 q 372 -264 397 -243 q 311 -285 347 -285 z "},"ờ":{"ha":833,"x_min":107,"x_max":810,"o":"m 353 -14 q 169 62 231 -14 q 126 264 107 138 l 164 500 q 221 647 178 585 q 331 743 264 708 q 479 778 397 778 q 628 736 568 778 l 668 736 q 715 756 696 736 q 740 806 735 775 l 754 889 l 810 889 l 796 806 q 755 724 788 756 q 674 688 722 693 q 706 500 724 614 l 668 264 q 563 62 649 138 q 353 -14 476 -14 m 363 47 q 520 104 458 47 q 599 264 582 161 l 636 500 q 608 660 653 603 q 469 717 564 717 q 313 660 375 717 q 233 500 250 603 l 196 264 q 223 104 179 161 q 363 47 267 47 m 472 896 l 347 1090 l 428 1090 l 544 896 l 472 896 z "},"ở":{"ha":833,"x_min":107,"x_max":810,"o":"m 353 -14 q 169 62 231 -14 q 126 264 107 138 l 164 500 q 221 647 178 585 q 331 743 264 708 q 479 778 397 778 q 628 736 568 778 l 668 736 q 715 756 696 736 q 740 806 735 775 l 754 889 l 810 889 l 796 806 q 755 724 788 756 q 674 688 722 693 q 706 500 724 614 l 668 264 q 563 62 649 138 q 353 -14 476 -14 m 363 47 q 520 104 458 47 q 599 264 582 161 l 636 500 q 608 660 653 603 q 469 717 564 717 q 313 660 375 717 q 233 500 250 603 l 196 264 q 223 104 179 161 q 363 47 267 47 m 454 896 l 549 1001 q 571 1030 561 1017 q 582 1051 581 1043 q 538 1090 589 1090 l 415 1090 l 424 1139 l 546 1139 q 620 1117 594 1139 q 640 1057 646 1094 q 628 1021 638 1040 q 603 983 618 1001 l 526 896 l 454 896 z "},"ỡ":{"ha":833,"x_min":107,"x_max":810,"o":"m 353 -14 q 169 62 231 -14 q 126 264 107 138 l 164 500 q 221 647 178 585 q 331 743 264 708 q 479 778 397 778 q 628 736 568 778 l 668 736 q 715 756 696 736 q 740 806 735 775 l 754 889 l 810 889 l 796 806 q 755 724 788 756 q 674 688 722 693 q 706 500 724 614 l 668 264 q 563 62 649 138 q 353 -14 476 -14 m 363 47 q 520 104 458 47 q 599 264 582 161 l 636 500 q 608 660 653 603 q 469 717 564 717 q 313 660 375 717 q 233 500 250 603 l 196 264 q 223 104 179 161 q 363 47 267 47 m 599 903 q 535 922 560 903 q 494 966 511 940 q 459 1010 476 992 q 417 1029 442 1029 q 363 1010 385 1029 q 336 958 342 990 l 329 910 l 274 910 l 281 958 q 329 1050 290 1017 q 426 1083 368 1083 q 490 1065 465 1083 q 531 1020 514 1046 q 565 976 547 994 q 607 957 582 957 q 656 976 636 957 q 681 1028 675 996 l 689 1076 l 744 1076 l 736 1028 q 690 936 726 969 q 599 903 654 903 z "},"ő":{"ha":833,"x_min":107,"x_max":807,"o":"m 353 -14 q 169 62 231 -14 q 126 264 107 138 l 164 500 q 221 647 178 585 q 331 743 264 708 q 479 778 397 778 q 664 702 603 778 q 706 500 725 626 l 668 264 q 563 62 649 138 q 353 -14 476 -14 m 363 47 q 520 104 458 47 q 599 264 582 161 l 636 500 q 608 660 653 603 q 469 717 564 717 q 313 660 375 717 q 233 500 250 603 l 196 264 q 223 104 179 161 q 363 47 267 47 m 543 896 l 721 1090 l 807 1090 l 621 896 l 543 896 m 322 896 l 500 1090 l 586 1090 l 400 896 l 322 896 z "},"ō":{"ha":833,"x_min":107,"x_max":725,"o":"m 353 -14 q 169 62 231 -14 q 126 264 107 138 l 164 500 q 221 647 178 585 q 331 743 264 708 q 479 778 397 778 q 664 702 603 778 q 706 500 725 626 l 668 264 q 563 62 649 138 q 353 -14 476 -14 m 363 47 q 520 104 458 47 q 599 264 582 161 l 636 500 q 608 660 653 603 q 469 717 564 717 q 313 660 375 717 q 233 500 250 603 l 196 264 q 223 104 179 161 q 363 47 267 47 m 311 950 l 321 1010 l 710 1010 l 700 950 l 311 950 z "},"ǫ":{"ha":833,"x_min":107,"x_max":725,"o":"m 414 -271 q 328 -241 357 -271 q 308 -160 300 -211 q 340 -89 314 -126 q 418 -8 367 -51 q 387 -12 404 -11 q 353 -14 369 -14 q 169 62 231 -14 q 126 264 107 138 l 164 500 q 221 647 178 585 q 331 743 264 708 q 479 778 397 778 q 664 702 603 778 q 706 500 725 626 l 668 264 q 619 129 656 188 q 526 35 582 71 l 483 0 q 409 -76 438 -37 q 376 -143 381 -114 q 387 -194 371 -175 q 436 -212 403 -212 l 525 -212 l 515 -271 l 414 -271 m 363 47 q 520 104 458 47 q 599 264 582 161 l 636 500 q 608 660 653 603 q 469 717 564 717 q 313 660 375 717 q 233 500 250 603 l 196 264 q 223 104 179 161 q 363 47 267 47 z "},"ø":{"ha":833,"x_min":14,"x_max":819,"o":"m 14 -42 l 140 107 q 126 264 113 174 l 164 500 q 221 647 178 585 q 331 743 264 708 q 479 778 397 778 q 656 711 594 778 l 749 819 l 819 819 l 688 665 q 706 500 721 596 l 668 264 q 563 62 649 138 q 353 -14 476 -14 q 171 58 232 -14 l 85 -42 l 14 -42 m 196 264 q 194 171 188 211 l 610 657 q 469 717 567 717 q 313 660 375 717 q 233 500 250 603 l 196 264 m 363 47 q 520 104 458 47 q 599 264 582 161 l 636 500 q 635 603 646 558 l 217 113 q 363 47 258 47 z "},"ǿ":{"ha":833,"x_min":14,"x_max":819,"o":"m 14 -42 l 140 107 q 126 264 113 174 l 164 500 q 221 647 178 585 q 331 743 264 708 q 479 778 397 778 q 656 711 594 778 l 749 819 l 819 819 l 688 665 q 706 500 721 596 l 668 264 q 563 62 649 138 q 353 -14 476 -14 q 171 58 232 -14 l 85 -42 l 14 -42 m 196 264 q 194 171 188 211 l 610 657 q 469 717 567 717 q 313 660 375 717 q 233 500 250 603 l 196 264 m 363 47 q 520 104 458 47 q 599 264 582 161 l 636 500 q 635 603 646 558 l 217 113 q 363 47 258 47 m 458 896 l 636 1090 l 724 1090 l 538 896 l 458 896 z "},"õ":{"ha":833,"x_min":107,"x_max":749,"o":"m 353 -14 q 169 62 231 -14 q 126 264 107 138 l 164 500 q 221 647 178 585 q 331 743 264 708 q 479 778 397 778 q 664 702 603 778 q 706 500 725 626 l 668 264 q 563 62 649 138 q 353 -14 476 -14 m 363 47 q 520 104 458 47 q 599 264 582 161 l 636 500 q 608 660 653 603 q 469 717 564 717 q 313 660 375 717 q 233 500 250 603 l 196 264 q 223 104 179 161 q 363 47 267 47 m 603 903 q 540 922 564 903 q 498 966 515 940 q 463 1010 481 992 q 421 1029 446 1029 q 367 1010 389 1029 q 340 958 346 990 l 333 910 l 278 910 l 285 958 q 333 1050 294 1017 q 431 1083 372 1083 q 494 1065 469 1083 q 535 1020 518 1046 q 569 976 551 994 q 611 957 586 957 q 660 976 640 957 q 685 1028 679 996 l 693 1076 l 749 1076 l 740 1028 q 694 936 731 969 q 603 903 658 903 z "},"œ":{"ha":833,"x_min":4,"x_max":829,"o":"m 178 -14 q 47 42 89 -14 q 18 193 4 99 l 78 567 q 157 720 93 663 q 313 778 221 778 q 399 758 367 778 q 447 712 432 739 q 463 658 463 685 l 465 658 q 501 712 476 685 q 563 758 525 739 q 650 778 601 778 q 785 721 740 778 q 814 569 829 664 l 781 361 l 450 361 l 424 194 q 444 88 414 129 q 533 47 474 47 q 633 83 590 47 q 690 174 676 118 l 760 174 q 676 38 739 89 q 528 -14 613 -14 q 442 5 475 -14 q 394 51 408 24 q 378 104 379 79 l 374 104 q 340 51 365 79 q 275 5 315 24 q 178 -14 235 -14 m 200 47 q 303 88 260 47 q 356 194 346 129 l 415 569 q 397 676 426 635 q 307 717 367 717 q 203 676 247 717 q 149 567 160 635 l 89 193 q 110 88 79 128 q 200 47 140 47 m 461 431 l 722 431 l 744 569 q 726 676 756 635 q 636 717 696 717 q 536 676 578 717 q 483 569 494 635 l 461 431 z "},"p":{"ha":833,"x_min":51,"x_max":725,"o":"m 51 -250 l 213 764 l 282 764 l 265 660 l 269 660 q 363 747 304 715 q 497 778 422 778 q 669 702 613 778 q 706 501 725 626 l 668 264 q 614 118 656 181 q 510 21 572 56 q 371 -14 447 -14 q 248 17 297 -14 q 182 104 199 49 l 178 104 l 161 0 l 121 -250 l 51 -250 m 367 46 q 521 103 460 46 q 599 264 582 161 l 636 501 q 610 661 653 604 q 474 718 567 718 q 319 661 381 718 q 240 501 257 604 l 203 264 q 230 103 186 161 q 367 46 274 46 z "},"þ":{"ha":833,"x_min":53,"x_max":725,"o":"m 53 -250 l 93 0 l 92 0 l 253 1014 l 322 1014 l 289 806 l 265 660 l 271 660 q 364 747 304 715 q 497 778 424 778 q 669 701 613 778 q 706 500 725 625 l 668 263 q 614 117 656 179 q 510 21 572 56 q 371 -14 447 -14 q 248 17 297 -14 q 182 104 199 49 l 178 104 l 174 82 l 175 82 l 122 -250 l 53 -250 m 367 46 q 521 103 460 46 q 599 263 582 161 l 636 500 q 610 660 653 603 q 474 718 567 718 q 318 660 379 718 q 240 500 257 603 l 203 263 q 230 103 186 161 q 367 46 274 46 z "},"q":{"ha":833,"x_min":107,"x_max":740,"o":"m 510 -250 l 543 -42 l 567 104 l 561 104 q 468 17 528 49 q 335 -14 408 -14 q 164 63 221 -14 q 126 264 107 139 l 164 501 q 219 647 178 585 q 322 744 260 710 q 461 778 385 778 q 584 747 535 778 q 650 660 633 715 l 654 660 l 671 764 l 740 764 l 579 -250 l 510 -250 m 358 46 q 515 104 453 46 q 592 264 576 163 l 629 501 q 603 661 646 604 q 465 718 560 718 q 311 661 372 718 q 233 501 250 604 l 196 264 q 223 104 181 163 q 358 46 265 46 z "},"r":{"ha":833,"x_min":115,"x_max":757,"o":"m 115 0 l 236 764 l 306 764 l 289 660 l 296 660 q 385 747 328 717 q 518 778 442 778 q 699 703 640 778 q 738 500 757 628 l 731 458 l 654 458 l 661 500 q 635 660 678 603 q 497 718 592 718 q 342 660 404 718 q 264 500 281 603 l 185 0 l 115 0 z "},"ŕ":{"ha":833,"x_min":115,"x_max":757,"o":"m 115 0 l 236 764 l 306 764 l 289 660 l 296 660 q 385 747 328 717 q 518 778 442 778 q 699 703 640 778 q 738 500 757 628 l 731 458 l 654 458 l 661 500 q 635 660 678 603 q 497 718 592 718 q 342 660 404 718 q 264 500 281 603 l 185 0 l 115 0 m 486 896 l 664 1090 l 751 1090 l 565 896 l 486 896 z "},"ř":{"ha":833,"x_min":115,"x_max":765,"o":"m 115 0 l 236 764 l 306 764 l 289 660 l 296 660 q 385 747 328 717 q 518 778 442 778 q 699 703 640 778 q 738 500 757 628 l 731 458 l 654 458 l 661 500 q 635 660 678 603 q 497 718 592 718 q 342 660 404 718 q 264 500 281 603 l 185 0 l 115 0 m 485 896 l 349 1090 l 417 1090 l 533 939 l 696 1090 l 765 1090 l 568 896 l 485 896 z "},"ŗ":{"ha":833,"x_min":-44,"x_max":757,"o":"m 115 0 l 236 764 l 306 764 l 289 660 l 296 660 q 385 747 328 717 q 518 778 442 778 q 699 703 640 778 q 738 500 757 628 l 731 458 l 654 458 l 661 500 q 635 660 678 603 q 497 718 592 718 q 342 660 404 718 q 264 500 281 603 l 185 0 l 115 0 m -44 -333 l 113 -132 l 203 -132 l 25 -333 l -44 -333 z "},"s":{"ha":833,"x_min":93,"x_max":731,"o":"m 314 -14 q 151 42 210 -14 q 97 188 93 99 l 167 188 q 210 88 168 128 q 325 49 253 49 l 418 49 q 545 88 494 49 q 606 194 596 128 q 586 297 615 254 q 497 347 557 339 l 353 368 q 212 434 258 382 q 179 571 165 486 q 269 722 194 665 q 454 778 344 778 l 513 778 q 674 726 617 778 q 728 590 731 675 l 658 590 q 618 680 660 644 q 503 715 576 715 l 444 715 q 313 676 367 715 q 250 572 260 638 q 375 433 233 454 l 517 413 q 647 341 604 400 q 676 194 690 282 q 588 42 661 99 q 407 -14 515 -14 l 314 -14 z "},"ś":{"ha":833,"x_min":93,"x_max":731,"o":"m 314 -14 q 151 42 210 -14 q 97 188 93 99 l 167 188 q 210 88 168 128 q 325 49 253 49 l 418 49 q 545 88 494 49 q 606 194 596 128 q 586 297 615 254 q 497 347 557 339 l 353 368 q 212 434 258 382 q 179 571 165 486 q 269 722 194 665 q 454 778 344 778 l 513 778 q 674 726 617 778 q 728 590 731 675 l 658 590 q 618 680 660 644 q 503 715 576 715 l 444 715 q 313 676 367 715 q 250 572 260 638 q 375 433 233 454 l 517 413 q 647 341 604 400 q 676 194 690 282 q 588 42 661 99 q 407 -14 515 -14 l 314 -14 m 464 896 l 642 1090 l 729 1090 l 543 896 l 464 896 z "},"š":{"ha":833,"x_min":93,"x_max":743,"o":"m 314 -14 q 151 42 210 -14 q 97 188 93 99 l 167 188 q 210 88 168 128 q 325 49 253 49 l 418 49 q 545 88 494 49 q 606 194 596 128 q 586 297 615 254 q 497 347 557 339 l 353 368 q 212 434 258 382 q 179 571 165 486 q 269 722 194 665 q 454 778 344 778 l 513 778 q 674 726 617 778 q 728 590 731 675 l 658 590 q 618 680 660 644 q 503 715 576 715 l 444 715 q 313 676 367 715 q 250 572 260 638 q 375 433 233 454 l 517 413 q 647 341 604 400 q 676 194 690 282 q 588 42 661 99 q 407 -14 515 -14 l 314 -14 m 463 896 l 326 1090 l 394 1090 l 511 939 l 674 1090 l 743 1090 l 546 896 l 463 896 z "},"ş":{"ha":833,"x_min":93,"x_max":731,"o":"m 314 -14 q 151 42 210 -14 q 97 188 93 99 l 167 188 q 210 88 168 128 q 325 49 253 49 l 418 49 q 545 88 494 49 q 606 194 596 128 q 586 297 615 254 q 497 347 557 339 l 353 368 q 212 434 258 382 q 179 571 165 486 q 269 722 194 665 q 454 778 344 778 l 513 778 q 674 726 617 778 q 728 590 731 675 l 658 590 q 618 680 660 644 q 503 715 576 715 l 444 715 q 313 676 367 715 q 250 572 260 638 q 375 433 233 454 l 517 413 q 647 341 604 400 q 676 194 690 282 q 588 42 661 99 q 407 -14 515 -14 l 389 -47 q 456 -61 422 -49 q 510 -99 489 -74 q 524 -164 531 -124 q 474 -240 517 -208 q 368 -271 431 -271 l 257 -271 l 265 -222 l 376 -222 q 433 -204 410 -222 q 460 -164 457 -186 q 424 -110 465 -131 q 308 -89 382 -89 l 349 -14 l 314 -14 z "},"ŝ":{"ha":833,"x_min":93,"x_max":731,"o":"m 314 -14 q 151 42 210 -14 q 97 188 93 99 l 167 188 q 210 88 168 128 q 325 49 253 49 l 418 49 q 545 88 494 49 q 606 194 596 128 q 586 297 615 254 q 497 347 557 339 l 353 368 q 212 434 258 382 q 179 571 165 486 q 269 722 194 665 q 454 778 344 778 l 513 778 q 674 726 617 778 q 728 590 731 675 l 658 590 q 618 680 660 644 q 503 715 576 715 l 444 715 q 313 676 367 715 q 250 572 260 638 q 375 433 233 454 l 517 413 q 647 341 604 400 q 676 194 690 282 q 588 42 661 99 q 407 -14 515 -14 l 314 -14 m 294 896 l 492 1090 l 575 1090 l 711 896 l 646 896 l 529 1047 l 368 896 l 294 896 z "},"ș":{"ha":833,"x_min":93,"x_max":731,"o":"m 314 -14 q 151 42 210 -14 q 97 188 93 99 l 167 188 q 210 88 168 128 q 325 49 253 49 l 418 49 q 545 88 494 49 q 606 194 596 128 q 586 297 615 254 q 497 347 557 339 l 353 368 q 212 434 258 382 q 179 571 165 486 q 269 722 194 665 q 454 778 344 778 l 513 778 q 674 726 617 778 q 728 590 731 675 l 658 590 q 618 680 660 644 q 503 715 576 715 l 444 715 q 313 676 367 715 q 250 572 260 638 q 375 433 233 454 l 517 413 q 647 341 604 400 q 676 194 690 282 q 588 42 661 99 q 407 -14 515 -14 l 314 -14 m 192 -333 l 349 -132 l 439 -132 l 261 -333 l 192 -333 z "},"ß":{"ha":833,"x_min":-183,"x_max":774,"o":"m -183 -250 l -172 -187 l -49 -187 q 38 -158 4 -187 q 79 -76 71 -129 l 211 754 q 268 898 225 836 q 378 994 311 960 q 525 1028 444 1028 q 713 956 653 1028 q 754 764 774 885 q 685 607 739 672 q 556 522 632 542 q 676 444 638 506 q 700 289 715 383 q 590 78 679 156 q 363 0 500 0 l 276 0 l 286 63 l 372 63 q 547 119 482 63 q 629 278 613 176 q 597 434 644 379 q 440 489 550 489 l 385 489 l 394 551 l 450 551 q 606 608 543 551 q 683 757 669 665 q 655 909 699 853 q 515 965 611 965 q 360 908 424 965 q 281 754 296 850 l 149 -76 q 81 -203 136 -157 q -60 -250 25 -250 l -183 -250 z "},"ſ":{"ha":833,"x_min":-36,"x_max":826,"o":"m -36 -250 l -25 -187 l 132 -187 q 218 -158 185 -187 q 260 -76 251 -129 l 406 840 q 474 968 419 922 q 614 1014 529 1014 l 826 1014 l 815 951 l 603 951 q 517 922 550 951 q 475 840 483 893 l 329 -76 q 261 -203 317 -157 q 121 -250 206 -250 l -36 -250 z "},"t":{"ha":833,"x_min":147,"x_max":761,"o":"m 439 0 q 312 44 351 0 q 286 174 272 89 l 369 701 l 147 701 l 157 764 l 379 764 l 413 972 l 482 972 l 449 764 l 761 764 l 751 701 l 439 701 l 356 174 q 449 63 339 63 l 636 63 l 626 0 l 439 0 z "},"ŧ":{"ha":833,"x_min":126,"x_max":761,"o":"m 126 363 l 136 422 l 325 422 l 369 701 l 147 701 l 157 764 l 379 764 l 413 972 l 482 972 l 449 764 l 761 764 l 751 701 l 439 701 l 394 422 l 651 422 l 642 363 l 385 363 l 356 174 q 449 63 339 63 l 636 63 l 626 0 l 439 0 q 312 44 351 0 q 286 174 272 89 l 315 363 l 126 363 z "},"ť":{"ha":833,"x_min":147,"x_max":856,"o":"m 614 861 l 760 1078 l 856 1078 l 682 861 l 614 861 m 439 0 q 312 44 351 0 q 286 174 272 89 l 369 701 l 147 701 l 157 764 l 379 764 l 413 972 l 482 972 l 449 764 l 761 764 l 751 701 l 439 701 l 356 174 q 449 63 339 63 l 636 63 l 626 0 l 439 0 z "},"ţ":{"ha":833,"x_min":147,"x_max":761,"o":"m 375 -271 l 375 -222 l 486 -222 q 540 -204 519 -222 q 561 -164 561 -186 q 516 -110 561 -131 q 397 -89 471 -89 l 432 0 q 310 46 349 1 q 286 174 272 90 l 369 701 l 147 701 l 157 764 l 379 764 l 413 972 l 482 972 l 449 764 l 761 764 l 751 701 l 439 701 l 356 174 q 449 63 339 63 l 636 63 l 626 0 l 490 0 l 472 -47 q 541 -61 506 -49 q 601 -99 576 -74 q 625 -164 625 -124 q 587 -240 625 -208 q 486 -271 549 -271 l 375 -271 z "},"ț":{"ha":833,"x_min":147,"x_max":761,"o":"m 439 0 q 312 44 351 0 q 286 174 272 89 l 369 701 l 147 701 l 157 764 l 379 764 l 413 972 l 482 972 l 449 764 l 761 764 l 751 701 l 439 701 l 356 174 q 449 63 339 63 l 636 63 l 626 0 l 439 0 m 268 -333 l 425 -132 l 515 -132 l 338 -333 l 268 -333 z "},"u":{"ha":833,"x_min":111,"x_max":743,"o":"m 351 -14 q 169 62 228 -14 q 132 269 111 138 l 210 764 l 279 764 l 201 269 q 228 107 185 165 q 363 49 271 49 q 517 107 456 49 q 596 269 579 165 l 674 764 l 743 764 l 665 269 q 560 63 644 139 q 351 -14 476 -14 z "},"ú":{"ha":833,"x_min":111,"x_max":743,"o":"m 351 -14 q 169 62 228 -14 q 132 269 111 138 l 210 764 l 279 764 l 201 269 q 228 107 185 165 q 363 49 271 49 q 517 107 456 49 q 596 269 579 165 l 674 764 l 743 764 l 665 269 q 560 63 644 139 q 351 -14 476 -14 m 458 896 l 636 1090 l 724 1090 l 538 896 l 458 896 z "},"ŭ":{"ha":833,"x_min":111,"x_max":743,"o":"m 351 -14 q 169 62 228 -14 q 132 269 111 138 l 210 764 l 279 764 l 201 269 q 228 107 185 165 q 363 49 271 49 q 517 107 456 49 q 596 269 579 165 l 674 764 l 743 764 l 665 269 q 560 63 644 139 q 351 -14 476 -14 m 497 893 q 358 947 404 893 q 326 1090 313 1000 l 389 1090 q 410 987 379 1025 q 504 949 440 949 q 613 987 569 949 q 667 1090 657 1025 l 729 1090 q 653 947 715 1000 q 497 893 590 893 z "},"ǔ":{"ha":833,"x_min":111,"x_max":743,"o":"m 351 -14 q 169 62 228 -14 q 132 269 111 138 l 210 764 l 279 764 l 201 269 q 228 107 185 165 q 363 49 271 49 q 517 107 456 49 q 596 269 579 165 l 674 764 l 743 764 l 665 269 q 560 63 644 139 q 351 -14 476 -14 m 457 896 l 321 1090 l 389 1090 l 506 939 l 668 1090 l 738 1090 l 540 896 l 457 896 z "},"û":{"ha":833,"x_min":111,"x_max":743,"o":"m 351 -14 q 169 62 228 -14 q 132 269 111 138 l 210 764 l 279 764 l 201 269 q 228 107 185 165 q 363 49 271 49 q 517 107 456 49 q 596 269 579 165 l 674 764 l 743 764 l 665 269 q 560 63 644 139 q 351 -14 476 -14 m 289 896 l 486 1090 l 569 1090 l 706 896 l 640 896 l 524 1047 l 363 896 l 289 896 z "},"ü":{"ha":833,"x_min":111,"x_max":743,"o":"m 351 -14 q 169 62 228 -14 q 132 269 111 138 l 210 764 l 279 764 l 201 269 q 228 107 185 165 q 363 49 271 49 q 517 107 456 49 q 596 269 579 165 l 674 764 l 743 764 l 665 269 q 560 63 644 139 q 351 -14 476 -14 m 650 910 q 599 931 617 910 q 588 986 582 951 q 617 1042 594 1021 q 674 1063 640 1063 q 722 1042 706 1063 q 732 986 739 1021 q 704 931 726 951 q 650 910 682 910 m 351 910 q 302 931 319 910 q 290 986 285 951 q 320 1042 297 1021 q 375 1063 343 1063 q 424 1042 407 1063 q 435 986 442 1021 q 406 931 429 951 q 351 910 383 910 z "},"ǘ":{"ha":833,"x_min":111,"x_max":771,"o":"m 351 -14 q 169 62 228 -14 q 132 269 111 138 l 210 764 l 279 764 l 201 269 q 228 107 185 165 q 363 49 271 49 q 517 107 456 49 q 596 269 579 165 l 674 764 l 743 764 l 665 269 q 560 63 644 139 q 351 -14 476 -14 m 650 910 q 599 931 617 910 q 588 986 582 951 q 617 1042 594 1021 q 674 1063 640 1063 q 722 1042 706 1063 q 732 986 739 1021 q 704 931 726 951 q 650 910 682 910 m 351 910 q 302 931 319 910 q 290 986 285 951 q 320 1042 297 1021 q 375 1063 343 1063 q 424 1042 407 1063 q 435 986 442 1021 q 406 931 429 951 q 351 910 383 910 m 506 1194 l 683 1389 l 771 1389 l 585 1194 l 506 1194 z "},"ǚ":{"ha":833,"x_min":111,"x_max":785,"o":"m 351 -14 q 169 62 228 -14 q 132 269 111 138 l 210 764 l 279 764 l 201 269 q 228 107 185 165 q 363 49 271 49 q 517 107 456 49 q 596 269 579 165 l 674 764 l 743 764 l 665 269 q 560 63 644 139 q 351 -14 476 -14 m 650 910 q 599 931 617 910 q 588 986 582 951 q 617 1042 594 1021 q 674 1063 640 1063 q 722 1042 706 1063 q 732 986 739 1021 q 704 931 726 951 q 650 910 682 910 m 351 910 q 302 931 319 910 q 290 986 285 951 q 320 1042 297 1021 q 375 1063 343 1063 q 424 1042 407 1063 q 435 986 442 1021 q 406 931 429 951 q 351 910 383 910 m 504 1194 l 368 1389 l 436 1389 l 553 1238 l 715 1389 l 785 1389 l 588 1194 l 504 1194 z "},"ǜ":{"ha":833,"x_min":111,"x_max":743,"o":"m 351 -14 q 169 62 228 -14 q 132 269 111 138 l 210 764 l 279 764 l 201 269 q 228 107 185 165 q 363 49 271 49 q 517 107 456 49 q 596 269 579 165 l 674 764 l 743 764 l 665 269 q 560 63 644 139 q 351 -14 476 -14 m 650 910 q 599 931 617 910 q 588 986 582 951 q 617 1042 594 1021 q 674 1063 640 1063 q 722 1042 706 1063 q 732 986 739 1021 q 704 931 726 951 q 650 910 682 910 m 351 910 q 302 931 319 910 q 290 986 285 951 q 320 1042 297 1021 q 375 1063 343 1063 q 424 1042 407 1063 q 435 986 442 1021 q 406 931 429 951 q 351 910 383 910 m 524 1194 l 399 1389 l 479 1389 l 596 1194 l 524 1194 z "},"ǖ":{"ha":833,"x_min":111,"x_max":757,"o":"m 351 -14 q 169 62 228 -14 q 132 269 111 138 l 210 764 l 279 764 l 201 269 q 228 107 185 165 q 363 49 271 49 q 517 107 456 49 q 596 269 579 165 l 674 764 l 743 764 l 665 269 q 560 63 644 139 q 351 -14 476 -14 m 650 910 q 599 931 617 910 q 588 986 582 951 q 617 1042 594 1021 q 674 1063 640 1063 q 722 1042 706 1063 q 732 986 739 1021 q 704 931 726 951 q 650 910 682 910 m 351 910 q 302 931 319 910 q 290 986 285 951 q 320 1042 297 1021 q 375 1063 343 1063 q 424 1042 407 1063 q 435 986 442 1021 q 406 931 429 951 q 351 910 383 910 m 358 1249 l 368 1308 l 757 1308 l 747 1249 l 358 1249 z "},"ụ":{"ha":833,"x_min":111,"x_max":743,"o":"m 351 -14 q 169 62 228 -14 q 132 269 111 138 l 210 764 l 279 764 l 201 269 q 228 107 185 165 q 363 49 271 49 q 517 107 456 49 q 596 269 579 165 l 674 764 l 743 764 l 665 269 q 560 63 644 139 q 351 -14 476 -14 m 311 -285 q 256 -264 275 -285 q 242 -208 236 -243 q 273 -153 247 -174 q 335 -132 299 -132 q 390 -153 371 -132 q 403 -208 408 -174 q 372 -264 397 -243 q 311 -285 347 -285 z "},"ù":{"ha":833,"x_min":111,"x_max":743,"o":"m 351 -14 q 169 62 228 -14 q 132 269 111 138 l 210 764 l 279 764 l 201 269 q 228 107 185 165 q 363 49 271 49 q 517 107 456 49 q 596 269 579 165 l 674 764 l 743 764 l 665 269 q 560 63 644 139 q 351 -14 476 -14 m 476 896 l 351 1090 l 432 1090 l 549 896 l 476 896 z "},"ủ":{"ha":833,"x_min":111,"x_max":743,"o":"m 351 -14 q 169 62 228 -14 q 132 269 111 138 l 210 764 l 279 764 l 201 269 q 228 107 185 165 q 363 49 271 49 q 517 107 456 49 q 596 269 579 165 l 674 764 l 743 764 l 665 269 q 560 63 644 139 q 351 -14 476 -14 m 458 896 l 553 1001 q 575 1030 565 1017 q 586 1051 585 1043 q 542 1090 593 1090 l 419 1090 l 428 1139 l 550 1139 q 624 1117 599 1139 q 644 1057 650 1094 q 632 1021 642 1040 q 607 983 622 1001 l 531 896 l 458 896 z "},"ư":{"ha":833,"x_min":111,"x_max":885,"o":"m 132 269 l 210 764 l 279 764 l 201 269 q 228 107 185 165 q 363 49 271 49 q 517 107 456 49 q 596 269 579 165 l 674 764 l 742 764 q 790 783 769 764 q 815 833 810 803 l 829 917 l 885 917 l 871 833 q 826 748 863 781 q 736 715 789 715 l 665 269 q 560 63 644 139 q 351 -14 476 -14 q 169 62 228 -14 q 132 269 111 138 z "},"ứ":{"ha":833,"x_min":111,"x_max":885,"o":"m 132 269 l 210 764 l 279 764 l 201 269 q 228 107 185 165 q 363 49 271 49 q 517 107 456 49 q 596 269 579 165 l 674 764 l 742 764 q 790 783 769 764 q 815 833 810 803 l 829 917 l 885 917 l 871 833 q 826 748 863 781 q 736 715 789 715 l 665 269 q 560 63 644 139 q 351 -14 476 -14 q 169 62 228 -14 q 132 269 111 138 m 458 896 l 636 1090 l 724 1090 l 538 896 l 458 896 z "},"ự":{"ha":833,"x_min":111,"x_max":885,"o":"m 132 269 l 210 764 l 279 764 l 201 269 q 228 107 185 165 q 363 49 271 49 q 517 107 456 49 q 596 269 579 165 l 674 764 l 742 764 q 790 783 769 764 q 815 833 810 803 l 829 917 l 885 917 l 871 833 q 826 748 863 781 q 736 715 789 715 l 665 269 q 560 63 644 139 q 351 -14 476 -14 q 169 62 228 -14 q 132 269 111 138 m 310 -285 q 254 -264 274 -285 q 240 -208 235 -243 q 272 -153 246 -174 q 333 -132 297 -132 q 388 -153 369 -132 q 401 -208 407 -174 q 371 -264 396 -243 q 310 -285 346 -285 z "},"ừ":{"ha":833,"x_min":111,"x_max":885,"o":"m 132 269 l 210 764 l 279 764 l 201 269 q 228 107 185 165 q 363 49 271 49 q 517 107 456 49 q 596 269 579 165 l 674 764 l 742 764 q 790 783 769 764 q 815 833 810 803 l 829 917 l 885 917 l 871 833 q 826 748 863 781 q 736 715 789 715 l 665 269 q 560 63 644 139 q 351 -14 476 -14 q 169 62 228 -14 q 132 269 111 138 m 476 896 l 351 1090 l 432 1090 l 549 896 l 476 896 z "},"ử":{"ha":833,"x_min":111,"x_max":885,"o":"m 132 269 l 210 764 l 279 764 l 201 269 q 228 107 185 165 q 363 49 271 49 q 517 107 456 49 q 596 269 579 165 l 674 764 l 742 764 q 790 783 769 764 q 815 833 810 803 l 829 917 l 885 917 l 871 833 q 826 748 863 781 q 736 715 789 715 l 665 269 q 560 63 644 139 q 351 -14 476 -14 q 169 62 228 -14 q 132 269 111 138 m 458 896 l 553 1001 q 575 1030 565 1017 q 586 1051 585 1043 q 542 1090 593 1090 l 419 1090 l 428 1139 l 550 1139 q 624 1117 599 1139 q 644 1057 650 1094 q 632 1021 642 1040 q 607 983 622 1001 l 531 896 l 458 896 z "},"ữ":{"ha":833,"x_min":111,"x_max":885,"o":"m 132 269 l 210 764 l 279 764 l 201 269 q 228 107 185 165 q 363 49 271 49 q 517 107 456 49 q 596 269 579 165 l 674 764 l 742 764 q 790 783 769 764 q 815 833 810 803 l 829 917 l 885 917 l 871 833 q 826 748 863 781 q 736 715 789 715 l 665 269 q 560 63 644 139 q 351 -14 476 -14 q 169 62 228 -14 q 132 269 111 138 m 603 903 q 540 922 564 903 q 498 966 515 940 q 463 1010 481 992 q 421 1029 446 1029 q 367 1010 389 1029 q 340 958 346 990 l 333 910 l 278 910 l 285 958 q 333 1050 294 1017 q 431 1083 372 1083 q 494 1065 469 1083 q 535 1020 518 1046 q 569 976 551 994 q 611 957 586 957 q 660 976 640 957 q 685 1028 679 996 l 693 1076 l 749 1076 l 740 1028 q 694 936 731 969 q 603 903 658 903 z "},"ű":{"ha":833,"x_min":111,"x_max":807,"o":"m 351 -14 q 169 62 228 -14 q 132 269 111 138 l 210 764 l 279 764 l 201 269 q 228 107 185 165 q 363 49 271 49 q 517 107 456 49 q 596 269 579 165 l 674 764 l 743 764 l 665 269 q 560 63 644 139 q 351 -14 476 -14 m 543 896 l 721 1090 l 807 1090 l 621 896 l 543 896 m 322 896 l 500 1090 l 586 1090 l 400 896 l 322 896 z "},"ū":{"ha":833,"x_min":111,"x_max":743,"o":"m 351 -14 q 169 62 228 -14 q 132 269 111 138 l 210 764 l 279 764 l 201 269 q 228 107 185 165 q 363 49 271 49 q 517 107 456 49 q 596 269 579 165 l 674 764 l 743 764 l 665 269 q 560 63 644 139 q 351 -14 476 -14 m 311 950 l 321 1010 l 710 1010 l 700 950 l 311 950 z "},"ų":{"ha":833,"x_min":111,"x_max":743,"o":"m 414 -271 q 328 -241 357 -271 q 308 -160 300 -211 q 340 -89 314 -126 q 418 -8 367 -51 q 387 -12 404 -11 q 353 -14 369 -14 q 171 62 231 -14 q 131 264 111 138 l 210 764 l 279 764 l 200 264 q 225 104 183 161 q 363 47 267 47 q 518 104 458 47 q 594 264 578 161 l 674 764 l 743 764 l 664 264 q 526 35 639 107 l 483 0 q 409 -76 438 -37 q 376 -143 381 -114 q 387 -194 371 -175 q 436 -212 403 -212 l 525 -212 l 515 -271 l 414 -271 z "},"ů":{"ha":833,"x_min":111,"x_max":743,"o":"m 351 -14 q 169 62 228 -14 q 132 269 111 138 l 210 764 l 279 764 l 201 269 q 228 107 185 165 q 363 49 271 49 q 517 107 456 49 q 596 269 579 165 l 674 764 l 743 764 l 665 269 q 560 63 644 139 q 351 -14 476 -14 m 492 854 q 392 892 426 854 q 367 993 357 931 q 424 1094 378 1056 q 536 1132 471 1132 q 635 1094 601 1132 q 658 993 669 1056 q 603 892 649 931 q 492 854 557 854 m 499 903 q 568 928 539 903 q 603 993 597 953 q 589 1058 610 1033 q 528 1083 568 1083 q 458 1058 488 1083 q 422 993 429 1033 q 438 928 417 953 q 499 903 458 903 z "},"ũ":{"ha":833,"x_min":111,"x_max":749,"o":"m 351 -14 q 169 62 228 -14 q 132 269 111 138 l 210 764 l 279 764 l 201 269 q 228 107 185 165 q 363 49 271 49 q 517 107 456 49 q 596 269 579 165 l 674 764 l 743 764 l 665 269 q 560 63 644 139 q 351 -14 476 -14 m 603 903 q 540 922 564 903 q 498 966 515 940 q 463 1010 481 992 q 421 1029 446 1029 q 367 1010 389 1029 q 340 958 346 990 l 333 910 l 278 910 l 285 958 q 333 1050 294 1017 q 431 1083 372 1083 q 494 1065 469 1083 q 535 1020 518 1046 q 569 976 551 994 q 611 957 586 957 q 660 976 640 957 q 685 1028 679 996 l 693 1076 l 749 1076 l 740 1028 q 694 936 731 969 q 603 903 658 903 z "},"v":{"ha":833,"x_min":165,"x_max":788,"o":"m 313 0 l 165 764 l 233 764 l 338 194 q 351 116 344 157 q 361 51 358 75 q 391 116 372 75 q 429 194 410 157 l 713 764 l 788 764 l 399 0 l 313 0 z "},"w":{"ha":833,"x_min":129,"x_max":824,"o":"m 138 0 l 129 764 l 193 764 l 197 196 q 197 122 197 165 q 194 49 196 78 q 215 121 201 78 q 239 194 229 164 l 440 764 l 511 764 l 532 194 q 533 121 533 164 q 532 49 533 78 q 551 122 539 78 q 572 196 563 165 l 757 764 l 824 764 l 572 0 l 481 0 l 471 543 q 469 627 469 581 q 468 704 469 674 q 443 627 458 674 q 415 543 428 581 l 229 0 l 138 0 z "},"ẃ":{"ha":833,"x_min":129,"x_max":824,"o":"m 138 0 l 129 764 l 193 764 l 197 196 q 197 122 197 165 q 194 49 196 78 q 215 121 201 78 q 239 194 229 164 l 440 764 l 511 764 l 532 194 q 533 121 533 164 q 532 49 533 78 q 551 122 539 78 q 572 196 563 165 l 757 764 l 824 764 l 572 0 l 481 0 l 471 543 q 469 627 469 581 q 468 704 469 674 q 443 627 458 674 q 415 543 428 581 l 229 0 l 138 0 m 458 896 l 636 1090 l 724 1090 l 538 896 l 458 896 z "},"ŵ":{"ha":833,"x_min":129,"x_max":824,"o":"m 138 0 l 129 764 l 193 764 l 197 196 q 197 122 197 165 q 194 49 196 78 q 215 121 201 78 q 239 194 229 164 l 440 764 l 511 764 l 532 194 q 533 121 533 164 q 532 49 533 78 q 551 122 539 78 q 572 196 563 165 l 757 764 l 824 764 l 572 0 l 481 0 l 471 543 q 469 627 469 581 q 468 704 469 674 q 443 627 458 674 q 415 543 428 581 l 229 0 l 138 0 m 289 896 l 486 1090 l 569 1090 l 706 896 l 640 896 l 524 1047 l 363 896 l 289 896 z "},"ẅ":{"ha":833,"x_min":129,"x_max":824,"o":"m 138 0 l 129 764 l 193 764 l 197 196 q 197 122 197 165 q 194 49 196 78 q 215 121 201 78 q 239 194 229 164 l 440 764 l 511 764 l 532 194 q 533 121 533 164 q 532 49 533 78 q 551 122 539 78 q 572 196 563 165 l 757 764 l 824 764 l 572 0 l 481 0 l 471 543 q 469 627 469 581 q 468 704 469 674 q 443 627 458 674 q 415 543 428 581 l 229 0 l 138 0 m 650 910 q 599 931 617 910 q 588 986 582 951 q 617 1042 594 1021 q 674 1063 640 1063 q 722 1042 706 1063 q 732 986 739 1021 q 704 931 726 951 q 650 910 682 910 m 351 910 q 302 931 319 910 q 290 986 285 951 q 320 1042 297 1021 q 375 1063 343 1063 q 424 1042 407 1063 q 435 986 442 1021 q 406 931 429 951 q 351 910 383 910 z "},"ẁ":{"ha":833,"x_min":129,"x_max":824,"o":"m 138 0 l 129 764 l 193 764 l 197 196 q 197 122 197 165 q 194 49 196 78 q 215 121 201 78 q 239 194 229 164 l 440 764 l 511 764 l 532 194 q 533 121 533 164 q 532 49 533 78 q 551 122 539 78 q 572 196 563 165 l 757 764 l 824 764 l 572 0 l 481 0 l 471 543 q 469 627 469 581 q 468 704 469 674 q 443 627 458 674 q 415 543 428 581 l 229 0 l 138 0 m 476 896 l 351 1090 l 432 1090 l 549 896 l 476 896 z "},"x":{"ha":833,"x_min":43,"x_max":774,"o":"m 43 0 l 379 393 l 181 764 l 258 764 l 400 486 q 413 461 407 475 q 425 438 419 447 q 443 462 432 447 q 463 486 454 476 l 689 764 l 774 764 l 458 390 l 668 0 l 592 0 l 440 292 q 426 319 435 304 q 411 344 417 335 q 392 319 404 335 q 368 292 379 304 l 126 0 l 43 0 z "},"y":{"ha":833,"x_min":111,"x_max":731,"o":"m 131 -250 l 142 -187 l 343 -187 q 538 -21 510 -187 l 551 69 l 572 200 q 480 94 542 133 q 336 56 418 56 q 167 128 224 56 q 131 324 111 201 l 200 764 l 269 764 l 201 333 q 228 173 185 231 q 360 115 271 115 q 515 174 451 115 q 593 333 578 232 l 661 764 l 731 764 l 607 -21 q 332 -250 569 -250 l 131 -250 z "},"ý":{"ha":833,"x_min":111,"x_max":731,"o":"m 131 -250 l 142 -187 l 343 -187 q 538 -21 510 -187 l 551 69 l 572 200 q 480 94 542 133 q 336 56 418 56 q 167 128 224 56 q 131 324 111 201 l 200 764 l 269 764 l 201 333 q 228 173 185 231 q 360 115 271 115 q 515 174 451 115 q 593 333 578 232 l 661 764 l 731 764 l 607 -21 q 332 -250 569 -250 l 131 -250 m 458 896 l 636 1090 l 724 1090 l 538 896 l 458 896 z "},"ŷ":{"ha":833,"x_min":111,"x_max":731,"o":"m 131 -250 l 142 -187 l 343 -187 q 538 -21 510 -187 l 551 69 l 572 200 q 480 94 542 133 q 336 56 418 56 q 167 128 224 56 q 131 324 111 201 l 200 764 l 269 764 l 201 333 q 228 173 185 231 q 360 115 271 115 q 515 174 451 115 q 593 333 578 232 l 661 764 l 731 764 l 607 -21 q 332 -250 569 -250 l 131 -250 m 289 896 l 486 1090 l 569 1090 l 706 896 l 640 896 l 524 1047 l 363 896 l 289 896 z "},"ÿ":{"ha":833,"x_min":111,"x_max":739,"o":"m 131 -250 l 142 -187 l 343 -187 q 538 -21 510 -187 l 551 69 l 572 200 q 480 94 542 133 q 336 56 418 56 q 167 128 224 56 q 131 324 111 201 l 200 764 l 269 764 l 201 333 q 228 173 185 231 q 360 115 271 115 q 515 174 451 115 q 593 333 578 232 l 661 764 l 731 764 l 607 -21 q 332 -250 569 -250 l 131 -250 m 650 910 q 599 931 617 910 q 588 986 582 951 q 617 1042 594 1021 q 674 1063 640 1063 q 722 1042 706 1063 q 732 986 739 1021 q 704 931 726 951 q 650 910 682 910 m 351 910 q 302 931 319 910 q 290 986 285 951 q 320 1042 297 1021 q 375 1063 343 1063 q 424 1042 407 1063 q 435 986 442 1021 q 406 931 429 951 q 351 910 383 910 z "},"ỵ":{"ha":833,"x_min":111,"x_max":743,"o":"m 131 -250 l 142 -187 l 343 -187 q 538 -21 510 -187 l 551 69 l 572 200 q 480 94 542 133 q 336 56 418 56 q 167 128 224 56 q 131 324 111 201 l 200 764 l 269 764 l 201 333 q 228 173 185 231 q 360 115 271 115 q 515 174 451 115 q 593 333 578 232 l 661 764 l 731 764 l 607 -21 q 332 -250 569 -250 l 131 -250 m 646 -340 q 590 -319 610 -340 q 576 -264 571 -299 q 608 -208 582 -229 q 669 -187 633 -187 q 724 -208 706 -187 q 738 -264 743 -229 q 707 -319 732 -299 q 646 -340 682 -340 z "},"ỳ":{"ha":833,"x_min":111,"x_max":731,"o":"m 131 -250 l 142 -187 l 343 -187 q 538 -21 510 -187 l 551 69 l 572 200 q 480 94 542 133 q 336 56 418 56 q 167 128 224 56 q 131 324 111 201 l 200 764 l 269 764 l 201 333 q 228 173 185 231 q 360 115 271 115 q 515 174 451 115 q 593 333 578 232 l 661 764 l 731 764 l 607 -21 q 332 -250 569 -250 l 131 -250 m 476 896 l 351 1090 l 432 1090 l 549 896 l 476 896 z "},"ỷ":{"ha":833,"x_min":111,"x_max":731,"o":"m 131 -250 l 142 -187 l 343 -187 q 538 -21 510 -187 l 551 69 l 572 200 q 480 94 542 133 q 336 56 418 56 q 167 128 224 56 q 131 324 111 201 l 200 764 l 269 764 l 201 333 q 228 173 185 231 q 360 115 271 115 q 515 174 451 115 q 593 333 578 232 l 661 764 l 731 764 l 607 -21 q 332 -250 569 -250 l 131 -250 m 458 896 l 553 1001 q 575 1030 565 1017 q 586 1051 585 1043 q 542 1090 593 1090 l 419 1090 l 428 1139 l 550 1139 q 624 1117 599 1139 q 644 1057 650 1094 q 632 1021 642 1040 q 607 983 622 1001 l 531 896 l 458 896 z "},"ȳ":{"ha":833,"x_min":111,"x_max":731,"o":"m 131 -250 l 142 -187 l 343 -187 q 538 -21 510 -187 l 551 69 l 572 200 q 480 94 542 133 q 336 56 418 56 q 167 128 224 56 q 131 324 111 201 l 200 764 l 269 764 l 201 333 q 228 173 185 231 q 360 115 271 115 q 515 174 451 115 q 593 333 578 232 l 661 764 l 731 764 l 607 -21 q 332 -250 569 -250 l 131 -250 m 311 950 l 321 1010 l 710 1010 l 700 950 l 311 950 z "},"ỹ":{"ha":833,"x_min":111,"x_max":749,"o":"m 131 -250 l 142 -187 l 343 -187 q 538 -21 510 -187 l 551 69 l 572 200 q 480 94 542 133 q 336 56 418 56 q 167 128 224 56 q 131 324 111 201 l 200 764 l 269 764 l 201 333 q 228 173 185 231 q 360 115 271 115 q 515 174 451 115 q 593 333 578 232 l 661 764 l 731 764 l 607 -21 q 332 -250 569 -250 l 131 -250 m 603 903 q 540 922 564 903 q 498 966 515 940 q 463 1010 481 992 q 421 1029 446 1029 q 367 1010 389 1029 q 340 958 346 990 l 333 910 l 278 910 l 285 958 q 333 1050 294 1017 q 431 1083 372 1083 q 494 1065 469 1083 q 535 1020 518 1046 q 569 976 551 994 q 611 957 586 957 q 660 976 640 957 q 685 1028 679 996 l 693 1076 l 749 1076 l 740 1028 q 694 936 731 969 q 603 903 658 903 z "},"z":{"ha":833,"x_min":82,"x_max":732,"o":"m 82 0 l 92 64 l 640 701 l 206 701 l 215 764 l 732 764 l 722 699 l 172 63 l 639 63 l 629 0 l 82 0 z "},"ź":{"ha":833,"x_min":82,"x_max":732,"o":"m 82 0 l 92 64 l 640 701 l 206 701 l 215 764 l 732 764 l 722 699 l 172 63 l 639 63 l 629 0 l 82 0 m 458 896 l 636 1090 l 724 1090 l 538 896 l 458 896 z "},"ž":{"ha":833,"x_min":82,"x_max":738,"o":"m 82 0 l 92 64 l 640 701 l 206 701 l 215 764 l 732 764 l 722 699 l 172 63 l 639 63 l 629 0 l 82 0 m 457 896 l 321 1090 l 389 1090 l 506 939 l 668 1090 l 738 1090 l 540 896 l 457 896 z "},"ż":{"ha":833,"x_min":82,"x_max":732,"o":"m 82 0 l 92 64 l 640 701 l 206 701 l 215 764 l 732 764 l 722 699 l 172 63 l 639 63 l 629 0 l 82 0 m 499 910 q 444 931 463 910 q 431 986 425 951 q 462 1042 436 1021 q 524 1063 488 1063 q 578 1042 560 1063 q 592 986 597 1021 q 560 931 586 951 q 499 910 535 910 z "},"ª":{"ha":833,"x_min":297,"x_max":668,"o":"m 418 625 q 328 657 358 625 q 307 743 297 689 q 356 828 315 796 q 457 861 397 861 l 603 861 l 610 903 q 591 963 617 940 q 518 986 565 986 q 447 967 478 986 q 404 917 415 949 l 356 917 q 419 997 372 967 q 525 1028 465 1028 q 631 994 594 1028 q 658 903 668 960 l 615 632 l 571 632 l 583 708 l 579 708 q 515 648 560 671 q 418 625 471 625 m 443 664 q 541 693 501 664 q 589 771 581 722 l 589 771 l 597 819 l 450 819 q 387 799 413 819 q 356 743 361 778 q 374 685 350 707 q 443 664 397 664 z "},"º":{"ha":833,"x_min":314,"x_max":658,"o":"m 453 618 q 349 654 385 618 q 324 750 314 690 l 346 896 q 403 992 356 956 q 518 1028 450 1028 q 622 992 586 1028 q 649 896 658 956 l 626 750 q 569 654 617 690 q 453 618 521 618 m 460 660 q 540 685 507 660 q 579 750 572 710 l 601 896 q 583 961 608 936 q 511 986 558 986 q 432 961 464 986 q 393 896 400 936 l 371 750 q 388 685 364 710 q 460 660 413 660 z "},"А":{"ha":833,"x_min":33,"x_max":678,"o":"m 33 0 l 474 1014 l 560 1014 l 678 0 l 608 0 l 576 292 l 229 292 l 106 0 l 33 0 m 256 354 l 569 354 l 525 764 q 514 890 517 839 q 510 956 511 940 q 484 890 504 940 q 432 764 464 839 l 256 354 z "},"Б":{"ha":833,"x_min":92,"x_max":775,"o":"m 92 0 l 253 1014 l 775 1014 l 764 951 l 311 951 l 250 563 l 453 563 q 653 487 586 563 q 700 283 721 411 q 641 133 688 197 q 524 35 594 69 q 364 0 453 0 l 92 0 m 171 63 l 374 63 q 546 121 478 63 q 631 282 614 179 q 597 442 647 385 q 443 500 547 500 l 240 500 l 171 63 z "},"В":{"ha":833,"x_min":92,"x_max":769,"o":"m 92 0 l 253 1014 l 514 1014 q 705 943 640 1014 q 750 753 769 872 q 685 601 736 663 q 557 521 633 540 q 677 440 639 504 q 700 278 715 375 q 587 76 679 151 q 357 0 494 0 l 92 0 m 249 553 l 440 553 q 603 606 539 553 q 681 751 667 658 q 648 897 696 844 q 503 950 600 950 l 311 950 l 249 553 m 171 64 l 367 64 q 544 121 474 64 q 631 276 614 178 q 594 433 646 375 q 435 490 542 490 l 239 490 l 171 64 z "},"Г":{"ha":833,"x_min":133,"x_max":857,"o":"m 133 0 l 294 1014 l 857 1014 l 846 951 l 353 951 l 203 0 l 133 0 z "},"Ѓ":{"ha":833,"x_min":133,"x_max":857,"o":"m 133 0 l 294 1014 l 857 1014 l 846 951 l 353 951 l 203 0 l 133 0 m 508 1125 l 686 1319 l 774 1319 l 588 1125 l 508 1125 z "},"Ґ":{"ha":833,"x_min":133,"x_max":878,"o":"m 133 0 l 294 1014 l 788 1014 l 808 1146 l 878 1146 l 846 951 l 353 951 l 203 0 l 133 0 z "},"Д":{"ha":833,"x_min":-25,"x_max":764,"o":"m -25 -194 l 15 63 l 63 63 q 115 135 86 88 q 171 245 144 182 q 210 383 197 308 l 324 1014 l 764 1014 l 613 63 l 713 63 l 672 -194 l 610 -194 l 640 0 l 68 0 l 38 -194 l -25 -194 m 136 63 l 543 63 l 683 951 l 382 951 l 279 383 q 240 245 265 308 q 188 135 215 182 q 136 63 160 88 z "},"Е":{"ha":833,"x_min":106,"x_max":808,"o":"m 106 0 l 267 1014 l 808 1014 l 797 950 l 325 950 l 264 560 l 688 560 l 678 497 l 254 497 l 185 64 l 657 64 l 647 0 l 106 0 z "},"Ё":{"ha":833,"x_min":106,"x_max":808,"o":"m 106 0 l 267 1014 l 808 1014 l 797 950 l 325 950 l 264 560 l 688 560 l 678 497 l 254 497 l 185 64 l 657 64 l 647 0 l 106 0 m 718 1146 q 667 1167 685 1146 q 656 1222 650 1188 q 685 1278 663 1257 q 742 1299 708 1299 q 790 1278 774 1299 q 800 1222 807 1257 q 772 1167 794 1188 q 718 1146 750 1146 m 419 1146 q 370 1167 388 1146 q 358 1222 353 1188 q 388 1278 365 1257 q 443 1299 411 1299 q 492 1278 475 1299 q 503 1222 510 1257 q 474 1167 497 1188 q 419 1146 451 1146 z "},"Ж":{"ha":833,"x_min":-21,"x_max":878,"o":"m -21 0 l 250 531 l 153 1014 l 222 1014 l 310 550 l 411 550 l 485 1014 l 546 1014 l 472 550 l 569 550 l 806 1014 l 878 1014 l 625 522 l 731 0 l 660 0 l 564 492 l 463 492 l 385 0 l 324 0 l 401 492 l 304 492 l 53 0 l -21 0 z "},"З":{"ha":833,"x_min":58,"x_max":764,"o":"m 339 -14 q 181 22 246 -14 q 88 122 117 58 q 71 268 58 185 l 140 268 q 183 110 125 171 q 350 49 242 49 q 482 76 422 49 q 581 153 542 104 q 629 268 619 203 q 586 428 644 367 q 419 490 528 490 l 315 490 l 325 553 l 422 553 q 596 610 524 553 q 682 760 668 668 q 643 909 697 851 q 488 967 589 967 q 315 909 386 967 q 229 760 244 851 l 160 760 q 219 899 172 839 q 338 994 267 960 q 497 1028 410 1028 q 647 994 585 1028 q 736 899 708 960 q 751 760 764 839 q 680 604 736 668 q 543 521 624 540 q 671 436 628 503 q 699 272 714 369 q 635 123 686 188 q 508 22 585 58 q 339 -14 432 -14 z "},"И":{"ha":833,"x_min":90,"x_max":782,"o":"m 90 0 l 251 1014 l 318 1014 l 194 236 q 178 140 186 183 q 167 76 171 96 l 685 1014 l 782 1014 l 621 0 l 554 0 l 678 778 q 685 816 679 789 q 697 876 690 843 q 708 938 703 910 l 186 0 l 90 0 z "},"Й":{"ha":833,"x_min":90,"x_max":782,"o":"m 90 0 l 251 1014 l 318 1014 l 194 236 q 178 140 186 183 q 167 76 171 96 l 685 1014 l 782 1014 l 621 0 l 554 0 l 678 778 q 685 816 679 789 q 697 876 690 843 q 708 938 703 910 l 186 0 l 90 0 m 533 1122 q 394 1176 440 1122 q 363 1319 349 1229 l 425 1319 q 446 1216 415 1254 q 540 1178 476 1178 q 649 1216 606 1178 q 703 1319 693 1254 l 765 1319 q 689 1176 751 1229 q 533 1122 626 1122 z "},"К":{"ha":833,"x_min":92,"x_max":836,"o":"m 92 0 l 253 1014 l 322 1014 l 250 557 l 461 557 l 756 1014 l 836 1014 l 521 524 l 689 0 l 611 0 l 454 494 l 239 494 l 161 0 l 92 0 z "},"Ќ":{"ha":833,"x_min":92,"x_max":836,"o":"m 465 1125 l 643 1319 l 731 1319 l 544 1125 l 465 1125 m 92 0 l 253 1014 l 322 1014 l 250 557 l 461 557 l 756 1014 l 836 1014 l 521 524 l 689 0 l 611 0 l 454 494 l 239 494 l 161 0 l 92 0 z "},"Л":{"ha":833,"x_min":-28,"x_max":781,"o":"m -28 -7 l -17 63 l 25 63 q 117 108 78 63 q 168 228 156 153 l 300 1014 l 781 1014 l 619 0 l 550 0 l 700 950 l 358 950 l 238 228 q 159 57 219 121 q 14 -7 99 -7 l -28 -7 z "},"М":{"ha":833,"x_min":67,"x_max":806,"o":"m 67 0 l 228 1014 l 329 1014 l 408 625 q 422 558 415 594 q 433 499 429 522 q 463 558 444 522 q 497 625 482 594 l 700 1014 l 806 1014 l 644 0 l 576 0 l 674 611 q 697 752 685 682 q 721 882 710 822 q 739 979 732 942 l 464 451 l 390 451 l 282 979 q 270 882 278 942 q 253 752 263 822 q 232 611 243 682 l 135 0 l 67 0 z "},"Н":{"ha":833,"x_min":92,"x_max":781,"o":"m 92 0 l 253 1014 l 322 1014 l 250 558 l 639 558 l 711 1014 l 781 1014 l 619 0 l 550 0 l 628 494 l 239 494 l 161 0 l 92 0 z "},"О":{"ha":833,"x_min":107,"x_max":765,"o":"m 353 -14 q 169 62 231 -14 q 126 264 107 138 l 204 750 q 261 897 218 835 q 370 993 304 958 q 518 1028 436 1028 q 703 952 642 1028 q 746 750 765 876 l 668 264 q 563 62 649 138 q 353 -14 476 -14 m 363 47 q 520 104 458 47 q 599 264 582 161 l 676 750 q 647 910 692 853 q 508 967 603 967 q 351 910 414 967 q 274 750 289 853 l 196 264 q 223 104 179 161 q 363 47 267 47 z "},"П":{"ha":833,"x_min":92,"x_max":781,"o":"m 92 0 l 253 1014 l 781 1014 l 619 0 l 550 0 l 700 951 l 311 951 l 161 0 l 92 0 z "},"Р":{"ha":833,"x_min":92,"x_max":818,"o":"m 92 0 l 253 1014 l 551 1014 q 751 937 685 1014 q 797 732 818 860 q 738 583 785 647 q 621 485 692 519 q 461 450 550 450 l 232 450 l 161 0 l 92 0 m 243 514 l 472 514 q 643 573 574 514 q 728 732 713 632 q 694 892 744 833 q 540 950 643 950 l 311 950 l 243 514 z "},"С":{"ha":833,"x_min":107,"x_max":785,"o":"m 361 -14 q 171 62 235 -14 q 126 264 107 138 l 204 750 q 312 953 224 878 q 526 1028 400 1028 q 720 949 656 1028 q 764 736 785 869 l 694 736 q 663 904 711 843 q 517 965 615 965 q 354 908 419 965 q 274 750 289 850 l 196 264 q 228 106 181 164 q 372 49 275 49 q 539 110 472 49 q 622 278 606 172 l 692 278 q 632 124 678 189 q 517 22 586 58 q 361 -14 447 -14 z "},"Т":{"ha":833,"x_min":172,"x_max":850,"o":"m 322 0 l 472 950 l 172 950 l 183 1014 l 850 1014 l 839 950 l 542 950 l 392 0 l 322 0 z "},"У":{"ha":833,"x_min":194,"x_max":839,"o":"m 226 0 l 371 267 l 194 1014 l 271 1014 l 383 518 q 405 422 394 472 q 421 342 415 371 q 457 422 433 371 q 504 518 481 472 l 761 1014 l 839 1014 l 308 0 l 226 0 z "},"Ў":{"ha":833,"x_min":194,"x_max":839,"o":"m 226 0 l 371 267 l 194 1014 l 271 1014 l 383 518 q 405 422 394 472 q 421 342 415 371 q 457 422 433 371 q 504 518 481 472 l 761 1014 l 839 1014 l 308 0 l 226 0 m 533 1122 q 394 1176 440 1122 q 363 1319 349 1229 l 425 1319 q 446 1216 415 1254 q 540 1178 476 1178 q 649 1216 606 1178 q 703 1319 693 1254 l 765 1319 q 689 1176 751 1229 q 533 1122 626 1122 z "},"Ф":{"ha":833,"x_min":64,"x_max":811,"o":"m 315 -35 l 331 63 q 130 138 196 63 q 85 343 64 214 l 140 694 q 251 897 161 822 q 475 972 340 972 l 490 1069 l 560 1069 l 544 972 q 746 897 681 972 q 790 694 811 822 l 735 343 q 624 138 714 214 q 400 63 535 63 l 385 -35 l 315 -35 m 340 125 l 465 910 q 346 882 400 910 q 256 806 292 854 q 210 694 219 757 l 154 343 q 192 187 140 249 q 340 125 243 125 m 410 125 q 529 153 475 125 q 619 231 583 182 q 665 343 656 281 l 721 694 q 685 849 736 788 q 535 910 633 910 l 410 125 z "},"Х":{"ha":833,"x_min":13,"x_max":839,"o":"m 13 0 l 399 529 l 194 1014 l 269 1014 l 389 706 q 416 644 399 682 q 446 578 433 606 q 494 644 465 606 q 539 706 522 682 l 761 1014 l 839 1014 l 481 529 l 699 0 l 624 0 l 490 350 q 464 410 482 372 q 435 478 446 449 q 385 410 413 449 q 342 350 357 372 l 92 0 l 13 0 z "},"Ч":{"ha":833,"x_min":151,"x_max":781,"o":"m 550 0 l 619 433 q 526 422 581 426 q 421 417 472 417 q 215 484 278 417 q 172 682 151 551 l 225 1014 l 294 1014 l 242 682 q 272 526 224 574 q 444 479 319 479 q 540 483 489 479 q 628 494 590 488 l 711 1014 l 781 1014 l 619 0 l 550 0 z "},"Ц":{"ha":833,"x_min":92,"x_max":757,"o":"m 603 -194 l 633 0 l 92 0 l 253 1014 l 322 1014 l 171 63 l 536 63 l 688 1014 l 757 1014 l 606 63 l 713 63 l 672 -194 l 603 -194 z "},"Ш":{"ha":833,"x_min":44,"x_max":828,"o":"m 44 0 l 206 1014 l 272 1014 l 121 60 l 332 60 l 483 1014 l 550 1014 l 399 60 l 610 60 l 761 1014 l 828 1014 l 667 0 l 44 0 z "},"Щ":{"ha":833,"x_min":44,"x_max":819,"o":"m 624 -194 l 654 0 l 44 0 l 206 1014 l 272 1014 l 121 60 l 328 60 l 479 1014 l 546 1014 l 394 60 l 601 60 l 753 1014 l 819 1014 l 668 60 l 733 60 l 693 -194 l 624 -194 z "},"Џ":{"ha":833,"x_min":92,"x_max":781,"o":"m 290 -174 l 318 0 l 92 0 l 253 1014 l 329 1014 l 179 69 l 554 69 l 704 1014 l 781 1014 l 619 0 l 394 0 l 367 -174 l 290 -174 z "},"Ь":{"ha":833,"x_min":92,"x_max":736,"o":"m 92 0 l 253 1014 l 322 1014 l 254 583 l 463 583 q 667 504 599 583 q 714 292 736 425 q 653 138 700 203 q 533 36 606 72 q 369 0 461 0 l 92 0 m 171 63 l 379 63 q 555 125 483 63 q 643 292 626 188 q 608 458 660 396 q 451 521 556 521 l 243 521 l 171 63 z "},"Ъ":{"ha":833,"x_min":103,"x_max":736,"o":"m 133 0 l 283 944 l 103 944 l 114 1014 l 364 1014 l 296 583 l 463 583 q 667 504 599 583 q 714 292 736 425 q 653 138 700 203 q 533 36 606 72 q 369 0 461 0 l 133 0 m 213 63 l 379 63 q 555 125 483 63 q 643 292 626 188 q 608 458 660 396 q 451 521 556 521 l 285 521 l 213 63 z "},"Ы":{"ha":833,"x_min":50,"x_max":822,"o":"m 50 0 l 211 1014 l 281 1014 l 213 583 l 289 583 q 474 511 413 583 q 517 319 536 439 l 508 264 q 405 72 490 144 q 196 0 319 0 l 50 0 m 592 0 l 753 1014 l 822 1014 l 661 0 l 592 0 m 129 63 l 206 63 q 363 117 300 63 q 439 264 425 171 l 447 319 q 417 467 463 414 q 278 521 372 521 l 201 521 l 129 63 z "},"Љ":{"ha":833,"x_min":-69,"x_max":799,"o":"m -69 -7 l -58 63 l -24 63 q 55 104 22 63 q 100 219 88 146 l 239 1014 l 582 1014 l 514 583 l 608 583 q 751 527 704 583 q 783 375 799 471 l 757 208 q 676 56 742 113 q 515 0 611 0 l 351 0 l 501 951 l 297 951 l 169 219 q 96 55 151 117 q -35 -7 40 -7 l -69 -7 m 431 63 l 525 63 q 633 101 590 63 q 688 208 676 140 l 714 375 q 694 482 725 443 q 597 521 663 521 l 503 521 l 431 63 z "},"Њ":{"ha":833,"x_min":25,"x_max":799,"o":"m 25 0 l 186 1014 l 256 1014 l 188 583 l 444 583 l 513 1014 l 582 1014 l 514 583 l 601 583 q 749 527 700 583 q 783 375 799 471 l 757 208 q 674 56 742 113 q 508 0 607 0 l 351 0 l 433 521 l 176 521 l 94 0 l 25 0 m 431 63 l 518 63 q 631 101 586 63 q 688 208 676 140 l 714 375 q 692 482 725 443 q 590 521 658 521 l 503 521 l 431 63 z "},"Ѕ":{"ha":833,"x_min":78,"x_max":781,"o":"m 360 -14 q 149 60 219 -14 q 97 257 78 133 l 167 257 q 208 106 153 163 q 371 49 264 49 q 542 101 475 49 q 624 246 610 153 q 601 389 636 331 q 489 471 567 447 l 376 506 q 238 607 282 535 q 208 776 193 679 q 313 960 226 892 q 526 1028 399 1028 q 717 956 654 1028 q 761 761 781 885 l 692 761 q 658 910 707 854 q 515 965 610 965 q 354 917 418 965 q 278 782 290 868 q 300 647 267 704 q 403 568 333 590 l 515 533 q 662 425 614 503 q 694 250 710 347 q 585 58 675 129 q 360 -14 494 -14 z "},"Є":{"ha":833,"x_min":107,"x_max":785,"o":"m 361 -14 q 171 62 235 -14 q 126 264 107 138 l 204 750 q 312 953 224 878 q 526 1028 400 1028 q 720 949 656 1028 q 764 736 785 869 l 694 736 q 663 904 711 843 q 517 965 615 965 q 354 908 419 965 q 274 750 289 850 l 240 543 l 567 543 l 557 481 l 231 481 l 196 264 q 228 106 181 164 q 372 49 275 49 q 539 110 472 49 q 622 278 606 172 l 692 278 q 632 124 678 189 q 517 22 586 58 q 361 -14 447 -14 z "},"Э":{"ha":833,"x_min":93,"x_max":772,"o":"m 351 -14 q 158 65 222 -14 q 115 278 93 144 l 185 278 q 215 110 168 172 q 363 49 263 49 q 526 106 461 49 q 606 264 590 164 l 640 481 l 314 481 l 324 543 l 650 543 l 683 750 q 651 908 699 850 q 507 965 604 965 q 341 904 408 965 q 257 736 274 843 l 188 736 q 247 890 201 825 q 361 992 292 956 q 517 1028 431 1028 q 708 953 644 1028 q 753 750 772 878 l 675 264 q 617 118 663 181 q 504 21 572 56 q 351 -14 436 -14 z "},"І":{"ha":833,"x_min":106,"x_max":767,"o":"m 106 0 l 115 64 l 332 64 l 472 950 l 256 950 l 267 1014 l 767 1014 l 756 950 l 542 950 l 401 64 l 615 64 l 606 0 l 106 0 z "},"Ї":{"ha":833,"x_min":106,"x_max":778,"o":"m 689 1146 q 638 1167 656 1146 q 626 1222 621 1188 q 656 1278 633 1257 q 713 1299 679 1299 q 761 1278 744 1299 q 771 1222 778 1257 q 743 1167 765 1188 q 689 1146 721 1146 m 390 1146 q 341 1167 358 1146 q 329 1222 324 1188 q 359 1278 336 1257 q 414 1299 382 1299 q 463 1278 446 1299 q 474 1222 481 1257 q 445 1167 468 1188 q 390 1146 422 1146 m 106 0 l 115 64 l 332 64 l 472 950 l 256 950 l 267 1014 l 767 1014 l 756 950 l 542 950 l 401 64 l 615 64 l 606 0 l 106 0 z "},"Ј":{"ha":833,"x_min":58,"x_max":767,"o":"m 318 -14 q 122 64 185 -14 q 81 278 58 142 l 150 278 q 181 110 132 171 q 329 49 229 49 q 497 110 429 49 q 581 276 564 171 l 686 949 l 371 949 l 382 1014 l 767 1014 l 650 276 q 541 62 628 138 q 318 -14 454 -14 z "},"Ћ":{"ha":833,"x_min":89,"x_max":746,"o":"m 119 0 l 269 951 l 89 951 l 100 1014 l 524 1014 l 513 951 l 339 951 l 269 508 l 346 578 q 582 688 467 688 q 705 631 664 688 q 731 481 746 575 l 654 0 l 585 0 l 658 467 q 645 585 671 542 q 563 628 619 628 q 474 605 522 628 q 378 539 426 582 l 257 431 l 189 0 l 119 0 z "},"Ю":{"ha":833,"x_min":44,"x_max":829,"o":"m 472 -14 q 328 49 375 -14 q 299 222 281 111 l 342 494 l 189 494 l 111 0 l 44 0 l 206 1014 l 272 1014 l 199 550 l 351 550 l 389 792 q 474 965 407 903 q 638 1028 540 1028 q 783 965 736 1028 q 811 792 829 903 l 721 222 q 637 49 703 111 q 472 -14 571 -14 m 483 49 q 596 95 550 49 q 654 222 642 142 l 744 792 q 726 919 757 872 q 628 965 694 965 q 515 919 561 965 q 456 792 468 872 l 365 222 q 385 95 353 142 q 483 49 417 49 z "},"Я":{"ha":833,"x_min":39,"x_max":781,"o":"m 39 0 l 344 461 q 192 551 242 478 q 160 733 142 624 q 270 938 179 863 q 496 1014 361 1014 l 781 1014 l 619 0 l 550 0 l 622 458 l 422 458 l 122 0 l 39 0 m 417 521 l 632 521 l 700 951 l 485 951 q 314 893 383 951 q 229 736 244 835 q 265 580 214 639 q 417 521 315 521 z "},"Ђ":{"ha":833,"x_min":89,"x_max":746,"o":"m 269 -250 l 281 -187 l 339 -187 q 507 -132 442 -187 q 588 21 572 -76 l 658 467 q 645 585 671 542 q 563 628 619 628 q 474 605 522 628 q 378 539 426 582 l 257 431 l 189 0 l 119 0 l 269 951 l 89 951 l 100 1014 l 524 1014 l 513 951 l 339 951 l 269 510 l 346 579 q 581 688 465 688 q 705 631 664 688 q 731 481 746 575 l 657 21 q 599 -123 644 -62 q 485 -217 554 -183 q 328 -250 415 -250 l 269 -250 z "},"Ғ":{"ha":833,"x_min":71,"x_max":871,"o":"m 147 0 l 224 482 l 71 482 l 81 544 l 233 544 l 308 1014 l 871 1014 l 860 951 l 367 951 l 303 544 l 539 544 l 529 482 l 293 482 l 217 0 l 147 0 z "},"Қ":{"ha":833,"x_min":85,"x_max":829,"o":"m 85 0 l 246 1014 l 315 1014 l 243 557 l 454 557 l 749 1014 l 829 1014 l 514 524 l 663 63 l 726 63 l 686 -194 l 617 -194 l 647 0 l 604 0 l 447 494 l 232 494 l 154 0 l 85 0 z "},"Ң":{"ha":833,"x_min":89,"x_max":778,"o":"m 89 0 l 250 1014 l 319 1014 l 247 558 l 636 558 l 708 1014 l 778 1014 l 626 63 l 692 63 l 651 -194 l 582 -194 l 613 0 l 547 0 l 625 494 l 236 494 l 158 0 l 89 0 z "},"Ү":{"ha":833,"x_min":169,"x_max":864,"o":"m 321 0 l 382 389 l 169 1014 l 239 1014 l 394 556 q 414 499 406 525 q 426 458 422 472 q 451 498 435 471 q 488 556 467 525 l 789 1014 l 864 1014 l 451 389 l 390 0 l 321 0 z "},"Ұ":{"ha":833,"x_min":169,"x_max":864,"o":"m 321 0 l 372 326 l 178 326 l 188 389 l 382 389 l 169 1014 l 239 1014 l 394 556 q 414 499 406 525 q 426 458 422 472 q 451 498 435 471 q 488 556 467 525 l 789 1014 l 864 1014 l 451 389 l 646 389 l 636 326 l 442 326 l 390 0 l 321 0 z "},"Ҷ":{"ha":833,"x_min":138,"x_max":767,"o":"m 536 0 l 606 433 q 513 422 567 426 q 407 417 458 417 q 201 484 264 417 q 158 682 138 551 l 211 1014 l 281 1014 l 228 682 q 258 526 210 574 q 431 479 306 479 q 526 483 475 479 q 614 494 576 488 l 697 1014 l 767 1014 l 615 63 l 681 63 l 640 -194 l 571 -194 l 601 0 l 536 0 z "},"Һ":{"ha":833,"x_min":53,"x_max":682,"o":"m 283 1014 l 214 581 q 307 592 253 588 q 413 597 361 597 q 619 530 556 597 q 661 332 682 463 l 608 0 l 539 0 l 592 332 q 562 488 610 440 q 389 535 514 535 q 294 531 344 535 q 206 519 243 526 l 122 0 l 53 0 l 214 1014 l 283 1014 z "},"Ә":{"ha":833,"x_min":93,"x_max":772,"o":"m 350 -14 q 156 65 219 -14 q 115 278 93 143 l 157 543 l 650 543 l 683 750 q 651 907 699 849 q 506 965 604 965 q 341 904 408 965 q 257 736 274 843 l 188 736 q 297 949 208 871 q 515 1028 385 1028 q 708 953 644 1028 q 753 750 772 878 l 675 264 q 567 61 656 136 q 350 -14 479 -14 m 361 49 q 525 107 460 49 q 606 264 590 165 l 640 481 l 217 481 l 185 278 q 216 110 168 172 q 361 49 264 49 z "},"Ө":{"ha":833,"x_min":107,"x_max":765,"o":"m 353 -14 q 169 62 231 -14 q 126 264 107 138 l 204 750 q 261 897 218 835 q 370 993 304 958 q 518 1028 436 1028 q 703 952 642 1028 q 746 750 765 876 l 668 264 q 563 62 649 138 q 353 -14 476 -14 m 242 549 l 644 549 l 676 750 q 647 910 692 853 q 508 967 603 967 q 351 910 414 967 q 274 750 289 853 l 242 549 m 363 47 q 520 104 458 47 q 599 264 582 161 l 633 486 l 231 486 l 196 264 q 223 104 179 161 q 363 47 267 47 z "},"а":{"ha":833,"x_min":107,"x_max":740,"o":"m 335 -14 q 164 62 221 -14 q 126 263 107 138 l 164 500 q 219 646 178 583 q 322 743 260 708 q 461 778 385 778 q 584 747 535 778 q 650 660 633 715 l 654 660 l 671 764 l 740 764 l 619 0 l 550 0 l 567 104 l 561 104 q 468 17 528 49 q 335 -14 408 -14 m 358 46 q 515 103 453 46 q 592 263 576 161 l 629 500 q 602 660 644 603 q 465 718 560 718 q 310 660 372 718 q 233 500 249 603 l 196 263 q 223 103 181 161 q 358 46 265 46 z "},"б":{"ha":833,"x_min":107,"x_max":753,"o":"m 354 -14 q 165 63 224 -14 q 129 278 107 139 l 189 660 q 317 923 217 832 q 579 1014 418 1014 l 753 1014 l 742 944 l 568 944 q 361 870 442 944 q 258 660 281 796 l 240 546 l 246 546 q 330 651 269 614 q 479 688 390 688 q 658 613 603 688 q 689 396 713 538 l 671 278 q 566 63 649 139 q 354 -14 483 -14 m 365 49 q 522 110 460 49 q 601 278 583 171 l 619 396 q 594 566 638 504 q 457 628 551 628 q 297 564 360 628 q 217 396 233 500 l 199 278 q 226 110 181 171 q 365 49 271 49 z "},"в":{"ha":833,"x_min":93,"x_max":735,"o":"m 93 0 l 214 764 l 521 764 q 681 713 626 764 q 719 572 735 661 q 662 456 708 501 q 546 404 615 411 l 546 400 q 661 347 622 397 q 686 213 700 296 q 596 58 671 115 q 410 0 521 0 l 93 0 m 231 428 l 468 428 q 590 465 540 428 q 649 564 639 503 q 622 663 660 625 q 511 701 583 701 l 274 701 l 231 428 m 172 63 l 419 63 q 552 104 497 63 q 617 214 607 146 q 587 324 628 282 q 468 365 546 365 l 221 365 l 172 63 z "},"г":{"ha":833,"x_min":86,"x_max":728,"o":"m 393 -14 l 300 -14 q 140 46 194 -14 q 101 204 86 106 q 176 345 114 289 q 326 414 238 401 l 474 435 q 643 572 622 456 q 613 676 654 638 q 493 715 571 715 l 435 715 q 309 680 363 715 q 240 590 256 644 l 171 590 q 268 726 194 675 q 446 778 342 778 l 504 778 q 672 722 615 778 q 713 571 728 665 q 637 433 699 486 q 475 367 575 381 l 324 346 q 220 296 263 338 q 168 194 178 254 q 194 88 157 128 q 308 49 232 49 l 401 49 q 529 88 474 49 q 604 188 585 128 l 674 188 q 574 42 650 99 q 393 -14 497 -14 z "},"ѓ":{"ha":833,"x_min":86,"x_max":765,"o":"m 393 -14 l 300 -14 q 140 46 194 -14 q 101 204 86 106 q 176 345 114 289 q 326 414 238 401 l 474 435 q 643 572 622 456 q 613 676 654 638 q 493 715 571 715 l 435 715 q 309 680 363 715 q 240 590 256 644 l 171 590 q 268 726 194 675 q 446 778 342 778 l 504 778 q 672 722 615 778 q 713 571 728 665 q 637 433 699 486 q 475 367 575 381 l 324 346 q 220 296 263 338 q 168 194 178 254 q 194 88 157 128 q 308 49 232 49 l 401 49 q 529 88 474 49 q 604 188 585 128 l 674 188 q 574 42 650 99 q 393 -14 497 -14 m 500 896 l 678 1090 l 765 1090 l 579 896 l 500 896 z "},"ґ":{"ha":833,"x_min":140,"x_max":806,"o":"m 140 0 l 261 764 l 713 764 l 736 910 l 806 910 l 772 701 l 321 701 l 210 0 l 140 0 z "},"д":{"ha":833,"x_min":107,"x_max":760,"o":"m 353 -14 q 165 63 224 -14 q 129 278 107 139 l 147 396 q 249 613 171 538 q 450 688 326 688 q 588 651 539 688 q 639 546 636 614 l 644 546 l 663 660 q 627 870 683 796 q 443 944 571 944 l 269 944 l 279 1014 l 453 1014 q 687 923 614 1014 q 732 660 760 832 l 671 278 q 566 63 649 139 q 353 -14 483 -14 m 361 49 q 520 110 456 49 q 601 278 585 171 l 619 396 q 594 564 636 500 q 453 628 551 628 q 297 566 360 628 q 217 396 233 504 l 199 278 q 225 110 182 171 q 361 49 268 49 z "},"е":{"ha":833,"x_min":107,"x_max":725,"o":"m 354 -14 q 167 62 226 -14 q 126 264 107 138 l 164 500 q 269 702 183 626 q 481 778 354 778 q 666 702 607 778 q 706 500 725 626 l 685 368 l 213 368 l 196 264 q 224 106 181 164 q 364 47 267 47 q 498 85 442 47 q 585 188 554 122 l 654 188 q 540 40 619 94 q 354 -14 461 -14 m 222 428 l 624 428 l 636 500 q 610 658 653 600 q 471 717 567 717 q 311 659 374 717 q 233 500 249 601 l 222 428 z "},"ё":{"ha":833,"x_min":107,"x_max":740,"o":"m 651 910 q 601 931 618 910 q 589 986 583 951 q 619 1042 596 1021 q 675 1063 642 1063 q 724 1042 707 1063 q 733 986 740 1021 q 706 931 728 951 q 651 910 683 910 m 353 910 q 303 931 321 910 q 292 986 286 951 q 322 1042 299 1021 q 376 1063 344 1063 q 426 1042 408 1063 q 436 986 443 1021 q 408 931 431 951 q 353 910 385 910 m 354 -14 q 167 62 226 -14 q 126 264 107 138 l 164 500 q 269 702 183 626 q 481 778 354 778 q 666 702 607 778 q 706 500 725 626 l 685 368 l 213 368 l 196 264 q 224 106 181 164 q 364 47 267 47 q 498 85 442 47 q 585 188 554 122 l 654 188 q 540 40 619 94 q 354 -14 461 -14 m 222 428 l 624 428 l 636 500 q 610 658 653 600 q 471 717 567 717 q 311 659 374 717 q 233 500 249 601 l 222 428 z "}}}
